M48
INCH,TZ
T1C0.0157
T2C0.0394
T3C0.0472
%
G90
G05
T1
X6614Y-69114
X6811Y-68287
X6811Y-73425
X6850Y-70394
X7008Y-69331
X7559Y-74370
X7874Y-73051
X8012Y-73957
X8780Y-70342
X8831Y-73787
X9291Y-67382
X9744Y-74508
X9969Y-72374
X10039Y-67008
X10386Y-71957
X10748Y-72465
X10925Y-73957
X11750Y-71868
X11870Y-72579
X12067Y-67677
X12185Y-73622
X12618Y-75079
X12697Y-73287
X13642Y-69941
X14134Y-73937
X14213Y-72972
T2
X6126Y-67638
X6126Y-68638
X6126Y-69638
X6126Y-70638
X6126Y-71638
X6126Y-72638
X6126Y-73638
X6126Y-74638
X8203Y-66220
X8394Y-75866
X9203Y-66220
X9394Y-75866
X10203Y-66220
X10394Y-75866
X11203Y-66220
X11394Y-75866
X12203Y-66220
X12394Y-75866
X14992Y-67638
X14992Y-68638
X14992Y-69638
X14992Y-70638
X14992Y-71638
X14992Y-72638
X14992Y-73638
X14992Y-74638
T3
X7583Y-71319
X13488Y-71319
T0
M30
