G04 #@! TF.GenerationSoftware,KiCad,Pcbnew,(6.0.11)*
G04 #@! TF.CreationDate,2025-06-06T09:56:58+01:00*
G04 #@! TF.ProjectId,PCB_Dongle_Linky,5043425f-446f-46e6-976c-655f4c696e6b,rev?*
G04 #@! TF.SameCoordinates,Original*
G04 #@! TF.FileFunction,Soldermask,Bot*
G04 #@! TF.FilePolarity,Negative*
%FSLAX46Y46*%
G04 Gerber Fmt 4.6, Leading zero omitted, Abs format (unit mm)*
G04 Created by KiCad (PCBNEW (6.0.11)) date 2025-06-06 09:56:58*
%MOMM*%
%LPD*%
G01*
G04 APERTURE LIST*
G04 Aperture macros list*
%AMRoundRect*
0 Rectangle with rounded corners*
0 $1 Rounding radius*
0 $2 $3 $4 $5 $6 $7 $8 $9 X,Y pos of 4 corners*
0 Add a 4 corners polygon primitive as box body*
4,1,4,$2,$3,$4,$5,$6,$7,$8,$9,$2,$3,0*
0 Add four circle primitives for the rounded corners*
1,1,$1+$1,$2,$3*
1,1,$1+$1,$4,$5*
1,1,$1+$1,$6,$7*
1,1,$1+$1,$8,$9*
0 Add four rect primitives between the rounded corners*
20,1,$1+$1,$2,$3,$4,$5,0*
20,1,$1+$1,$4,$5,$6,$7,0*
20,1,$1+$1,$6,$7,$8,$9,0*
20,1,$1+$1,$8,$9,$2,$3,0*%
G04 Aperture macros list end*
%ADD10R,1.700000X1.700000*%
%ADD11O,1.700000X1.700000*%
%ADD12C,2.400000*%
%ADD13R,1.500000X1.780000*%
%ADD14RoundRect,0.250000X-0.262500X-0.450000X0.262500X-0.450000X0.262500X0.450000X-0.262500X0.450000X0*%
%ADD15RoundRect,0.250000X0.450000X-0.262500X0.450000X0.262500X-0.450000X0.262500X-0.450000X-0.262500X0*%
%ADD16RoundRect,0.150000X-0.150000X0.587500X-0.150000X-0.587500X0.150000X-0.587500X0.150000X0.587500X0*%
%ADD17RoundRect,0.250000X-0.450000X0.262500X-0.450000X-0.262500X0.450000X-0.262500X0.450000X0.262500X0*%
%ADD18R,1.500000X2.000000*%
%ADD19R,3.800000X2.000000*%
%ADD20RoundRect,0.150000X0.587500X0.150000X-0.587500X0.150000X-0.587500X-0.150000X0.587500X-0.150000X0*%
%ADD21RoundRect,0.150000X0.150000X-0.825000X0.150000X0.825000X-0.150000X0.825000X-0.150000X-0.825000X0*%
G04 APERTURE END LIST*
D10*
G04 #@! TO.C,J0*
X25275000Y-104400000D03*
D11*
X27815000Y-104400000D03*
X30355000Y-104400000D03*
X32895000Y-104400000D03*
X35435000Y-104400000D03*
G04 #@! TD*
D10*
G04 #@! TO.C,J2*
X42520000Y-108000000D03*
D11*
X42520000Y-110540000D03*
X42520000Y-113080000D03*
X42520000Y-115620000D03*
X42520000Y-118160000D03*
X42520000Y-120700000D03*
X42520000Y-123240000D03*
X42520000Y-125780000D03*
G04 #@! TD*
D10*
G04 #@! TO.C,J1*
X20000000Y-108000000D03*
D11*
X20000000Y-110540000D03*
X20000000Y-113080000D03*
X20000000Y-115620000D03*
X20000000Y-118160000D03*
X20000000Y-120700000D03*
X20000000Y-123240000D03*
X20000000Y-125780000D03*
G04 #@! TD*
D10*
G04 #@! TO.C,J4*
X25925000Y-129450000D03*
D11*
X28465000Y-129450000D03*
X31005000Y-129450000D03*
X33545000Y-129450000D03*
X36085000Y-129450000D03*
G04 #@! TD*
D12*
G04 #@! TO.C,C1*
X23700000Y-117350000D03*
X38700000Y-117350000D03*
G04 #@! TD*
D13*
G04 #@! TO.C,U1*
X29500000Y-113890000D03*
X29500000Y-111350000D03*
X39030000Y-111350000D03*
X39030000Y-113890000D03*
G04 #@! TD*
D14*
G04 #@! TO.C,R2b1*
X35837500Y-106650000D03*
X37662500Y-106650000D03*
G04 #@! TD*
D15*
G04 #@! TO.C,R9*
X22800000Y-122312500D03*
X22800000Y-120487500D03*
G04 #@! TD*
D16*
G04 #@! TO.C,Q2*
X22100000Y-124800000D03*
X24000000Y-124800000D03*
X23050000Y-126675000D03*
G04 #@! TD*
D17*
G04 #@! TO.C,R1*
X26565000Y-106837500D03*
X26565000Y-108662500D03*
G04 #@! TD*
D18*
G04 #@! TO.C,U2*
X26300000Y-117150000D03*
X28600000Y-117150000D03*
D19*
X28600000Y-123450000D03*
D18*
X30900000Y-117150000D03*
G04 #@! TD*
D16*
G04 #@! TO.C,Q1*
X24600000Y-112862500D03*
X26500000Y-112862500D03*
X25550000Y-114737500D03*
G04 #@! TD*
D20*
G04 #@! TO.C,Q3*
X32587500Y-107050000D03*
X32587500Y-108950000D03*
X30712500Y-108000000D03*
G04 #@! TD*
D17*
G04 #@! TO.C,R3*
X22700000Y-113650000D03*
X22700000Y-115475000D03*
G04 #@! TD*
D14*
G04 #@! TO.C,R2a1*
X35837500Y-108600000D03*
X37662500Y-108600000D03*
G04 #@! TD*
D21*
G04 #@! TO.C,U3*
X36605000Y-123775000D03*
X35335000Y-123775000D03*
X34065000Y-123775000D03*
X32795000Y-123775000D03*
X32795000Y-118825000D03*
X34065000Y-118825000D03*
X35335000Y-118825000D03*
X36605000Y-118825000D03*
G04 #@! TD*
M02*
