G04 #@! TF.GenerationSoftware,KiCad,Pcbnew,(6.0.11)*
G04 #@! TF.CreationDate,2025-06-06T09:56:58+01:00*
G04 #@! TF.ProjectId,PCB_Dongle_Linky,5043425f-446f-46e6-976c-655f4c696e6b,rev?*
G04 #@! TF.SameCoordinates,Original*
G04 #@! TF.FileFunction,Legend,Bot*
G04 #@! TF.FilePolarity,Positive*
%FSLAX46Y46*%
G04 Gerber Fmt 4.6, Leading zero omitted, Abs format (unit mm)*
G04 Created by KiCad (PCBNEW (6.0.11)) date 2025-06-06 09:56:58*
%MOMM*%
%LPD*%
G01*
G04 APERTURE LIST*
%ADD10C,0.125000*%
%ADD11C,0.100000*%
%ADD12C,0.150000*%
%ADD13C,0.120000*%
G04 APERTURE END LIST*
D10*
X38219047Y-115300000D02*
X38171428Y-115276190D01*
X38100000Y-115276190D01*
X38028571Y-115300000D01*
X37980952Y-115347619D01*
X37957142Y-115395238D01*
X37933333Y-115490476D01*
X37933333Y-115561904D01*
X37957142Y-115657142D01*
X37980952Y-115704761D01*
X38028571Y-115752380D01*
X38100000Y-115776190D01*
X38147619Y-115776190D01*
X38219047Y-115752380D01*
X38242857Y-115728571D01*
X38242857Y-115561904D01*
X38147619Y-115561904D01*
X38457142Y-115776190D02*
X38457142Y-115276190D01*
X38742857Y-115776190D01*
X38742857Y-115276190D01*
X38980952Y-115776190D02*
X38980952Y-115276190D01*
X39100000Y-115276190D01*
X39171428Y-115300000D01*
X39219047Y-115347619D01*
X39242857Y-115395238D01*
X39266666Y-115490476D01*
X39266666Y-115561904D01*
X39242857Y-115657142D01*
X39219047Y-115704761D01*
X39171428Y-115752380D01*
X39100000Y-115776190D01*
X38980952Y-115776190D01*
G04 #@! TO.C,U1*
X34645952Y-115626190D02*
X34645952Y-116030952D01*
X34622142Y-116078571D01*
X34598333Y-116102380D01*
X34550714Y-116126190D01*
X34455476Y-116126190D01*
X34407857Y-116102380D01*
X34384047Y-116078571D01*
X34360238Y-116030952D01*
X34360238Y-115626190D01*
X33860238Y-116126190D02*
X34145952Y-116126190D01*
X34003095Y-116126190D02*
X34003095Y-115626190D01*
X34050714Y-115697619D01*
X34098333Y-115745238D01*
X34145952Y-115769047D01*
D11*
G04 #@! TO.C,R2b1*
X39026190Y-106102380D02*
X38788095Y-105935714D01*
X39026190Y-105816666D02*
X38526190Y-105816666D01*
X38526190Y-106007142D01*
X38550000Y-106054761D01*
X38573809Y-106078571D01*
X38621428Y-106102380D01*
X38692857Y-106102380D01*
X38740476Y-106078571D01*
X38764285Y-106054761D01*
X38788095Y-106007142D01*
X38788095Y-105816666D01*
X38573809Y-106292857D02*
X38550000Y-106316666D01*
X38526190Y-106364285D01*
X38526190Y-106483333D01*
X38550000Y-106530952D01*
X38573809Y-106554761D01*
X38621428Y-106578571D01*
X38669047Y-106578571D01*
X38740476Y-106554761D01*
X39026190Y-106269047D01*
X39026190Y-106578571D01*
X39026190Y-106792857D02*
X38526190Y-106792857D01*
X38716666Y-106792857D02*
X38692857Y-106840476D01*
X38692857Y-106935714D01*
X38716666Y-106983333D01*
X38740476Y-107007142D01*
X38788095Y-107030952D01*
X38930952Y-107030952D01*
X38978571Y-107007142D01*
X39002380Y-106983333D01*
X39026190Y-106935714D01*
X39026190Y-106840476D01*
X39002380Y-106792857D01*
X39026190Y-107507142D02*
X39026190Y-107221428D01*
X39026190Y-107364285D02*
X38526190Y-107364285D01*
X38597619Y-107316666D01*
X38645238Y-107269047D01*
X38669047Y-107221428D01*
D12*
G04 #@! TO.C,R9*
X24471428Y-121300000D02*
X24185714Y-121100000D01*
X24471428Y-120957142D02*
X23871428Y-120957142D01*
X23871428Y-121185714D01*
X23900000Y-121242857D01*
X23928571Y-121271428D01*
X23985714Y-121300000D01*
X24071428Y-121300000D01*
X24128571Y-121271428D01*
X24157142Y-121242857D01*
X24185714Y-121185714D01*
X24185714Y-120957142D01*
X24471428Y-121585714D02*
X24471428Y-121700000D01*
X24442857Y-121757142D01*
X24414285Y-121785714D01*
X24328571Y-121842857D01*
X24214285Y-121871428D01*
X23985714Y-121871428D01*
X23928571Y-121842857D01*
X23900000Y-121814285D01*
X23871428Y-121757142D01*
X23871428Y-121642857D01*
X23900000Y-121585714D01*
X23928571Y-121557142D01*
X23985714Y-121528571D01*
X24128571Y-121528571D01*
X24185714Y-121557142D01*
X24214285Y-121585714D01*
X24242857Y-121642857D01*
X24242857Y-121757142D01*
X24214285Y-121814285D01*
X24185714Y-121842857D01*
X24128571Y-121871428D01*
D10*
G04 #@! TO.C,Q2*
X22097619Y-126673809D02*
X22145238Y-126650000D01*
X22192857Y-126602380D01*
X22264285Y-126530952D01*
X22311904Y-126507142D01*
X22359523Y-126507142D01*
X22335714Y-126626190D02*
X22383333Y-126602380D01*
X22430952Y-126554761D01*
X22454761Y-126459523D01*
X22454761Y-126292857D01*
X22430952Y-126197619D01*
X22383333Y-126150000D01*
X22335714Y-126126190D01*
X22240476Y-126126190D01*
X22192857Y-126150000D01*
X22145238Y-126197619D01*
X22121428Y-126292857D01*
X22121428Y-126459523D01*
X22145238Y-126554761D01*
X22192857Y-126602380D01*
X22240476Y-126626190D01*
X22335714Y-126626190D01*
X21930952Y-126173809D02*
X21907142Y-126150000D01*
X21859523Y-126126190D01*
X21740476Y-126126190D01*
X21692857Y-126150000D01*
X21669047Y-126173809D01*
X21645238Y-126221428D01*
X21645238Y-126269047D01*
X21669047Y-126340476D01*
X21954761Y-126626190D01*
X21645238Y-126626190D01*
G04 #@! TO.C,R1*
X25676190Y-107466666D02*
X25438095Y-107300000D01*
X25676190Y-107180952D02*
X25176190Y-107180952D01*
X25176190Y-107371428D01*
X25200000Y-107419047D01*
X25223809Y-107442857D01*
X25271428Y-107466666D01*
X25342857Y-107466666D01*
X25390476Y-107442857D01*
X25414285Y-107419047D01*
X25438095Y-107371428D01*
X25438095Y-107180952D01*
X25676190Y-107942857D02*
X25676190Y-107657142D01*
X25676190Y-107800000D02*
X25176190Y-107800000D01*
X25247619Y-107752380D01*
X25295238Y-107704761D01*
X25319047Y-107657142D01*
G04 #@! TO.C,U2*
X27730952Y-119926190D02*
X27730952Y-120330952D01*
X27707142Y-120378571D01*
X27683333Y-120402380D01*
X27635714Y-120426190D01*
X27540476Y-120426190D01*
X27492857Y-120402380D01*
X27469047Y-120378571D01*
X27445238Y-120330952D01*
X27445238Y-119926190D01*
X27230952Y-119973809D02*
X27207142Y-119950000D01*
X27159523Y-119926190D01*
X27040476Y-119926190D01*
X26992857Y-119950000D01*
X26969047Y-119973809D01*
X26945238Y-120021428D01*
X26945238Y-120069047D01*
X26969047Y-120140476D01*
X27254761Y-120426190D01*
X26945238Y-120426190D01*
G04 #@! TO.C,Q1*
X24247619Y-115686309D02*
X24295238Y-115662500D01*
X24342857Y-115614880D01*
X24414285Y-115543452D01*
X24461904Y-115519642D01*
X24509523Y-115519642D01*
X24485714Y-115638690D02*
X24533333Y-115614880D01*
X24580952Y-115567261D01*
X24604761Y-115472023D01*
X24604761Y-115305357D01*
X24580952Y-115210119D01*
X24533333Y-115162500D01*
X24485714Y-115138690D01*
X24390476Y-115138690D01*
X24342857Y-115162500D01*
X24295238Y-115210119D01*
X24271428Y-115305357D01*
X24271428Y-115472023D01*
X24295238Y-115567261D01*
X24342857Y-115614880D01*
X24390476Y-115638690D01*
X24485714Y-115638690D01*
X23795238Y-115638690D02*
X24080952Y-115638690D01*
X23938095Y-115638690D02*
X23938095Y-115138690D01*
X23985714Y-115210119D01*
X24033333Y-115257738D01*
X24080952Y-115281547D01*
D12*
G04 #@! TO.C,Q3*
X29266666Y-108333333D02*
X29333333Y-108300000D01*
X29400000Y-108233333D01*
X29500000Y-108133333D01*
X29566666Y-108100000D01*
X29633333Y-108100000D01*
X29600000Y-108266666D02*
X29666666Y-108233333D01*
X29733333Y-108166666D01*
X29766666Y-108033333D01*
X29766666Y-107800000D01*
X29733333Y-107666666D01*
X29666666Y-107600000D01*
X29600000Y-107566666D01*
X29466666Y-107566666D01*
X29400000Y-107600000D01*
X29333333Y-107666666D01*
X29300000Y-107800000D01*
X29300000Y-108033333D01*
X29333333Y-108166666D01*
X29400000Y-108233333D01*
X29466666Y-108266666D01*
X29600000Y-108266666D01*
X29066666Y-107566666D02*
X28633333Y-107566666D01*
X28866666Y-107833333D01*
X28766666Y-107833333D01*
X28700000Y-107866666D01*
X28666666Y-107900000D01*
X28633333Y-107966666D01*
X28633333Y-108133333D01*
X28666666Y-108200000D01*
X28700000Y-108233333D01*
X28766666Y-108266666D01*
X28966666Y-108266666D01*
X29033333Y-108233333D01*
X29066666Y-108200000D01*
D10*
G04 #@! TO.C,R3*
X21676190Y-114479166D02*
X21438095Y-114312500D01*
X21676190Y-114193452D02*
X21176190Y-114193452D01*
X21176190Y-114383928D01*
X21200000Y-114431547D01*
X21223809Y-114455357D01*
X21271428Y-114479166D01*
X21342857Y-114479166D01*
X21390476Y-114455357D01*
X21414285Y-114431547D01*
X21438095Y-114383928D01*
X21438095Y-114193452D01*
X21176190Y-114645833D02*
X21176190Y-114955357D01*
X21366666Y-114788690D01*
X21366666Y-114860119D01*
X21390476Y-114907738D01*
X21414285Y-114931547D01*
X21461904Y-114955357D01*
X21580952Y-114955357D01*
X21628571Y-114931547D01*
X21652380Y-114907738D01*
X21676190Y-114860119D01*
X21676190Y-114717261D01*
X21652380Y-114669642D01*
X21628571Y-114645833D01*
D11*
G04 #@! TO.C,R2a1*
X39126190Y-108302380D02*
X38888095Y-108135714D01*
X39126190Y-108016666D02*
X38626190Y-108016666D01*
X38626190Y-108207142D01*
X38650000Y-108254761D01*
X38673809Y-108278571D01*
X38721428Y-108302380D01*
X38792857Y-108302380D01*
X38840476Y-108278571D01*
X38864285Y-108254761D01*
X38888095Y-108207142D01*
X38888095Y-108016666D01*
X38673809Y-108492857D02*
X38650000Y-108516666D01*
X38626190Y-108564285D01*
X38626190Y-108683333D01*
X38650000Y-108730952D01*
X38673809Y-108754761D01*
X38721428Y-108778571D01*
X38769047Y-108778571D01*
X38840476Y-108754761D01*
X39126190Y-108469047D01*
X39126190Y-108778571D01*
X39126190Y-109207142D02*
X38864285Y-109207142D01*
X38816666Y-109183333D01*
X38792857Y-109135714D01*
X38792857Y-109040476D01*
X38816666Y-108992857D01*
X39102380Y-109207142D02*
X39126190Y-109159523D01*
X39126190Y-109040476D01*
X39102380Y-108992857D01*
X39054761Y-108969047D01*
X39007142Y-108969047D01*
X38959523Y-108992857D01*
X38935714Y-109040476D01*
X38935714Y-109159523D01*
X38911904Y-109207142D01*
X39126190Y-109707142D02*
X39126190Y-109421428D01*
X39126190Y-109564285D02*
X38626190Y-109564285D01*
X38697619Y-109516666D01*
X38745238Y-109469047D01*
X38769047Y-109421428D01*
D10*
G04 #@! TO.C,U3*
X34365952Y-120751190D02*
X34365952Y-121155952D01*
X34342142Y-121203571D01*
X34318333Y-121227380D01*
X34270714Y-121251190D01*
X34175476Y-121251190D01*
X34127857Y-121227380D01*
X34104047Y-121203571D01*
X34080238Y-121155952D01*
X34080238Y-120751190D01*
X33889761Y-120751190D02*
X33580238Y-120751190D01*
X33746904Y-120941666D01*
X33675476Y-120941666D01*
X33627857Y-120965476D01*
X33604047Y-120989285D01*
X33580238Y-121036904D01*
X33580238Y-121155952D01*
X33604047Y-121203571D01*
X33627857Y-121227380D01*
X33675476Y-121251190D01*
X33818333Y-121251190D01*
X33865952Y-121227380D01*
X33889761Y-121203571D01*
D13*
G04 #@! TO.C,U1*
X31030000Y-110020000D02*
X37500000Y-110020000D01*
X37500000Y-115220000D02*
X35265000Y-115220000D01*
X37500000Y-110020000D02*
X37500000Y-115220000D01*
X33265000Y-115220000D02*
X31030000Y-115220000D01*
X31030000Y-115220000D02*
X31030000Y-110020000D01*
X35265000Y-115220000D02*
G75*
G03*
X33265000Y-115220000I-1000000J0D01*
G01*
G04 #@! TO.C,R2b1*
X36522936Y-107385000D02*
X36977064Y-107385000D01*
X36522936Y-105915000D02*
X36977064Y-105915000D01*
G04 #@! TO.C,R9*
X23535000Y-121627064D02*
X23535000Y-121172936D01*
X22065000Y-121627064D02*
X22065000Y-121172936D01*
G04 #@! TO.C,Q2*
X21490000Y-125737500D02*
X21490000Y-126387500D01*
X24610000Y-125737500D02*
X24610000Y-125087500D01*
X24610000Y-125737500D02*
X24610000Y-126387500D01*
X21490000Y-125737500D02*
X21490000Y-124062500D01*
G04 #@! TO.C,R1*
X27300000Y-107522936D02*
X27300000Y-107977064D01*
X25830000Y-107522936D02*
X25830000Y-107977064D01*
G04 #@! TO.C,U2*
X25190000Y-116200000D02*
X25190000Y-122210000D01*
X32010000Y-118450000D02*
X32010000Y-122210000D01*
X25190000Y-122210000D02*
X26450000Y-122210000D01*
X32010000Y-122210000D02*
X30750000Y-122210000D01*
G04 #@! TO.C,Q1*
X27110000Y-113800000D02*
X27110000Y-114450000D01*
X23990000Y-113800000D02*
X23990000Y-112125000D01*
X23990000Y-113800000D02*
X23990000Y-114450000D01*
X27110000Y-113800000D02*
X27110000Y-113150000D01*
G04 #@! TO.C,Q3*
X31650000Y-109560000D02*
X32300000Y-109560000D01*
X31650000Y-106440000D02*
X33325000Y-106440000D01*
X31650000Y-109560000D02*
X31000000Y-109560000D01*
X31650000Y-106440000D02*
X31000000Y-106440000D01*
G04 #@! TO.C,R3*
X23435000Y-114335436D02*
X23435000Y-114789564D01*
X21965000Y-114335436D02*
X21965000Y-114789564D01*
G04 #@! TO.C,R2a1*
X36522936Y-109335000D02*
X36977064Y-109335000D01*
X36522936Y-107865000D02*
X36977064Y-107865000D01*
G04 #@! TO.C,U3*
X37260000Y-121300000D02*
X37260000Y-119350000D01*
X37260000Y-121300000D02*
X37260000Y-124750000D01*
X32140000Y-121300000D02*
X32140000Y-123250000D01*
X32140000Y-121300000D02*
X32140000Y-119350000D01*
G04 #@! TD*
M02*
