G04 #@! TF.GenerationSoftware,KiCad,Pcbnew,(6.0.11)*
G04 #@! TF.CreationDate,2025-06-06T09:56:58+01:00*
G04 #@! TF.ProjectId,PCB_Dongle_Linky,5043425f-446f-46e6-976c-655f4c696e6b,rev?*
G04 #@! TF.SameCoordinates,Original*
G04 #@! TF.FileFunction,Copper,L1,Top*
G04 #@! TF.FilePolarity,Positive*
%FSLAX46Y46*%
G04 Gerber Fmt 4.6, Leading zero omitted, Abs format (unit mm)*
G04 Created by KiCad (PCBNEW (6.0.11)) date 2025-06-06 09:56:58*
%MOMM*%
%LPD*%
G01*
G04 APERTURE LIST*
G04 Aperture macros list*
%AMRoundRect*
0 Rectangle with rounded corners*
0 $1 Rounding radius*
0 $2 $3 $4 $5 $6 $7 $8 $9 X,Y pos of 4 corners*
0 Add a 4 corners polygon primitive as box body*
4,1,4,$2,$3,$4,$5,$6,$7,$8,$9,$2,$3,0*
0 Add four circle primitives for the rounded corners*
1,1,$1+$1,$2,$3*
1,1,$1+$1,$4,$5*
1,1,$1+$1,$6,$7*
1,1,$1+$1,$8,$9*
0 Add four rect primitives between the rounded corners*
20,1,$1+$1,$2,$3,$4,$5,0*
20,1,$1+$1,$4,$5,$6,$7,0*
20,1,$1+$1,$6,$7,$8,$9,0*
20,1,$1+$1,$8,$9,$2,$3,0*%
G04 Aperture macros list end*
G04 #@! TA.AperFunction,SMDPad,CuDef*
%ADD10RoundRect,0.250000X0.262500X0.450000X-0.262500X0.450000X-0.262500X-0.450000X0.262500X-0.450000X0*%
G04 #@! TD*
G04 #@! TA.AperFunction,SMDPad,CuDef*
%ADD11RoundRect,0.250000X0.250000X0.475000X-0.250000X0.475000X-0.250000X-0.475000X0.250000X-0.475000X0*%
G04 #@! TD*
G04 #@! TA.AperFunction,SMDPad,CuDef*
%ADD12R,2.500000X2.300000*%
G04 #@! TD*
G04 #@! TA.AperFunction,ComponentPad*
%ADD13R,1.700000X1.700000*%
G04 #@! TD*
G04 #@! TA.AperFunction,ComponentPad*
%ADD14O,1.700000X1.700000*%
G04 #@! TD*
G04 #@! TA.AperFunction,SMDPad,CuDef*
%ADD15RoundRect,0.250000X-0.262500X-0.450000X0.262500X-0.450000X0.262500X0.450000X-0.262500X0.450000X0*%
G04 #@! TD*
G04 #@! TA.AperFunction,SMDPad,CuDef*
%ADD16RoundRect,0.250000X-0.250000X-0.475000X0.250000X-0.475000X0.250000X0.475000X-0.250000X0.475000X0*%
G04 #@! TD*
G04 #@! TA.AperFunction,ComponentPad*
%ADD17C,2.400000*%
G04 #@! TD*
G04 #@! TA.AperFunction,SMDPad,CuDef*
%ADD18R,0.900000X1.200000*%
G04 #@! TD*
G04 #@! TA.AperFunction,SMDPad,CuDef*
%ADD19RoundRect,0.250000X-0.450000X0.262500X-0.450000X-0.262500X0.450000X-0.262500X0.450000X0.262500X0*%
G04 #@! TD*
G04 #@! TA.AperFunction,ViaPad*
%ADD20C,0.800000*%
G04 #@! TD*
G04 #@! TA.AperFunction,Conductor*
%ADD21C,0.300000*%
G04 #@! TD*
G04 APERTURE END LIST*
D10*
G04 #@! TO.P,R4,1*
G04 #@! TO.N,Net-(R4-Pad1)*
X29162500Y-119000000D03*
G04 #@! TO.P,R4,2*
G04 #@! TO.N,VCC*
X27337500Y-119000000D03*
G04 #@! TD*
D11*
G04 #@! TO.P,C2b0,1*
G04 #@! TO.N,VCC*
X25800000Y-122800000D03*
G04 #@! TO.P,C2b0,2*
G04 #@! TO.N,GND1*
X23900000Y-122800000D03*
G04 #@! TD*
D12*
G04 #@! TO.P,D4,1,K*
G04 #@! TO.N,I1*
X32850000Y-114350000D03*
G04 #@! TO.P,D4,2,A*
G04 #@! TO.N,GND*
X37150000Y-114350000D03*
G04 #@! TD*
G04 #@! TO.P,D1,1,K*
G04 #@! TO.N,VCC*
X25400000Y-109650000D03*
G04 #@! TO.P,D1,2,A*
G04 #@! TO.N,A*
X29700000Y-109650000D03*
G04 #@! TD*
D13*
G04 #@! TO.P,J0,1,Pin_1*
G04 #@! TO.N,I1*
X25275000Y-104400000D03*
D14*
G04 #@! TO.P,J0,2,Pin_2*
G04 #@! TO.N,unconnected-(J0-Pad2)*
X27815000Y-104400000D03*
G04 #@! TO.P,J0,3,Pin_3*
G04 #@! TO.N,I2*
X30355000Y-104400000D03*
G04 #@! TO.P,J0,4,Pin_4*
G04 #@! TO.N,unconnected-(J0-Pad4)*
X32895000Y-104400000D03*
G04 #@! TO.P,J0,5,Pin_5*
G04 #@! TO.N,A*
X35435000Y-104400000D03*
G04 #@! TD*
D13*
G04 #@! TO.P,J2,1,Pin_1*
G04 #@! TO.N,unconnected-(J2-Pad1)*
X42520000Y-108000000D03*
D14*
G04 #@! TO.P,J2,2,Pin_2*
G04 #@! TO.N,Net-(Q1-Pad3)*
X42520000Y-110540000D03*
G04 #@! TO.P,J2,3,Pin_3*
G04 #@! TO.N,unconnected-(J2-Pad3)*
X42520000Y-113080000D03*
G04 #@! TO.P,J2,4,Pin_4*
G04 #@! TO.N,Net-(R7-Pad1)*
X42520000Y-115620000D03*
G04 #@! TO.P,J2,5,Pin_5*
G04 #@! TO.N,unconnected-(J2-Pad5)*
X42520000Y-118160000D03*
G04 #@! TO.P,J2,6,Pin_6*
G04 #@! TO.N,unconnected-(J2-Pad6)*
X42520000Y-120700000D03*
G04 #@! TO.P,J2,7,Pin_7*
G04 #@! TO.N,GND1*
X42520000Y-123240000D03*
G04 #@! TO.P,J2,8,Pin_8*
G04 #@! TO.N,Net-(R8-Pad1)*
X42520000Y-125780000D03*
G04 #@! TD*
D13*
G04 #@! TO.P,J1,1,Pin_1*
G04 #@! TO.N,Net-(J1-Pad1)*
X20000000Y-108000000D03*
D14*
G04 #@! TO.P,J1,2,Pin_2*
G04 #@! TO.N,Net-(R4-Pad1)*
X20000000Y-110540000D03*
G04 #@! TO.P,J1,3,Pin_3*
G04 #@! TO.N,Net-(J1-Pad1)*
X20000000Y-113080000D03*
G04 #@! TO.P,J1,4,Pin_4*
G04 #@! TO.N,unconnected-(J1-Pad4)*
X20000000Y-115620000D03*
G04 #@! TO.P,J1,5,Pin_5*
G04 #@! TO.N,Net-(R10-Pad1)*
X20000000Y-118160000D03*
G04 #@! TO.P,J1,6,Pin_6*
G04 #@! TO.N,Net-(Q1-Pad3)*
X20000000Y-120700000D03*
G04 #@! TO.P,J1,7,Pin_7*
G04 #@! TO.N,unconnected-(J1-Pad7)*
X20000000Y-123240000D03*
G04 #@! TO.P,J1,8,Pin_8*
G04 #@! TO.N,+3.3V*
X20000000Y-125780000D03*
G04 #@! TD*
D13*
G04 #@! TO.P,J4,1,Pin_1*
G04 #@! TO.N,Net-(J4-Pad1)*
X25925000Y-129450000D03*
D14*
G04 #@! TO.P,J4,2,Pin_2*
G04 #@! TO.N,VCC*
X28465000Y-129450000D03*
G04 #@! TO.P,J4,3,Pin_3*
G04 #@! TO.N,GND*
X31005000Y-129450000D03*
G04 #@! TO.P,J4,4,Pin_4*
G04 #@! TO.N,Net-(DZ1-Pad1)*
X33545000Y-129450000D03*
G04 #@! TO.P,J4,5,Pin_5*
G04 #@! TO.N,Net-(J4-Pad5)*
X36085000Y-129450000D03*
G04 #@! TD*
D15*
G04 #@! TO.P,R10,1*
G04 #@! TO.N,Net-(R10-Pad1)*
X22237500Y-125000000D03*
G04 #@! TO.P,R10,2*
G04 #@! TO.N,Net-(Q3-Pad1)*
X24062500Y-125000000D03*
G04 #@! TD*
D16*
G04 #@! TO.P,C2b1,1*
G04 #@! TO.N,+3.3V*
X22550000Y-120450000D03*
G04 #@! TO.P,C2b1,2*
G04 #@! TO.N,GND1*
X24450000Y-120450000D03*
G04 #@! TD*
D12*
G04 #@! TO.P,D3,1,K*
G04 #@! TO.N,VCC*
X25350000Y-114350000D03*
G04 #@! TO.P,D3,2,A*
G04 #@! TO.N,I1*
X29650000Y-114350000D03*
G04 #@! TD*
D10*
G04 #@! TO.P,R5,1*
G04 #@! TO.N,GND*
X33862500Y-118250000D03*
G04 #@! TO.P,R5,2*
G04 #@! TO.N,Net-(R4-Pad1)*
X32037500Y-118250000D03*
G04 #@! TD*
D17*
G04 #@! TO.P,C1,1*
G04 #@! TO.N,VCC*
X23700000Y-117350000D03*
G04 #@! TO.P,C1,2*
G04 #@! TO.N,GND*
X38700000Y-117350000D03*
G04 #@! TD*
D15*
G04 #@! TO.P,R7,1*
G04 #@! TO.N,Net-(R7-Pad1)*
X38187500Y-120300000D03*
G04 #@! TO.P,R7,2*
G04 #@! TO.N,GND1*
X40012500Y-120300000D03*
G04 #@! TD*
D10*
G04 #@! TO.P,R6,1*
G04 #@! TO.N,Net-(DZ1-Pad1)*
X30562500Y-121950000D03*
G04 #@! TO.P,R6,2*
G04 #@! TO.N,Net-(J4-Pad5)*
X28737500Y-121950000D03*
G04 #@! TD*
D18*
G04 #@! TO.P,DZ1,1,K*
G04 #@! TO.N,Net-(DZ1-Pad1)*
X32800000Y-122000000D03*
G04 #@! TO.P,DZ1,2,A*
G04 #@! TO.N,GND*
X36100000Y-122000000D03*
G04 #@! TD*
D19*
G04 #@! TO.P,R8,1*
G04 #@! TO.N,Net-(R8-Pad1)*
X42550000Y-128437500D03*
G04 #@! TO.P,R8,2*
G04 #@! TO.N,Net-(R7-Pad1)*
X42550000Y-130262500D03*
G04 #@! TD*
D12*
G04 #@! TO.P,D2,1,K*
G04 #@! TO.N,A*
X32850000Y-109650000D03*
G04 #@! TO.P,D2,2,A*
G04 #@! TO.N,GND*
X37150000Y-109650000D03*
G04 #@! TD*
D20*
G04 #@! TO.N,VCC*
X26200000Y-121500000D03*
X25750000Y-124550000D03*
X26632500Y-127617500D03*
G04 #@! TO.N,GND*
X25300000Y-127550000D03*
G04 #@! TO.N,I1*
X31500000Y-105900000D03*
X28600000Y-106200000D03*
X34125000Y-106575000D03*
G04 #@! TO.N,Net-(DZ1-Pad1)*
X31700000Y-121200000D03*
X35750000Y-126250000D03*
G04 #@! TO.N,+3.3V*
X27500000Y-126800000D03*
X20000000Y-129600000D03*
X40000000Y-126300000D03*
G04 #@! TO.N,GND1*
X27158888Y-121217974D03*
G04 #@! TO.N,Net-(J4-Pad5)*
X33764068Y-121091559D03*
G04 #@! TO.N,Net-(Q3-Pad1)*
X30900000Y-107050000D03*
G04 #@! TO.N,Net-(R10-Pad1)*
X21400000Y-127350000D03*
G04 #@! TO.N,Net-(Q1-Pad3)*
X22700000Y-110050000D03*
G04 #@! TO.N,Net-(R7-Pad1)*
X39470023Y-123420023D03*
X40000000Y-129250000D03*
G04 #@! TO.N,Net-(R9-Pad2)*
X33500000Y-116850000D03*
X22800000Y-119100000D03*
G04 #@! TD*
D21*
G04 #@! TO.N,VCC*
X25400000Y-114300000D02*
X25350000Y-114350000D01*
X23700000Y-117350000D02*
X25350000Y-119000000D01*
X25350000Y-115700000D02*
X23700000Y-117350000D01*
X25750000Y-121950000D02*
X26200000Y-121500000D01*
X25350000Y-119000000D02*
X27337500Y-119000000D01*
X25750000Y-124550000D02*
X25750000Y-123000000D01*
X26632500Y-127617500D02*
X28465000Y-129450000D01*
X25350000Y-114350000D02*
X25350000Y-115700000D01*
X25750000Y-123000000D02*
X25750000Y-121950000D01*
X25400000Y-109650000D02*
X25400000Y-114300000D01*
G04 #@! TO.N,GND*
X38700000Y-117350000D02*
X37150000Y-115800000D01*
X24150000Y-128250000D02*
X24150000Y-130800000D01*
X36100000Y-122000000D02*
X36100000Y-119950000D01*
X33912500Y-119000000D02*
X33912500Y-119812500D01*
X37150000Y-114962500D02*
X33862500Y-118250000D01*
X24850000Y-127550000D02*
X24150000Y-128250000D01*
X37150000Y-115800000D02*
X37150000Y-114350000D01*
X36100000Y-119950000D02*
X38700000Y-117350000D01*
X37150000Y-114350000D02*
X37150000Y-114962500D01*
X24150000Y-130800000D02*
X29655000Y-130800000D01*
X33862500Y-118950000D02*
X33912500Y-119000000D01*
X37150000Y-109650000D02*
X37150000Y-114350000D01*
X33912500Y-119812500D02*
X36100000Y-122000000D01*
X33862500Y-118250000D02*
X33862500Y-118950000D01*
X29655000Y-130800000D02*
X31005000Y-129450000D01*
X25300000Y-127550000D02*
X24850000Y-127550000D01*
G04 #@! TO.N,A*
X35435000Y-104400000D02*
X34900000Y-104400000D01*
X29700000Y-109650000D02*
X32850000Y-109650000D01*
X34900000Y-104400000D02*
X32850000Y-106450000D01*
X32850000Y-106450000D02*
X32850000Y-109650000D01*
G04 #@! TO.N,I1*
X34957057Y-106575000D02*
X36635000Y-104897057D01*
X36635000Y-104897057D02*
X36635000Y-103902943D01*
X31200000Y-106200000D02*
X28600000Y-106200000D01*
X35932057Y-103200000D02*
X26475000Y-103200000D01*
X26475000Y-103200000D02*
X25275000Y-104400000D01*
X32850000Y-114350000D02*
X29650000Y-114350000D01*
X34450000Y-112750000D02*
X32850000Y-114350000D01*
X34450000Y-107550000D02*
X34450000Y-112750000D01*
X36635000Y-103902943D02*
X35932057Y-103200000D01*
X31500000Y-105900000D02*
X31200000Y-106200000D01*
X34125000Y-106575000D02*
X34125000Y-107225000D01*
X34125000Y-106575000D02*
X34957057Y-106575000D01*
X34125000Y-107225000D02*
X34450000Y-107550000D01*
G04 #@! TO.N,Net-(DZ1-Pad1)*
X35750000Y-126250000D02*
X32800000Y-123300000D01*
X32800000Y-123300000D02*
X32800000Y-122000000D01*
X31700000Y-121950000D02*
X32750000Y-121950000D01*
X32750000Y-121950000D02*
X32800000Y-122000000D01*
X31700000Y-121200000D02*
X31700000Y-121950000D01*
X30562500Y-121950000D02*
X31700000Y-121950000D01*
G04 #@! TO.N,+3.3V*
X20070000Y-125850000D02*
X20000000Y-125780000D01*
X23500000Y-129600000D02*
X23500000Y-127850000D01*
X38700000Y-127600000D02*
X28300000Y-127600000D01*
X20000000Y-129600000D02*
X23500000Y-129600000D01*
X24550000Y-126800000D02*
X27500000Y-126800000D01*
X20000000Y-125389339D02*
X20000000Y-125780000D01*
X22550000Y-122839339D02*
X20000000Y-125389339D01*
X40000000Y-126300000D02*
X38700000Y-127600000D01*
X28300000Y-127600000D02*
X27500000Y-126800000D01*
X23500000Y-127850000D02*
X24550000Y-126800000D01*
X22550000Y-120450000D02*
X22550000Y-122839339D01*
G04 #@! TO.N,GND1*
X36850000Y-127100000D02*
X35100000Y-127100000D01*
X40710000Y-123240000D02*
X42540000Y-123240000D01*
X27158888Y-121217974D02*
X26390914Y-120450000D01*
X40710000Y-123240000D02*
X36850000Y-127100000D01*
X27158888Y-122558888D02*
X27158888Y-121217974D01*
X35100000Y-127100000D02*
X34150000Y-126150000D01*
X23900000Y-121000000D02*
X24450000Y-120450000D01*
X28450000Y-123850000D02*
X27158888Y-122558888D01*
X34150000Y-126150000D02*
X34150000Y-126100000D01*
X31900000Y-123850000D02*
X28450000Y-123850000D01*
X23900000Y-122800000D02*
X23900000Y-121000000D01*
X40012500Y-120962500D02*
X40710000Y-121660000D01*
X34150000Y-126100000D02*
X31900000Y-123850000D01*
X40710000Y-121660000D02*
X40710000Y-123240000D01*
X40012500Y-120300000D02*
X40012500Y-120962500D01*
X26390914Y-120450000D02*
X24450000Y-120450000D01*
G04 #@! TO.N,Net-(J4-Pad5)*
X33764068Y-121091559D02*
X33722509Y-121050000D01*
X33722509Y-121050000D02*
X32610661Y-121050000D01*
X32010661Y-120450000D02*
X30237500Y-120450000D01*
X32610661Y-121050000D02*
X32010661Y-120450000D01*
X30237500Y-120450000D02*
X28737500Y-121950000D01*
G04 #@! TO.N,Net-(Q3-Pad1)*
X30900000Y-107050000D02*
X21800000Y-107050000D01*
X23000000Y-128600000D02*
X23000000Y-127642894D01*
X18550000Y-128200000D02*
X19000000Y-128650000D01*
X24112500Y-126530394D02*
X24112500Y-124900000D01*
X19150000Y-106350000D02*
X18550000Y-106950000D01*
X23000000Y-127642894D02*
X24112500Y-126530394D01*
X21100000Y-106350000D02*
X19150000Y-106350000D01*
X19000000Y-128650000D02*
X22950000Y-128650000D01*
X21800000Y-107050000D02*
X21100000Y-106350000D01*
X22950000Y-128650000D02*
X23000000Y-128600000D01*
X18550000Y-106950000D02*
X18550000Y-128200000D01*
G04 #@! TO.N,Net-(R4-Pad1)*
X27000000Y-107600000D02*
X22940000Y-107600000D01*
X22940000Y-107600000D02*
X20000000Y-110540000D01*
X27550000Y-117387500D02*
X27550000Y-108150000D01*
X30850000Y-118250000D02*
X30100000Y-119000000D01*
X29162500Y-119000000D02*
X27550000Y-117387500D01*
X27550000Y-108150000D02*
X27000000Y-107600000D01*
X32037500Y-118250000D02*
X30850000Y-118250000D01*
X30100000Y-119000000D02*
X29162500Y-119000000D01*
G04 #@! TO.N,Net-(R10-Pad1)*
X22287500Y-124900000D02*
X22287500Y-126462500D01*
X22287500Y-126462500D02*
X21400000Y-127350000D01*
G04 #@! TO.N,Net-(Q1-Pad3)*
X22150000Y-118550000D02*
X22150000Y-110600000D01*
X20000000Y-120700000D02*
X22150000Y-118550000D01*
X22150000Y-110600000D02*
X22700000Y-110050000D01*
G04 #@! TO.N,Net-(R7-Pad1)*
X38187500Y-120950000D02*
X39470023Y-122232523D01*
X41180000Y-115620000D02*
X42520000Y-115620000D01*
X42550000Y-130262500D02*
X41012500Y-130262500D01*
X38187500Y-120300000D02*
X38250000Y-120300000D01*
X40850000Y-115950000D02*
X41180000Y-115620000D01*
X38187500Y-120300000D02*
X38187500Y-120950000D01*
X38250000Y-120300000D02*
X40850000Y-117700000D01*
X40850000Y-117700000D02*
X40850000Y-115950000D01*
X41012500Y-130262500D02*
X40000000Y-129250000D01*
X39470023Y-123420023D02*
X39470023Y-122232523D01*
G04 #@! TO.N,Net-(R8-Pad1)*
X42520000Y-125780000D02*
X42520000Y-128407500D01*
X42520000Y-128407500D02*
X42550000Y-128437500D01*
G04 #@! TO.N,Net-(R9-Pad2)*
X27200000Y-120450000D02*
X29530394Y-120450000D01*
X30030394Y-119950000D02*
X31898528Y-119950000D01*
X22800000Y-119100000D02*
X24742894Y-119100000D01*
X24742894Y-119100000D02*
X25592894Y-119950000D01*
X32950000Y-117400000D02*
X33500000Y-116850000D01*
X31898528Y-119950000D02*
X32950000Y-118898528D01*
X26700000Y-119950000D02*
X27200000Y-120450000D01*
X32950000Y-118898528D02*
X32950000Y-117400000D01*
X25592894Y-119950000D02*
X26700000Y-119950000D01*
X29530394Y-120450000D02*
X30030394Y-119950000D01*
G04 #@! TO.N,unconnected-(J2-Pad5)*
X42510000Y-118150000D02*
X42520000Y-118160000D01*
G04 #@! TD*
M02*
