M48
; DRILL file {KiCad (6.0.11)} date Fri Jun  6 10:19:31 2025
; FORMAT={-:-/ absolute / inch / decimal}
; #@! TF.CreationDate,2025-06-06T10:19:31+01:00
; #@! TF.GenerationSoftware,Kicad,Pcbnew,(6.0.11)
; #@! TF.FileFunction,MixedPlating,1,2
FMAT,2
INCH
; #@! TA.AperFunction,Plated,PTH,ViaDrill
T1C0.0157
; #@! TA.AperFunction,Plated,PTH,ComponentDrill
T2C0.0394
; #@! TA.AperFunction,Plated,PTH,ComponentDrill
T3C0.0472
%
G90
G05
T1
X0.7874Y-5.1024
X0.8425Y-5.0138
X0.8937Y-4.3327
X0.8976Y-4.689
X0.9961Y-5.0217
X1.0138Y-4.9035
X1.0315Y-4.7835
X1.0485Y-5.0243
X1.0692Y-4.7724
X1.0827Y-4.9921
X1.126Y-4.1811
X1.2165Y-4.2146
X1.2402Y-4.1693
X1.248Y-4.7717
X1.3189Y-4.6004
X1.3293Y-4.7674
X1.3435Y-4.1959
X1.4075Y-4.9705
X1.5539Y-4.8591
X1.5748Y-4.9724
X1.5748Y-5.0886
T2
X0.7874Y-4.252
X0.7874Y-4.352
X0.7874Y-4.452
X0.7874Y-4.552
X0.7874Y-4.652
X0.7874Y-4.752
X0.7874Y-4.852
X0.7874Y-4.952
X0.9951Y-4.1102
X1.0207Y-5.0965
X1.0951Y-4.1102
X1.1207Y-5.0965
X1.1951Y-4.1102
X1.2207Y-5.0965
X1.2951Y-4.1102
X1.3207Y-5.0965
X1.3951Y-4.1102
X1.4207Y-5.0965
X1.674Y-4.252
X1.674Y-4.352
X1.674Y-4.452
X1.674Y-4.552
X1.674Y-4.652
X1.674Y-4.752
X1.674Y-4.852
X1.674Y-4.952
T3
X0.9331Y-4.6201
X1.5236Y-4.6201
T0
M30
