G04 #@! TF.GenerationSoftware,KiCad,Pcbnew,(6.0.11)*
G04 #@! TF.CreationDate,2025-10-01T23:51:27+02:00*
G04 #@! TF.ProjectId,PCB_Dongle_Linky,5043425f-446f-46e6-976c-655f4c696e6b,rev?*
G04 #@! TF.SameCoordinates,Original*
G04 #@! TF.FileFunction,Legend,Bot*
G04 #@! TF.FilePolarity,Positive*
%FSLAX46Y46*%
G04 Gerber Fmt 4.6, Leading zero omitted, Abs format (unit mm)*
G04 Created by KiCad (PCBNEW (6.0.11)) date 2025-10-01 23:51:27*
%MOMM*%
%LPD*%
G01*
G04 APERTURE LIST*
%ADD10C,0.125000*%
%ADD11C,0.150000*%
%ADD12C,0.100000*%
%ADD13C,0.120000*%
G04 APERTURE END LIST*
D10*
X22592857Y-191211904D02*
X22592857Y-190411904D01*
X22288095Y-190411904D01*
X22211904Y-190450000D01*
X22173809Y-190488095D01*
X22135714Y-190564285D01*
X22135714Y-190678571D01*
X22173809Y-190754761D01*
X22211904Y-190792857D01*
X22288095Y-190830952D01*
X22592857Y-190830952D01*
X21792857Y-191211904D02*
X21792857Y-190678571D01*
X21792857Y-190411904D02*
X21830952Y-190450000D01*
X21792857Y-190488095D01*
X21754761Y-190450000D01*
X21792857Y-190411904D01*
X21792857Y-190488095D01*
X21411904Y-190678571D02*
X21411904Y-191211904D01*
X21411904Y-190754761D02*
X21373809Y-190716666D01*
X21297619Y-190678571D01*
X21183333Y-190678571D01*
X21107142Y-190716666D01*
X21069047Y-190792857D01*
X21069047Y-191211904D01*
X20269047Y-191211904D02*
X20726190Y-191211904D01*
X20497619Y-191211904D02*
X20497619Y-190411904D01*
X20573809Y-190526190D01*
X20650000Y-190602380D01*
X20726190Y-190640476D01*
X29357142Y-181150000D02*
X29414285Y-181121428D01*
X29500000Y-181121428D01*
X29585714Y-181150000D01*
X29642857Y-181207142D01*
X29671428Y-181264285D01*
X29700000Y-181378571D01*
X29700000Y-181464285D01*
X29671428Y-181578571D01*
X29642857Y-181635714D01*
X29585714Y-181692857D01*
X29500000Y-181721428D01*
X29442857Y-181721428D01*
X29357142Y-181692857D01*
X29328571Y-181664285D01*
X29328571Y-181464285D01*
X29442857Y-181464285D01*
X29071428Y-181721428D02*
X29071428Y-181121428D01*
X28728571Y-181721428D01*
X28728571Y-181121428D01*
X28442857Y-181721428D02*
X28442857Y-181121428D01*
X28300000Y-181121428D01*
X28214285Y-181150000D01*
X28157142Y-181207142D01*
X28128571Y-181264285D01*
X28100000Y-181378571D01*
X28100000Y-181464285D01*
X28128571Y-181578571D01*
X28157142Y-181635714D01*
X28214285Y-181692857D01*
X28300000Y-181721428D01*
X28442857Y-181721428D01*
D11*
G04 #@! TO.C,C5*
X22600000Y-184144285D02*
X22628571Y-184172857D01*
X22714285Y-184201428D01*
X22771428Y-184201428D01*
X22857142Y-184172857D01*
X22914285Y-184115714D01*
X22942857Y-184058571D01*
X22971428Y-183944285D01*
X22971428Y-183858571D01*
X22942857Y-183744285D01*
X22914285Y-183687142D01*
X22857142Y-183630000D01*
X22771428Y-183601428D01*
X22714285Y-183601428D01*
X22628571Y-183630000D01*
X22600000Y-183658571D01*
X22057142Y-183601428D02*
X22342857Y-183601428D01*
X22371428Y-183887142D01*
X22342857Y-183858571D01*
X22285714Y-183830000D01*
X22142857Y-183830000D01*
X22085714Y-183858571D01*
X22057142Y-183887142D01*
X22028571Y-183944285D01*
X22028571Y-184087142D01*
X22057142Y-184144285D01*
X22085714Y-184172857D01*
X22142857Y-184201428D01*
X22285714Y-184201428D01*
X22342857Y-184172857D01*
X22371428Y-184144285D01*
D10*
G04 #@! TO.C,U1*
X24230952Y-178856190D02*
X24230952Y-179260952D01*
X24207142Y-179308571D01*
X24183333Y-179332380D01*
X24135714Y-179356190D01*
X24040476Y-179356190D01*
X23992857Y-179332380D01*
X23969047Y-179308571D01*
X23945238Y-179260952D01*
X23945238Y-178856190D01*
X23445238Y-179356190D02*
X23730952Y-179356190D01*
X23588095Y-179356190D02*
X23588095Y-178856190D01*
X23635714Y-178927619D01*
X23683333Y-178975238D01*
X23730952Y-178999047D01*
D12*
G04 #@! TO.C,R2b1*
X34586190Y-169902380D02*
X34348095Y-169735714D01*
X34586190Y-169616666D02*
X34086190Y-169616666D01*
X34086190Y-169807142D01*
X34110000Y-169854761D01*
X34133809Y-169878571D01*
X34181428Y-169902380D01*
X34252857Y-169902380D01*
X34300476Y-169878571D01*
X34324285Y-169854761D01*
X34348095Y-169807142D01*
X34348095Y-169616666D01*
X34133809Y-170092857D02*
X34110000Y-170116666D01*
X34086190Y-170164285D01*
X34086190Y-170283333D01*
X34110000Y-170330952D01*
X34133809Y-170354761D01*
X34181428Y-170378571D01*
X34229047Y-170378571D01*
X34300476Y-170354761D01*
X34586190Y-170069047D01*
X34586190Y-170378571D01*
X34586190Y-170592857D02*
X34086190Y-170592857D01*
X34276666Y-170592857D02*
X34252857Y-170640476D01*
X34252857Y-170735714D01*
X34276666Y-170783333D01*
X34300476Y-170807142D01*
X34348095Y-170830952D01*
X34490952Y-170830952D01*
X34538571Y-170807142D01*
X34562380Y-170783333D01*
X34586190Y-170735714D01*
X34586190Y-170640476D01*
X34562380Y-170592857D01*
X34586190Y-171307142D02*
X34586190Y-171021428D01*
X34586190Y-171164285D02*
X34086190Y-171164285D01*
X34157619Y-171116666D01*
X34205238Y-171069047D01*
X34229047Y-171021428D01*
D11*
G04 #@! TO.C,R9*
X31950000Y-185421428D02*
X32150000Y-185135714D01*
X32292857Y-185421428D02*
X32292857Y-184821428D01*
X32064285Y-184821428D01*
X32007142Y-184850000D01*
X31978571Y-184878571D01*
X31950000Y-184935714D01*
X31950000Y-185021428D01*
X31978571Y-185078571D01*
X32007142Y-185107142D01*
X32064285Y-185135714D01*
X32292857Y-185135714D01*
X31664285Y-185421428D02*
X31550000Y-185421428D01*
X31492857Y-185392857D01*
X31464285Y-185364285D01*
X31407142Y-185278571D01*
X31378571Y-185164285D01*
X31378571Y-184935714D01*
X31407142Y-184878571D01*
X31435714Y-184850000D01*
X31492857Y-184821428D01*
X31607142Y-184821428D01*
X31664285Y-184850000D01*
X31692857Y-184878571D01*
X31721428Y-184935714D01*
X31721428Y-185078571D01*
X31692857Y-185135714D01*
X31664285Y-185164285D01*
X31607142Y-185192857D01*
X31492857Y-185192857D01*
X31435714Y-185164285D01*
X31407142Y-185135714D01*
X31378571Y-185078571D01*
G04 #@! TO.C,C2*
X28094285Y-186550000D02*
X28122857Y-186521428D01*
X28151428Y-186435714D01*
X28151428Y-186378571D01*
X28122857Y-186292857D01*
X28065714Y-186235714D01*
X28008571Y-186207142D01*
X27894285Y-186178571D01*
X27808571Y-186178571D01*
X27694285Y-186207142D01*
X27637142Y-186235714D01*
X27580000Y-186292857D01*
X27551428Y-186378571D01*
X27551428Y-186435714D01*
X27580000Y-186521428D01*
X27608571Y-186550000D01*
X27608571Y-186778571D02*
X27580000Y-186807142D01*
X27551428Y-186864285D01*
X27551428Y-187007142D01*
X27580000Y-187064285D01*
X27608571Y-187092857D01*
X27665714Y-187121428D01*
X27722857Y-187121428D01*
X27808571Y-187092857D01*
X28151428Y-186750000D01*
X28151428Y-187121428D01*
D10*
G04 #@! TO.C,R1*
X21236190Y-171266666D02*
X20998095Y-171100000D01*
X21236190Y-170980952D02*
X20736190Y-170980952D01*
X20736190Y-171171428D01*
X20760000Y-171219047D01*
X20783809Y-171242857D01*
X20831428Y-171266666D01*
X20902857Y-171266666D01*
X20950476Y-171242857D01*
X20974285Y-171219047D01*
X20998095Y-171171428D01*
X20998095Y-170980952D01*
X21236190Y-171742857D02*
X21236190Y-171457142D01*
X21236190Y-171600000D02*
X20736190Y-171600000D01*
X20807619Y-171552380D01*
X20855238Y-171504761D01*
X20879047Y-171457142D01*
G04 #@! TO.C,Q1*
X31073809Y-175352380D02*
X31050000Y-175304761D01*
X31002380Y-175257142D01*
X30930952Y-175185714D01*
X30907142Y-175138095D01*
X30907142Y-175090476D01*
X31026190Y-175114285D02*
X31002380Y-175066666D01*
X30954761Y-175019047D01*
X30859523Y-174995238D01*
X30692857Y-174995238D01*
X30597619Y-175019047D01*
X30550000Y-175066666D01*
X30526190Y-175114285D01*
X30526190Y-175209523D01*
X30550000Y-175257142D01*
X30597619Y-175304761D01*
X30692857Y-175328571D01*
X30859523Y-175328571D01*
X30954761Y-175304761D01*
X31002380Y-175257142D01*
X31026190Y-175209523D01*
X31026190Y-175114285D01*
X31026190Y-175804761D02*
X31026190Y-175519047D01*
X31026190Y-175661904D02*
X30526190Y-175661904D01*
X30597619Y-175614285D01*
X30645238Y-175566666D01*
X30669047Y-175519047D01*
D11*
G04 #@! TO.C,C3*
X22600000Y-182344285D02*
X22628571Y-182372857D01*
X22714285Y-182401428D01*
X22771428Y-182401428D01*
X22857142Y-182372857D01*
X22914285Y-182315714D01*
X22942857Y-182258571D01*
X22971428Y-182144285D01*
X22971428Y-182058571D01*
X22942857Y-181944285D01*
X22914285Y-181887142D01*
X22857142Y-181830000D01*
X22771428Y-181801428D01*
X22714285Y-181801428D01*
X22628571Y-181830000D01*
X22600000Y-181858571D01*
X22400000Y-181801428D02*
X22028571Y-181801428D01*
X22228571Y-182030000D01*
X22142857Y-182030000D01*
X22085714Y-182058571D01*
X22057142Y-182087142D01*
X22028571Y-182144285D01*
X22028571Y-182287142D01*
X22057142Y-182344285D01*
X22085714Y-182372857D01*
X22142857Y-182401428D01*
X22314285Y-182401428D01*
X22371428Y-182372857D01*
X22400000Y-182344285D01*
G04 #@! TO.C,U2*
X29321428Y-182542857D02*
X29807142Y-182542857D01*
X29864285Y-182571428D01*
X29892857Y-182600000D01*
X29921428Y-182657142D01*
X29921428Y-182771428D01*
X29892857Y-182828571D01*
X29864285Y-182857142D01*
X29807142Y-182885714D01*
X29321428Y-182885714D01*
X29378571Y-183142857D02*
X29350000Y-183171428D01*
X29321428Y-183228571D01*
X29321428Y-183371428D01*
X29350000Y-183428571D01*
X29378571Y-183457142D01*
X29435714Y-183485714D01*
X29492857Y-183485714D01*
X29578571Y-183457142D01*
X29921428Y-183114285D01*
X29921428Y-183485714D01*
G04 #@! TO.C,Q3*
X24966666Y-171783333D02*
X25033333Y-171750000D01*
X25100000Y-171683333D01*
X25200000Y-171583333D01*
X25266666Y-171550000D01*
X25333333Y-171550000D01*
X25300000Y-171716666D02*
X25366666Y-171683333D01*
X25433333Y-171616666D01*
X25466666Y-171483333D01*
X25466666Y-171250000D01*
X25433333Y-171116666D01*
X25366666Y-171050000D01*
X25300000Y-171016666D01*
X25166666Y-171016666D01*
X25100000Y-171050000D01*
X25033333Y-171116666D01*
X25000000Y-171250000D01*
X25000000Y-171483333D01*
X25033333Y-171616666D01*
X25100000Y-171683333D01*
X25166666Y-171716666D01*
X25300000Y-171716666D01*
X24766666Y-171016666D02*
X24333333Y-171016666D01*
X24566666Y-171283333D01*
X24466666Y-171283333D01*
X24400000Y-171316666D01*
X24366666Y-171350000D01*
X24333333Y-171416666D01*
X24333333Y-171583333D01*
X24366666Y-171650000D01*
X24400000Y-171683333D01*
X24466666Y-171716666D01*
X24666666Y-171716666D01*
X24733333Y-171683333D01*
X24766666Y-171650000D01*
D10*
G04 #@! TO.C,R3*
X31683333Y-178276190D02*
X31850000Y-178038095D01*
X31969047Y-178276190D02*
X31969047Y-177776190D01*
X31778571Y-177776190D01*
X31730952Y-177800000D01*
X31707142Y-177823809D01*
X31683333Y-177871428D01*
X31683333Y-177942857D01*
X31707142Y-177990476D01*
X31730952Y-178014285D01*
X31778571Y-178038095D01*
X31969047Y-178038095D01*
X31516666Y-177776190D02*
X31207142Y-177776190D01*
X31373809Y-177966666D01*
X31302380Y-177966666D01*
X31254761Y-177990476D01*
X31230952Y-178014285D01*
X31207142Y-178061904D01*
X31207142Y-178180952D01*
X31230952Y-178228571D01*
X31254761Y-178252380D01*
X31302380Y-178276190D01*
X31445238Y-178276190D01*
X31492857Y-178252380D01*
X31516666Y-178228571D01*
D12*
G04 #@! TO.C,R2a1*
X34686190Y-172102380D02*
X34448095Y-171935714D01*
X34686190Y-171816666D02*
X34186190Y-171816666D01*
X34186190Y-172007142D01*
X34210000Y-172054761D01*
X34233809Y-172078571D01*
X34281428Y-172102380D01*
X34352857Y-172102380D01*
X34400476Y-172078571D01*
X34424285Y-172054761D01*
X34448095Y-172007142D01*
X34448095Y-171816666D01*
X34233809Y-172292857D02*
X34210000Y-172316666D01*
X34186190Y-172364285D01*
X34186190Y-172483333D01*
X34210000Y-172530952D01*
X34233809Y-172554761D01*
X34281428Y-172578571D01*
X34329047Y-172578571D01*
X34400476Y-172554761D01*
X34686190Y-172269047D01*
X34686190Y-172578571D01*
X34686190Y-173007142D02*
X34424285Y-173007142D01*
X34376666Y-172983333D01*
X34352857Y-172935714D01*
X34352857Y-172840476D01*
X34376666Y-172792857D01*
X34662380Y-173007142D02*
X34686190Y-172959523D01*
X34686190Y-172840476D01*
X34662380Y-172792857D01*
X34614761Y-172769047D01*
X34567142Y-172769047D01*
X34519523Y-172792857D01*
X34495714Y-172840476D01*
X34495714Y-172959523D01*
X34471904Y-173007142D01*
X34686190Y-173507142D02*
X34686190Y-173221428D01*
X34686190Y-173364285D02*
X34186190Y-173364285D01*
X34257619Y-173316666D01*
X34305238Y-173269047D01*
X34329047Y-173221428D01*
D11*
G04 #@! TO.C,R16*
X31698214Y-182721428D02*
X31898214Y-182435714D01*
X32041071Y-182721428D02*
X32041071Y-182121428D01*
X31812500Y-182121428D01*
X31755357Y-182150000D01*
X31726785Y-182178571D01*
X31698214Y-182235714D01*
X31698214Y-182321428D01*
X31726785Y-182378571D01*
X31755357Y-182407142D01*
X31812500Y-182435714D01*
X32041071Y-182435714D01*
X31126785Y-182721428D02*
X31469642Y-182721428D01*
X31298214Y-182721428D02*
X31298214Y-182121428D01*
X31355357Y-182207142D01*
X31412500Y-182264285D01*
X31469642Y-182292857D01*
X30612500Y-182121428D02*
X30726785Y-182121428D01*
X30783928Y-182150000D01*
X30812500Y-182178571D01*
X30869642Y-182264285D01*
X30898214Y-182378571D01*
X30898214Y-182607142D01*
X30869642Y-182664285D01*
X30841071Y-182692857D01*
X30783928Y-182721428D01*
X30669642Y-182721428D01*
X30612500Y-182692857D01*
X30583928Y-182664285D01*
X30555357Y-182607142D01*
X30555357Y-182464285D01*
X30583928Y-182407142D01*
X30612500Y-182378571D01*
X30669642Y-182350000D01*
X30783928Y-182350000D01*
X30841071Y-182378571D01*
X30869642Y-182407142D01*
X30898214Y-182464285D01*
D10*
G04 #@! TO.C,U3*
X31326190Y-186289047D02*
X31730952Y-186289047D01*
X31778571Y-186312857D01*
X31802380Y-186336666D01*
X31826190Y-186384285D01*
X31826190Y-186479523D01*
X31802380Y-186527142D01*
X31778571Y-186550952D01*
X31730952Y-186574761D01*
X31326190Y-186574761D01*
X31326190Y-186765238D02*
X31326190Y-187074761D01*
X31516666Y-186908095D01*
X31516666Y-186979523D01*
X31540476Y-187027142D01*
X31564285Y-187050952D01*
X31611904Y-187074761D01*
X31730952Y-187074761D01*
X31778571Y-187050952D01*
X31802380Y-187027142D01*
X31826190Y-186979523D01*
X31826190Y-186836666D01*
X31802380Y-186789047D01*
X31778571Y-186765238D01*
D13*
G04 #@! TO.C,C5*
X22238748Y-181515000D02*
X22761252Y-181515000D01*
X22238748Y-182985000D02*
X22761252Y-182985000D01*
G04 #@! TO.C,U1*
X20615000Y-173250000D02*
X27085000Y-173250000D01*
X27085000Y-178450000D02*
X24850000Y-178450000D01*
X27085000Y-173250000D02*
X27085000Y-178450000D01*
X22850000Y-178450000D02*
X20615000Y-178450000D01*
X20615000Y-178450000D02*
X20615000Y-173250000D01*
X24850000Y-178450000D02*
G75*
G03*
X22850000Y-178450000I-1000000J0D01*
G01*
G04 #@! TO.C,R2b1*
X32082936Y-171185000D02*
X32537064Y-171185000D01*
X32082936Y-169715000D02*
X32537064Y-169715000D01*
G04 #@! TO.C,R9*
X31622936Y-184485000D02*
X32077064Y-184485000D01*
X31622936Y-183015000D02*
X32077064Y-183015000D01*
G04 #@! TO.C,C2*
X26935000Y-186911252D02*
X26935000Y-186388748D01*
X25465000Y-186911252D02*
X25465000Y-186388748D01*
G04 #@! TO.C,R1*
X22860000Y-171322936D02*
X22860000Y-171777064D01*
X21390000Y-171322936D02*
X21390000Y-171777064D01*
G04 #@! TO.C,Q1*
X32412500Y-178310000D02*
X31762500Y-178310000D01*
X32412500Y-175190000D02*
X34087500Y-175190000D01*
X32412500Y-175190000D02*
X31762500Y-175190000D01*
X32412500Y-178310000D02*
X33062500Y-178310000D01*
G04 #@! TO.C,C3*
X22238748Y-179715000D02*
X22761252Y-179715000D01*
X22238748Y-181185000D02*
X22761252Y-181185000D01*
G04 #@! TO.C,U2*
X25690000Y-183000000D02*
X25690000Y-183650000D01*
X25690000Y-183000000D02*
X25690000Y-182350000D01*
X28810000Y-183000000D02*
X28810000Y-182350000D01*
X28810000Y-183000000D02*
X28810000Y-184675000D01*
G04 #@! TO.C,Q3*
X27350000Y-173010000D02*
X28000000Y-173010000D01*
X27350000Y-169890000D02*
X29025000Y-169890000D01*
X27350000Y-173010000D02*
X26700000Y-173010000D01*
X27350000Y-169890000D02*
X26700000Y-169890000D01*
G04 #@! TO.C,R3*
X31827064Y-180035000D02*
X31372936Y-180035000D01*
X31827064Y-178565000D02*
X31372936Y-178565000D01*
G04 #@! TO.C,R2a1*
X32082936Y-173135000D02*
X32537064Y-173135000D01*
X32082936Y-171665000D02*
X32537064Y-171665000D01*
G04 #@! TO.C,R16*
X30872936Y-180515000D02*
X31327064Y-180515000D01*
X30872936Y-181985000D02*
X31327064Y-181985000D01*
G04 #@! TO.C,U3*
X31825000Y-190245000D02*
X33775000Y-190245000D01*
X31825000Y-190245000D02*
X28375000Y-190245000D01*
X31825000Y-185125000D02*
X29875000Y-185125000D01*
X31825000Y-185125000D02*
X33775000Y-185125000D01*
G04 #@! TD*
M02*
