G04 #@! TF.GenerationSoftware,KiCad,Pcbnew,(6.0.11)*
G04 #@! TF.CreationDate,2025-10-01T23:51:27+02:00*
G04 #@! TF.ProjectId,PCB_Dongle_Linky,5043425f-446f-46e6-976c-655f4c696e6b,rev?*
G04 #@! TF.SameCoordinates,Original*
G04 #@! TF.FileFunction,Copper,L2,Bot*
G04 #@! TF.FilePolarity,Positive*
%FSLAX46Y46*%
G04 Gerber Fmt 4.6, Leading zero omitted, Abs format (unit mm)*
G04 Created by KiCad (PCBNEW (6.0.11)) date 2025-10-01 23:51:27*
%MOMM*%
%LPD*%
G01*
G04 APERTURE LIST*
G04 Aperture macros list*
%AMRoundRect*
0 Rectangle with rounded corners*
0 $1 Rounding radius*
0 $2 $3 $4 $5 $6 $7 $8 $9 X,Y pos of 4 corners*
0 Add a 4 corners polygon primitive as box body*
4,1,4,$2,$3,$4,$5,$6,$7,$8,$9,$2,$3,0*
0 Add four circle primitives for the rounded corners*
1,1,$1+$1,$2,$3*
1,1,$1+$1,$4,$5*
1,1,$1+$1,$6,$7*
1,1,$1+$1,$8,$9*
0 Add four rect primitives between the rounded corners*
20,1,$1+$1,$2,$3,$4,$5,0*
20,1,$1+$1,$4,$5,$6,$7,0*
20,1,$1+$1,$6,$7,$8,$9,0*
20,1,$1+$1,$8,$9,$2,$3,0*%
G04 Aperture macros list end*
G04 #@! TA.AperFunction,ComponentPad*
%ADD10R,1.700000X1.700000*%
G04 #@! TD*
G04 #@! TA.AperFunction,ComponentPad*
%ADD11O,1.700000X1.700000*%
G04 #@! TD*
G04 #@! TA.AperFunction,ComponentPad*
%ADD12C,2.000000*%
G04 #@! TD*
G04 #@! TA.AperFunction,SMDPad,CuDef*
%ADD13RoundRect,0.250000X-0.250000X-0.475000X0.250000X-0.475000X0.250000X0.475000X-0.250000X0.475000X0*%
G04 #@! TD*
G04 #@! TA.AperFunction,SMDPad,CuDef*
%ADD14R,1.500000X1.780000*%
G04 #@! TD*
G04 #@! TA.AperFunction,SMDPad,CuDef*
%ADD15RoundRect,0.250000X-0.262500X-0.450000X0.262500X-0.450000X0.262500X0.450000X-0.262500X0.450000X0*%
G04 #@! TD*
G04 #@! TA.AperFunction,SMDPad,CuDef*
%ADD16RoundRect,0.250000X0.475000X-0.250000X0.475000X0.250000X-0.475000X0.250000X-0.475000X-0.250000X0*%
G04 #@! TD*
G04 #@! TA.AperFunction,SMDPad,CuDef*
%ADD17RoundRect,0.250000X-0.450000X0.262500X-0.450000X-0.262500X0.450000X-0.262500X0.450000X0.262500X0*%
G04 #@! TD*
G04 #@! TA.AperFunction,SMDPad,CuDef*
%ADD18RoundRect,0.150000X0.587500X0.150000X-0.587500X0.150000X-0.587500X-0.150000X0.587500X-0.150000X0*%
G04 #@! TD*
G04 #@! TA.AperFunction,SMDPad,CuDef*
%ADD19RoundRect,0.150000X0.150000X-0.587500X0.150000X0.587500X-0.150000X0.587500X-0.150000X-0.587500X0*%
G04 #@! TD*
G04 #@! TA.AperFunction,SMDPad,CuDef*
%ADD20RoundRect,0.250000X0.262500X0.450000X-0.262500X0.450000X-0.262500X-0.450000X0.262500X-0.450000X0*%
G04 #@! TD*
G04 #@! TA.AperFunction,SMDPad,CuDef*
%ADD21RoundRect,0.150000X-0.825000X-0.150000X0.825000X-0.150000X0.825000X0.150000X-0.825000X0.150000X0*%
G04 #@! TD*
G04 #@! TA.AperFunction,ViaPad*
%ADD22C,0.800000*%
G04 #@! TD*
G04 #@! TA.AperFunction,Conductor*
%ADD23C,0.500000*%
G04 #@! TD*
G04 #@! TA.AperFunction,Conductor*
%ADD24C,0.300000*%
G04 #@! TD*
G04 APERTURE END LIST*
D10*
G04 #@! TO.P,J0,1,Pin_1*
G04 #@! TO.N,I1*
X20835000Y-168200000D03*
D11*
G04 #@! TO.P,J0,2,Pin_2*
G04 #@! TO.N,unconnected-(J0-Pad2)*
X23375000Y-168200000D03*
G04 #@! TO.P,J0,3,Pin_3*
G04 #@! TO.N,I2*
X25915000Y-168200000D03*
G04 #@! TO.P,J0,4,Pin_4*
G04 #@! TO.N,unconnected-(J0-Pad4)*
X28455000Y-168200000D03*
G04 #@! TO.P,J0,5,Pin_5*
G04 #@! TO.N,A*
X30995000Y-168200000D03*
G04 #@! TD*
D10*
G04 #@! TO.P,J2,1,Pin_1*
G04 #@! TO.N,unconnected-(J2-Pad1)*
X38080000Y-171800000D03*
D11*
G04 #@! TO.P,J2,2,Pin_2*
G04 #@! TO.N,Net-(J1-Pad6)*
X38080000Y-174340000D03*
G04 #@! TO.P,J2,3,Pin_3*
G04 #@! TO.N,Net-(J2-Pad3)*
X38080000Y-176880000D03*
G04 #@! TO.P,J2,4,Pin_4*
G04 #@! TO.N,Net-(J2-Pad4)*
X38080000Y-179420000D03*
G04 #@! TO.P,J2,5,Pin_5*
G04 #@! TO.N,unconnected-(J2-Pad5)*
X38080000Y-181960000D03*
G04 #@! TO.P,J2,6,Pin_6*
G04 #@! TO.N,unconnected-(J2-Pad6)*
X38080000Y-184500000D03*
G04 #@! TO.P,J2,7,Pin_7*
G04 #@! TO.N,GND*
X38080000Y-187040000D03*
G04 #@! TO.P,J2,8,Pin_8*
G04 #@! TO.N,Net-(J2-Pad8)*
X38080000Y-189580000D03*
G04 #@! TD*
D10*
G04 #@! TO.P,J1,1,Pin_1*
G04 #@! TO.N,Net-(J1-Pad1)*
X15560000Y-171800000D03*
D11*
G04 #@! TO.P,J1,2,Pin_2*
G04 #@! TO.N,Net-(J1-Pad2)*
X15560000Y-174340000D03*
G04 #@! TO.P,J1,3,Pin_3*
G04 #@! TO.N,Net-(J1-Pad1)*
X15560000Y-176880000D03*
G04 #@! TO.P,J1,4,Pin_4*
G04 #@! TO.N,Net-(J1-Pad4)*
X15560000Y-179420000D03*
G04 #@! TO.P,J1,5,Pin_5*
G04 #@! TO.N,Net-(J1-Pad5)*
X15560000Y-181960000D03*
G04 #@! TO.P,J1,6,Pin_6*
G04 #@! TO.N,Net-(J1-Pad6)*
X15560000Y-184500000D03*
G04 #@! TO.P,J1,7,Pin_7*
G04 #@! TO.N,unconnected-(J1-Pad7)*
X15560000Y-187040000D03*
G04 #@! TO.P,J1,8,Pin_8*
G04 #@! TO.N,VBUS*
X15560000Y-189580000D03*
G04 #@! TD*
D10*
G04 #@! TO.P,J4,1,Pin_1*
G04 #@! TO.N,Net-(J1-Pad4)*
X21320000Y-192700000D03*
D11*
G04 #@! TO.P,J4,2,Pin_2*
G04 #@! TO.N,+3.3V*
X23860000Y-192700000D03*
G04 #@! TO.P,J4,3,Pin_3*
G04 #@! TO.N,GND*
X26400000Y-192700000D03*
G04 #@! TO.P,J4,4,Pin_4*
G04 #@! TO.N,Net-(J1-Pad2)*
X28940000Y-192700000D03*
G04 #@! TO.P,J4,5,Pin_5*
G04 #@! TO.N,Net-(J4-Pad5)*
X31480000Y-192700000D03*
G04 #@! TD*
D12*
G04 #@! TO.P,C1,1*
G04 #@! TO.N,+BATT*
X25900000Y-179650000D03*
G04 #@! TO.P,C1,2*
G04 #@! TO.N,GND*
X28440000Y-179650000D03*
G04 #@! TD*
D13*
G04 #@! TO.P,C5,1*
G04 #@! TO.N,+BATT*
X21550000Y-182250000D03*
G04 #@! TO.P,C5,2*
G04 #@! TO.N,GND*
X23450000Y-182250000D03*
G04 #@! TD*
D14*
G04 #@! TO.P,U1,1*
G04 #@! TO.N,Net-(R1-Pad2)*
X19085000Y-177120000D03*
G04 #@! TO.P,U1,2*
G04 #@! TO.N,I2*
X19085000Y-174580000D03*
G04 #@! TO.P,U1,3*
G04 #@! TO.N,Net-(Q1-Pad1)*
X28615000Y-174580000D03*
G04 #@! TO.P,U1,4*
G04 #@! TO.N,VBUS*
X28615000Y-177120000D03*
G04 #@! TD*
D15*
G04 #@! TO.P,R2b1,1*
G04 #@! TO.N,Net-(Q3-Pad3)*
X31397500Y-170450000D03*
G04 #@! TO.P,R2b1,2*
G04 #@! TO.N,Net-(Q1-Pad1)*
X33222500Y-170450000D03*
G04 #@! TD*
G04 #@! TO.P,R9,1*
G04 #@! TO.N,Net-(Q2-Pad1)*
X30937500Y-183750000D03*
G04 #@! TO.P,R9,2*
G04 #@! TO.N,Net-(R9-Pad2)*
X32762500Y-183750000D03*
G04 #@! TD*
D16*
G04 #@! TO.P,C2,1*
G04 #@! TO.N,+3.3V*
X26200000Y-187600000D03*
G04 #@! TO.P,C2,2*
G04 #@! TO.N,GND*
X26200000Y-185700000D03*
G04 #@! TD*
D17*
G04 #@! TO.P,R1,1*
G04 #@! TO.N,I1*
X22125000Y-170637500D03*
G04 #@! TO.P,R1,2*
G04 #@! TO.N,Net-(R1-Pad2)*
X22125000Y-172462500D03*
G04 #@! TD*
D18*
G04 #@! TO.P,Q1,1,G*
G04 #@! TO.N,Net-(Q1-Pad1)*
X33350000Y-175800000D03*
G04 #@! TO.P,Q1,2,S*
G04 #@! TO.N,GND*
X33350000Y-177700000D03*
G04 #@! TO.P,Q1,3,D*
G04 #@! TO.N,Net-(J1-Pad6)*
X31475000Y-176750000D03*
G04 #@! TD*
D13*
G04 #@! TO.P,C3,1*
G04 #@! TO.N,+BATT*
X21550000Y-180450000D03*
G04 #@! TO.P,C3,2*
G04 #@! TO.N,GND*
X23450000Y-180450000D03*
G04 #@! TD*
D19*
G04 #@! TO.P,U2,1,GND*
G04 #@! TO.N,GND*
X28200000Y-183937500D03*
G04 #@! TO.P,U2,2,VO*
G04 #@! TO.N,+3.3V*
X26300000Y-183937500D03*
G04 #@! TO.P,U2,3,VI*
G04 #@! TO.N,+BATT*
X27250000Y-182062500D03*
G04 #@! TD*
D18*
G04 #@! TO.P,Q3,1,G*
G04 #@! TO.N,Net-(Q3-Pad1)*
X28287500Y-170500000D03*
G04 #@! TO.P,Q3,2,S*
G04 #@! TO.N,GND*
X28287500Y-172400000D03*
G04 #@! TO.P,Q3,3,D*
G04 #@! TO.N,Net-(Q3-Pad3)*
X26412500Y-171450000D03*
G04 #@! TD*
D20*
G04 #@! TO.P,R3,1*
G04 #@! TO.N,Net-(J1-Pad6)*
X32512500Y-179300000D03*
G04 #@! TO.P,R3,2*
G04 #@! TO.N,VBUS*
X30687500Y-179300000D03*
G04 #@! TD*
D15*
G04 #@! TO.P,R2a1,1*
G04 #@! TO.N,GND*
X31397500Y-172400000D03*
G04 #@! TO.P,R2a1,2*
G04 #@! TO.N,Net-(Q1-Pad1)*
X33222500Y-172400000D03*
G04 #@! TD*
G04 #@! TO.P,R16,1*
G04 #@! TO.N,+BATT*
X30187500Y-181250000D03*
G04 #@! TO.P,R16,2*
G04 #@! TO.N,Net-(Q2-Pad1)*
X32012500Y-181250000D03*
G04 #@! TD*
D21*
G04 #@! TO.P,U3,1,VDD*
G04 #@! TO.N,+3.3V*
X29350000Y-189590000D03*
G04 #@! TO.P,U3,2,RA5*
G04 #@! TO.N,unconnected-(U3-Pad2)*
X29350000Y-188320000D03*
G04 #@! TO.P,U3,3,RA4*
G04 #@! TO.N,Net-(J2-Pad3)*
X29350000Y-187050000D03*
G04 #@! TO.P,U3,4,RA3*
G04 #@! TO.N,Net-(J1-Pad4)*
X29350000Y-185780000D03*
G04 #@! TO.P,U3,5,RA2*
G04 #@! TO.N,Net-(R9-Pad2)*
X34300000Y-185780000D03*
G04 #@! TO.P,U3,6,RA1*
G04 #@! TO.N,Net-(J4-Pad5)*
X34300000Y-187050000D03*
G04 #@! TO.P,U3,7,RA0*
G04 #@! TO.N,Net-(J1-Pad2)*
X34300000Y-188320000D03*
G04 #@! TO.P,U3,8,VSS*
G04 #@! TO.N,GND*
X34300000Y-189590000D03*
G04 #@! TD*
D22*
G04 #@! TO.N,Net-(Q3-Pad1)*
X18250000Y-168000000D03*
G04 #@! TO.N,GND*
X33600000Y-191800000D03*
X18900000Y-186500000D03*
X34750000Y-177850000D03*
X21700000Y-189650000D03*
X31382265Y-173317735D03*
G04 #@! TO.N,+3.3V*
X24600000Y-186450000D03*
X27003100Y-184636946D03*
G04 #@! TO.N,Net-(Q2-Pad1)*
X34600000Y-182920756D03*
G04 #@! TO.N,Net-(J1-Pad4)*
X23000000Y-188450000D03*
X27550000Y-188200000D03*
X13350000Y-184050000D03*
G04 #@! TO.N,Net-(Q2-Pad3)*
X29700000Y-184100000D03*
X31450000Y-185300000D03*
G04 #@! TO.N,Net-(J1-Pad5)*
X17350000Y-189200000D03*
G04 #@! TO.N,+BATT*
X29150000Y-181750000D03*
G04 #@! TO.N,VBUS*
X21150000Y-186000000D03*
G04 #@! TO.N,Net-(J1-Pad2)*
X26250000Y-182050000D03*
X19950000Y-178650000D03*
X24700000Y-181000000D03*
X32567499Y-187932227D03*
G04 #@! TO.N,Net-(J2-Pad3)*
X30450000Y-190499500D03*
X35955500Y-183723910D03*
G04 #@! TD*
D23*
G04 #@! TO.N,GND*
X18900000Y-186500000D02*
X21700000Y-189300000D01*
X21700000Y-189300000D02*
X21700000Y-189650000D01*
X30464530Y-172400000D02*
X28287500Y-172400000D01*
X31382265Y-173317735D02*
X30464530Y-172400000D01*
X31382265Y-173317735D02*
X31397500Y-173302500D01*
X31397500Y-173302500D02*
X31397500Y-172400000D01*
D24*
X27000000Y-185700000D02*
X26200000Y-185700000D01*
X28200000Y-184500000D02*
X27000000Y-185700000D01*
D23*
G04 #@! TO.N,Net-(Q2-Pad3)*
X31180000Y-185030000D02*
X31450000Y-185300000D01*
X30280000Y-185030000D02*
X31180000Y-185030000D01*
X29700000Y-184100000D02*
X29700000Y-184450000D01*
X29700000Y-184450000D02*
X30280000Y-185030000D01*
G04 #@! TO.N,Net-(J1-Pad2)*
X32780000Y-192161522D02*
X32780000Y-193970000D01*
X32780000Y-193970000D02*
X32750000Y-194000000D01*
X32750000Y-192131522D02*
X32780000Y-192161522D01*
X32750000Y-194000000D02*
X30240000Y-194000000D01*
X30240000Y-194000000D02*
X28940000Y-192700000D01*
X32750000Y-189316472D02*
X32750000Y-192131522D01*
X33746472Y-188320000D02*
X32750000Y-189316472D01*
X34300000Y-188320000D02*
X33746472Y-188320000D01*
X32955272Y-188320000D02*
X34300000Y-188320000D01*
X32567499Y-187932227D02*
X32955272Y-188320000D01*
G04 #@! TO.N,Net-(J1-Pad5)*
X17350000Y-189200000D02*
X17350000Y-183750000D01*
X17350000Y-183750000D02*
X15560000Y-181960000D01*
G04 #@! TO.N,Net-(J1-Pad2)*
X16550000Y-175330000D02*
X15560000Y-174340000D01*
X16550000Y-176031522D02*
X16550000Y-175330000D01*
X18275000Y-178650000D02*
X16860000Y-177235000D01*
X16860000Y-177235000D02*
X16860000Y-176341522D01*
X19950000Y-178650000D02*
X18275000Y-178650000D01*
X16860000Y-176341522D02*
X16550000Y-176031522D01*
G04 #@! TO.N,I2*
X22020000Y-174580000D02*
X19085000Y-174580000D01*
X23600000Y-170515000D02*
X23600000Y-173000000D01*
X23600000Y-173000000D02*
X22020000Y-174580000D01*
X25915000Y-168200000D02*
X23600000Y-170515000D01*
D24*
G04 #@! TO.N,Net-(Q3-Pad1)*
X27115000Y-169327500D02*
X27115000Y-167702943D01*
X27115000Y-167702943D02*
X26162057Y-166750000D01*
D23*
X18250000Y-167500000D02*
X19000000Y-166750000D01*
X18250000Y-168000000D02*
X18250000Y-167500000D01*
G04 #@! TO.N,+BATT*
X29150000Y-181750000D02*
X29650000Y-181250000D01*
X29650000Y-181250000D02*
X30187500Y-181250000D01*
G04 #@! TO.N,Net-(Q2-Pad1)*
X32929244Y-181250000D02*
X32012500Y-181250000D01*
X34600000Y-182920756D02*
X32929244Y-181250000D01*
G04 #@! TO.N,Net-(J2-Pad3)*
X36200000Y-178760000D02*
X38080000Y-176880000D01*
X36200000Y-183479410D02*
X36200000Y-178760000D01*
X35955500Y-183723910D02*
X36200000Y-183479410D01*
X30300000Y-187050000D02*
X29350000Y-187050000D01*
X30780000Y-187530000D02*
X30300000Y-187050000D01*
X30780000Y-190169500D02*
X30780000Y-187530000D01*
X30450000Y-190499500D02*
X30780000Y-190169500D01*
G04 #@! TO.N,GND*
X26579594Y-185600000D02*
X26800000Y-185600000D01*
X34300000Y-189590000D02*
X35530000Y-189590000D01*
X28200000Y-183437500D02*
X28200000Y-179890000D01*
X23450000Y-182250000D02*
X23450000Y-182470406D01*
X23450000Y-182950000D02*
X23450000Y-182250000D01*
X34600000Y-177700000D02*
X34750000Y-177850000D01*
X28200000Y-179890000D02*
X28440000Y-179650000D01*
X33350000Y-177700000D02*
X34600000Y-177700000D01*
X26200000Y-185700000D02*
X23450000Y-182950000D01*
X33800000Y-191500000D02*
X33600000Y-191700000D01*
X28200000Y-184500000D02*
X28200000Y-183437500D01*
X34300000Y-191000000D02*
X33800000Y-191500000D01*
X35530000Y-189590000D02*
X38080000Y-187040000D01*
X23450000Y-182250000D02*
X23450000Y-180450000D01*
X34300000Y-189590000D02*
X34300000Y-191000000D01*
X33600000Y-191700000D02*
X33600000Y-191800000D01*
G04 #@! TO.N,I1*
X20835000Y-169347500D02*
X22125000Y-170637500D01*
X20835000Y-168200000D02*
X20835000Y-169347500D01*
G04 #@! TO.N,+3.3V*
X25860000Y-189590000D02*
X25460000Y-189590000D01*
X26200000Y-187600000D02*
X26200000Y-189250000D01*
X29350000Y-189590000D02*
X25860000Y-189590000D01*
X26300000Y-183437500D02*
X26300000Y-183933846D01*
X25750000Y-187600000D02*
X24600000Y-186450000D01*
X23800000Y-191250000D02*
X23860000Y-191310000D01*
X26300000Y-183933846D02*
X27003100Y-184636946D01*
X25460000Y-189590000D02*
X23800000Y-191250000D01*
X26200000Y-187600000D02*
X25750000Y-187600000D01*
X23860000Y-191310000D02*
X23860000Y-192700000D01*
X26200000Y-189250000D02*
X25860000Y-189590000D01*
G04 #@! TO.N,Net-(J4-Pad5)*
X31480000Y-187470000D02*
X32050000Y-186900000D01*
X34150000Y-186900000D02*
X34300000Y-187050000D01*
X32050000Y-186900000D02*
X34150000Y-186900000D01*
X31480000Y-192700000D02*
X31480000Y-187470000D01*
G04 #@! TO.N,Net-(Q1-Pad1)*
X33222500Y-172400000D02*
X33222500Y-175672500D01*
X32130000Y-174580000D02*
X28615000Y-174580000D01*
X33222500Y-170450000D02*
X33222500Y-172400000D01*
X33350000Y-175800000D02*
X32130000Y-174580000D01*
X33222500Y-175672500D02*
X33350000Y-175800000D01*
G04 #@! TO.N,Net-(Q2-Pad1)*
X30937500Y-182325000D02*
X32012500Y-181250000D01*
X30937500Y-183750000D02*
X30937500Y-182325000D01*
G04 #@! TO.N,Net-(R1-Pad2)*
X19085000Y-176885000D02*
X17550000Y-175350000D01*
X17550000Y-175350000D02*
X17550000Y-173450000D01*
X17550000Y-173450000D02*
X18537500Y-172462500D01*
X19085000Y-177120000D02*
X19085000Y-176885000D01*
X18537500Y-172462500D02*
X22125000Y-172462500D01*
G04 #@! TO.N,Net-(Q3-Pad1)*
X28287500Y-170500000D02*
X27115000Y-169327500D01*
X26162057Y-166750000D02*
X19000000Y-166750000D01*
G04 #@! TO.N,Net-(J1-Pad4)*
X29350000Y-185780000D02*
X27970000Y-185780000D01*
X13350000Y-184050000D02*
X13350000Y-181630000D01*
X27700000Y-186050000D02*
X27500000Y-186250000D01*
X23000000Y-190150000D02*
X23000000Y-188450000D01*
X21320000Y-191830000D02*
X23000000Y-190150000D01*
X13350000Y-181630000D02*
X15560000Y-179420000D01*
X27970000Y-185780000D02*
X27700000Y-186050000D01*
X27500000Y-188150000D02*
X27550000Y-188200000D01*
X27500000Y-186250000D02*
X27500000Y-188150000D01*
X21320000Y-192700000D02*
X21320000Y-191830000D01*
G04 #@! TO.N,Net-(J1-Pad6)*
X35670000Y-176750000D02*
X38080000Y-174340000D01*
X31475000Y-176750000D02*
X31475000Y-178262500D01*
X31475000Y-176750000D02*
X35670000Y-176750000D01*
X31475000Y-178262500D02*
X32512500Y-179300000D01*
G04 #@! TO.N,Net-(Q3-Pad3)*
X30397500Y-171450000D02*
X26412500Y-171450000D01*
X31397500Y-170450000D02*
X30397500Y-171450000D01*
G04 #@! TO.N,Net-(R9-Pad2)*
X34300000Y-185287500D02*
X32762500Y-183750000D01*
X34300000Y-185780000D02*
X34300000Y-185287500D01*
G04 #@! TO.N,+BATT*
X22800000Y-178600000D02*
X24850000Y-178600000D01*
X24850000Y-178600000D02*
X25900000Y-179650000D01*
X21550000Y-180450000D02*
X21550000Y-179850000D01*
X27250000Y-181000000D02*
X25900000Y-179650000D01*
X21550000Y-179850000D02*
X22800000Y-178600000D01*
X21550000Y-182250000D02*
X21550000Y-180450000D01*
X27250000Y-181562500D02*
X27250000Y-181000000D01*
G04 #@! TO.N,VBUS*
X20550000Y-185300000D02*
X21150000Y-185900000D01*
X22780000Y-177120000D02*
X20550000Y-179350000D01*
X28615000Y-177120000D02*
X22780000Y-177120000D01*
X28615000Y-177120000D02*
X28615000Y-177227500D01*
X20550000Y-179350000D02*
X20550000Y-185300000D01*
X21150000Y-185900000D02*
X21150000Y-186000000D01*
X28615000Y-177227500D02*
X30687500Y-179300000D01*
G04 #@! TO.N,Net-(J1-Pad2)*
X25200000Y-181000000D02*
X26250000Y-182050000D01*
X24700000Y-181000000D02*
X25200000Y-181000000D01*
G04 #@! TD*
G04 #@! TA.AperFunction,Conductor*
G04 #@! TO.N,GND*
G36*
X34744359Y-166939397D02*
G01*
X40524458Y-166949775D01*
X40592543Y-166969900D01*
X40638939Y-167023639D01*
X40650232Y-167075542D01*
X40651307Y-167656651D01*
X40651500Y-167761267D01*
X40651500Y-193817115D01*
X40631498Y-193885236D01*
X40577842Y-193931729D01*
X40525500Y-193943115D01*
X33664500Y-193943115D01*
X33596379Y-193923113D01*
X33549886Y-193869457D01*
X33538500Y-193817115D01*
X33538500Y-192228585D01*
X33539933Y-192209636D01*
X33542097Y-192195408D01*
X33543198Y-192188173D01*
X33538915Y-192135512D01*
X33538500Y-192125299D01*
X33538500Y-192117229D01*
X33538078Y-192113609D01*
X33538077Y-192113591D01*
X33535208Y-192088983D01*
X33534775Y-192084608D01*
X33529454Y-192019183D01*
X33529453Y-192019180D01*
X33528860Y-192011885D01*
X33526604Y-192004921D01*
X33525413Y-191998962D01*
X33524029Y-191993108D01*
X33523182Y-191985841D01*
X33516061Y-191966223D01*
X33508500Y-191923232D01*
X33508500Y-190524000D01*
X33528502Y-190455879D01*
X33582158Y-190409386D01*
X33634500Y-190398000D01*
X34027885Y-190398000D01*
X34043124Y-190393525D01*
X34044329Y-190392135D01*
X34046000Y-190384452D01*
X34046000Y-190379884D01*
X34554000Y-190379884D01*
X34558475Y-190395123D01*
X34559865Y-190396328D01*
X34567548Y-190397999D01*
X35188984Y-190397999D01*
X35193920Y-190397805D01*
X35222336Y-190395570D01*
X35234931Y-190393270D01*
X35380790Y-190350893D01*
X35395221Y-190344648D01*
X35524678Y-190268089D01*
X35537104Y-190258449D01*
X35643449Y-190152104D01*
X35653089Y-190139678D01*
X35729648Y-190010221D01*
X35735893Y-189995790D01*
X35774939Y-189861395D01*
X35774899Y-189847294D01*
X35767630Y-189844000D01*
X34572115Y-189844000D01*
X34556876Y-189848475D01*
X34555671Y-189849865D01*
X34554000Y-189857548D01*
X34554000Y-190379884D01*
X34046000Y-190379884D01*
X34046000Y-189546695D01*
X36717251Y-189546695D01*
X36717548Y-189551848D01*
X36717548Y-189551851D01*
X36723011Y-189646590D01*
X36730110Y-189769715D01*
X36731247Y-189774761D01*
X36731248Y-189774767D01*
X36748173Y-189849865D01*
X36779222Y-189987639D01*
X36863266Y-190194616D01*
X36865965Y-190199020D01*
X36959795Y-190352137D01*
X36979987Y-190385088D01*
X37126250Y-190553938D01*
X37298126Y-190696632D01*
X37491000Y-190809338D01*
X37699692Y-190889030D01*
X37704760Y-190890061D01*
X37704763Y-190890062D01*
X37812017Y-190911883D01*
X37918597Y-190933567D01*
X37923772Y-190933757D01*
X37923774Y-190933757D01*
X38136673Y-190941564D01*
X38136677Y-190941564D01*
X38141837Y-190941753D01*
X38146957Y-190941097D01*
X38146959Y-190941097D01*
X38358288Y-190914025D01*
X38358289Y-190914025D01*
X38363416Y-190913368D01*
X38368366Y-190911883D01*
X38572429Y-190850661D01*
X38572434Y-190850659D01*
X38577384Y-190849174D01*
X38777994Y-190750896D01*
X38959860Y-190621173D01*
X39118096Y-190463489D01*
X39165295Y-190397805D01*
X39245435Y-190286277D01*
X39248453Y-190282077D01*
X39255367Y-190268089D01*
X39345136Y-190086453D01*
X39345137Y-190086451D01*
X39347430Y-190081811D01*
X39412370Y-189868069D01*
X39441529Y-189646590D01*
X39441611Y-189643240D01*
X39443074Y-189583365D01*
X39443074Y-189583361D01*
X39443156Y-189580000D01*
X39424852Y-189357361D01*
X39370431Y-189140702D01*
X39281354Y-188935840D01*
X39215942Y-188834729D01*
X39162822Y-188752617D01*
X39162820Y-188752614D01*
X39160014Y-188748277D01*
X39009670Y-188583051D01*
X39005619Y-188579852D01*
X39005615Y-188579848D01*
X38838414Y-188447800D01*
X38838410Y-188447798D01*
X38834359Y-188444598D01*
X38792569Y-188421529D01*
X38742598Y-188371097D01*
X38727826Y-188301654D01*
X38752942Y-188235248D01*
X38780294Y-188208641D01*
X38955328Y-188083792D01*
X38963200Y-188077139D01*
X39114052Y-187926812D01*
X39120730Y-187918965D01*
X39245003Y-187746020D01*
X39250313Y-187737183D01*
X39344670Y-187546267D01*
X39348469Y-187536672D01*
X39410377Y-187332910D01*
X39412555Y-187322837D01*
X39413986Y-187311962D01*
X39411775Y-187297778D01*
X39398617Y-187294000D01*
X36763225Y-187294000D01*
X36749694Y-187297973D01*
X36748257Y-187307966D01*
X36778565Y-187442446D01*
X36781645Y-187452275D01*
X36861770Y-187649603D01*
X36866413Y-187658794D01*
X36977694Y-187840388D01*
X36983777Y-187848699D01*
X37123213Y-188009667D01*
X37130580Y-188016883D01*
X37294434Y-188152916D01*
X37302881Y-188158831D01*
X37371969Y-188199203D01*
X37420693Y-188250842D01*
X37433764Y-188320625D01*
X37407033Y-188386396D01*
X37366584Y-188419752D01*
X37353607Y-188426507D01*
X37349474Y-188429610D01*
X37349471Y-188429612D01*
X37207107Y-188536502D01*
X37174965Y-188560635D01*
X37020629Y-188722138D01*
X36894743Y-188906680D01*
X36875385Y-188948384D01*
X36814688Y-189079145D01*
X36800688Y-189109305D01*
X36740989Y-189324570D01*
X36740440Y-189329707D01*
X36739456Y-189338913D01*
X36717251Y-189546695D01*
X34046000Y-189546695D01*
X34046000Y-189462000D01*
X34066002Y-189393879D01*
X34119658Y-189347386D01*
X34172000Y-189336000D01*
X35761878Y-189336000D01*
X35775409Y-189332027D01*
X35776544Y-189324129D01*
X35735893Y-189184210D01*
X35729648Y-189169779D01*
X35653089Y-189040323D01*
X35647129Y-189032640D01*
X35621180Y-188966556D01*
X35635078Y-188896933D01*
X35645421Y-188880839D01*
X35649453Y-188876807D01*
X35734145Y-188733601D01*
X35780562Y-188573831D01*
X35781307Y-188564373D01*
X35783307Y-188538958D01*
X35783307Y-188538950D01*
X35783500Y-188536502D01*
X35783500Y-188103498D01*
X35783307Y-188101042D01*
X35781067Y-188072579D01*
X35781066Y-188072574D01*
X35780562Y-188066169D01*
X35751528Y-187966231D01*
X35736357Y-187914012D01*
X35736356Y-187914010D01*
X35734145Y-187906399D01*
X35649453Y-187763193D01*
X35646771Y-187760511D01*
X35621498Y-187696139D01*
X35635400Y-187626516D01*
X35645572Y-187610688D01*
X35649453Y-187606807D01*
X35734145Y-187463601D01*
X35737436Y-187452275D01*
X35762399Y-187366350D01*
X35780562Y-187303831D01*
X35783500Y-187266502D01*
X35783500Y-186833498D01*
X35782560Y-186821556D01*
X35781067Y-186802579D01*
X35781066Y-186802574D01*
X35780562Y-186796169D01*
X35734145Y-186636399D01*
X35649453Y-186493193D01*
X35646771Y-186490511D01*
X35621498Y-186426139D01*
X35635400Y-186356516D01*
X35645572Y-186340688D01*
X35649453Y-186336807D01*
X35734145Y-186193601D01*
X35736358Y-186185986D01*
X35755093Y-186121498D01*
X35780562Y-186033831D01*
X35781307Y-186024373D01*
X35783307Y-185998958D01*
X35783307Y-185998950D01*
X35783500Y-185996502D01*
X35783500Y-185563498D01*
X35783307Y-185561042D01*
X35781067Y-185532579D01*
X35781066Y-185532574D01*
X35780562Y-185526169D01*
X35737191Y-185376882D01*
X35736357Y-185374012D01*
X35736356Y-185374010D01*
X35734145Y-185366399D01*
X35683430Y-185280644D01*
X35653491Y-185230020D01*
X35653489Y-185230017D01*
X35649453Y-185223193D01*
X35531807Y-185105547D01*
X35524983Y-185101511D01*
X35524980Y-185101509D01*
X35395427Y-185024892D01*
X35395428Y-185024892D01*
X35388601Y-185020855D01*
X35380990Y-185018644D01*
X35380988Y-185018643D01*
X35305998Y-184996857D01*
X35228831Y-184974438D01*
X35222426Y-184973934D01*
X35222421Y-184973933D01*
X35193958Y-184971693D01*
X35193950Y-184971693D01*
X35191502Y-184971500D01*
X35067895Y-184971500D01*
X34999774Y-184951498D01*
X34962524Y-184914586D01*
X34942820Y-184884533D01*
X34940472Y-184880812D01*
X34905509Y-184823193D01*
X34905505Y-184823188D01*
X34902595Y-184818392D01*
X34895197Y-184810016D01*
X34895223Y-184809993D01*
X34892574Y-184807003D01*
X34889866Y-184803764D01*
X34885856Y-184797648D01*
X34880549Y-184792621D01*
X34880546Y-184792617D01*
X34829617Y-184744372D01*
X34827175Y-184741994D01*
X33999007Y-183913826D01*
X33964981Y-183851514D01*
X33970046Y-183780699D01*
X34012593Y-183723863D01*
X34079113Y-183699052D01*
X34142468Y-183713626D01*
X34143248Y-183711874D01*
X34304984Y-183783883D01*
X34317712Y-183789550D01*
X34402343Y-183807539D01*
X34498056Y-183827884D01*
X34498061Y-183827884D01*
X34504513Y-183829256D01*
X34695487Y-183829256D01*
X34701939Y-183827884D01*
X34701944Y-183827884D01*
X34797657Y-183807539D01*
X34882288Y-183789550D01*
X34888320Y-183786864D01*
X34894600Y-183784824D01*
X34895486Y-183787551D01*
X34953401Y-183779795D01*
X35017694Y-183809910D01*
X35055499Y-183870005D01*
X35059575Y-183891163D01*
X35061958Y-183913838D01*
X35120973Y-184095466D01*
X35216460Y-184260854D01*
X35220878Y-184265761D01*
X35220879Y-184265762D01*
X35339825Y-184397865D01*
X35344247Y-184402776D01*
X35498748Y-184515028D01*
X35504776Y-184517712D01*
X35504778Y-184517713D01*
X35667181Y-184590019D01*
X35673212Y-184592704D01*
X35766613Y-184612557D01*
X35853556Y-184631038D01*
X35853561Y-184631038D01*
X35860013Y-184632410D01*
X36050987Y-184632410D01*
X36057439Y-184631038D01*
X36057444Y-184631038D01*
X36144387Y-184612557D01*
X36237788Y-184592704D01*
X36243819Y-184590019D01*
X36406222Y-184517713D01*
X36406224Y-184517712D01*
X36412252Y-184515028D01*
X36521086Y-184435955D01*
X36587953Y-184412097D01*
X36657105Y-184428177D01*
X36706585Y-184479091D01*
X36720938Y-184530637D01*
X36724589Y-184593956D01*
X36729608Y-184681000D01*
X36730110Y-184689715D01*
X36731247Y-184694761D01*
X36731248Y-184694767D01*
X36743043Y-184747102D01*
X36779222Y-184907639D01*
X36863266Y-185114616D01*
X36884055Y-185148540D01*
X36969951Y-185288710D01*
X36979987Y-185305088D01*
X37126250Y-185473938D01*
X37298126Y-185616632D01*
X37365834Y-185656197D01*
X37371955Y-185659774D01*
X37420679Y-185711412D01*
X37433750Y-185781195D01*
X37407019Y-185846967D01*
X37366562Y-185880327D01*
X37358457Y-185884546D01*
X37349738Y-185890036D01*
X37179433Y-186017905D01*
X37171726Y-186024748D01*
X37024590Y-186178717D01*
X37018104Y-186186727D01*
X36898098Y-186362649D01*
X36893000Y-186371623D01*
X36803338Y-186564783D01*
X36799775Y-186574470D01*
X36744389Y-186774183D01*
X36745912Y-186782607D01*
X36758292Y-186786000D01*
X39398344Y-186786000D01*
X39411875Y-186782027D01*
X39413180Y-186772947D01*
X39371214Y-186605875D01*
X39367894Y-186596124D01*
X39282972Y-186400814D01*
X39278105Y-186391739D01*
X39162426Y-186212926D01*
X39156136Y-186204757D01*
X39012806Y-186047240D01*
X39005273Y-186040215D01*
X38838139Y-185908222D01*
X38829556Y-185902520D01*
X38792602Y-185882120D01*
X38742631Y-185831687D01*
X38727859Y-185762245D01*
X38752975Y-185695839D01*
X38780327Y-185669232D01*
X38818593Y-185641937D01*
X38959860Y-185541173D01*
X38964589Y-185536461D01*
X39051716Y-185449637D01*
X39118096Y-185383489D01*
X39159374Y-185326045D01*
X39245435Y-185206277D01*
X39248453Y-185202077D01*
X39257635Y-185183500D01*
X39345136Y-185006453D01*
X39345137Y-185006451D01*
X39347430Y-185001811D01*
X39395437Y-184843803D01*
X39410865Y-184793023D01*
X39410865Y-184793021D01*
X39412370Y-184788069D01*
X39441529Y-184566590D01*
X39441611Y-184563240D01*
X39443074Y-184503365D01*
X39443074Y-184503361D01*
X39443156Y-184500000D01*
X39424852Y-184277361D01*
X39370431Y-184060702D01*
X39281354Y-183855840D01*
X39195974Y-183723863D01*
X39162822Y-183672617D01*
X39162820Y-183672614D01*
X39160014Y-183668277D01*
X39009670Y-183503051D01*
X39005619Y-183499852D01*
X39005615Y-183499848D01*
X38838414Y-183367800D01*
X38838410Y-183367798D01*
X38834359Y-183364598D01*
X38793053Y-183341796D01*
X38743084Y-183291364D01*
X38728312Y-183221921D01*
X38753428Y-183155516D01*
X38780780Y-183128909D01*
X38849658Y-183079779D01*
X38959860Y-183001173D01*
X38976883Y-182984210D01*
X39114435Y-182847137D01*
X39118096Y-182843489D01*
X39133885Y-182821517D01*
X39245435Y-182666277D01*
X39248453Y-182662077D01*
X39260446Y-182637812D01*
X39345136Y-182466453D01*
X39345137Y-182466451D01*
X39347430Y-182461811D01*
X39412370Y-182248069D01*
X39441529Y-182026590D01*
X39441611Y-182023238D01*
X39443074Y-181963365D01*
X39443074Y-181963361D01*
X39443156Y-181960000D01*
X39424852Y-181737361D01*
X39370431Y-181520702D01*
X39281354Y-181315840D01*
X39160014Y-181128277D01*
X39009670Y-180963051D01*
X39005619Y-180959852D01*
X39005615Y-180959848D01*
X38838414Y-180827800D01*
X38838410Y-180827798D01*
X38834359Y-180824598D01*
X38793053Y-180801796D01*
X38743084Y-180751364D01*
X38728312Y-180681921D01*
X38753428Y-180615516D01*
X38780780Y-180588909D01*
X38824603Y-180557650D01*
X38959860Y-180461173D01*
X39118096Y-180303489D01*
X39180962Y-180216002D01*
X39245435Y-180126277D01*
X39248453Y-180122077D01*
X39347430Y-179921811D01*
X39412370Y-179708069D01*
X39441529Y-179486590D01*
X39441611Y-179483240D01*
X39443074Y-179423365D01*
X39443074Y-179423361D01*
X39443156Y-179420000D01*
X39424852Y-179197361D01*
X39370431Y-178980702D01*
X39281354Y-178775840D01*
X39160014Y-178588277D01*
X39009670Y-178423051D01*
X39005619Y-178419852D01*
X39005615Y-178419848D01*
X38838414Y-178287800D01*
X38838410Y-178287798D01*
X38834359Y-178284598D01*
X38793053Y-178261796D01*
X38743084Y-178211364D01*
X38728312Y-178141921D01*
X38753428Y-178075516D01*
X38780780Y-178048909D01*
X38843039Y-178004500D01*
X38959860Y-177921173D01*
X38982611Y-177898502D01*
X39114435Y-177767137D01*
X39118096Y-177763489D01*
X39177594Y-177680689D01*
X39245435Y-177586277D01*
X39248453Y-177582077D01*
X39256212Y-177566379D01*
X39345136Y-177386453D01*
X39345137Y-177386451D01*
X39347430Y-177381811D01*
X39412370Y-177168069D01*
X39441529Y-176946590D01*
X39443156Y-176880000D01*
X39424852Y-176657361D01*
X39370431Y-176440702D01*
X39281354Y-176235840D01*
X39201423Y-176112285D01*
X39162822Y-176052617D01*
X39162820Y-176052614D01*
X39160014Y-176048277D01*
X39009670Y-175883051D01*
X39005619Y-175879852D01*
X39005615Y-175879848D01*
X38838414Y-175747800D01*
X38838410Y-175747798D01*
X38834359Y-175744598D01*
X38793053Y-175721796D01*
X38743084Y-175671364D01*
X38728312Y-175601921D01*
X38753428Y-175535516D01*
X38780780Y-175508909D01*
X38843039Y-175464500D01*
X38959860Y-175381173D01*
X38982611Y-175358502D01*
X39098323Y-175243193D01*
X39118096Y-175223489D01*
X39177594Y-175140689D01*
X39245435Y-175046277D01*
X39248453Y-175042077D01*
X39318378Y-174900595D01*
X39345136Y-174846453D01*
X39345137Y-174846451D01*
X39347430Y-174841811D01*
X39412370Y-174628069D01*
X39441529Y-174406590D01*
X39443156Y-174340000D01*
X39424852Y-174117361D01*
X39370431Y-173900702D01*
X39281354Y-173695840D01*
X39204490Y-173577026D01*
X39162822Y-173512617D01*
X39162820Y-173512614D01*
X39160014Y-173508277D01*
X39154429Y-173502139D01*
X39012798Y-173346488D01*
X38981746Y-173282642D01*
X38990141Y-173212143D01*
X39035317Y-173157375D01*
X39061761Y-173143706D01*
X39168297Y-173103767D01*
X39176705Y-173100615D01*
X39293261Y-173013261D01*
X39380615Y-172896705D01*
X39431745Y-172760316D01*
X39438500Y-172698134D01*
X39438500Y-170901866D01*
X39431745Y-170839684D01*
X39380615Y-170703295D01*
X39293261Y-170586739D01*
X39176705Y-170499385D01*
X39040316Y-170448255D01*
X38978134Y-170441500D01*
X37181866Y-170441500D01*
X37119684Y-170448255D01*
X36983295Y-170499385D01*
X36866739Y-170586739D01*
X36779385Y-170703295D01*
X36728255Y-170839684D01*
X36721500Y-170901866D01*
X36721500Y-172698134D01*
X36728255Y-172760316D01*
X36779385Y-172896705D01*
X36866739Y-173013261D01*
X36983295Y-173100615D01*
X36991704Y-173103767D01*
X36991705Y-173103768D01*
X37100451Y-173144535D01*
X37157216Y-173187176D01*
X37181916Y-173253738D01*
X37166709Y-173323087D01*
X37147316Y-173349568D01*
X37028886Y-173473498D01*
X37020629Y-173482138D01*
X37017715Y-173486410D01*
X37017714Y-173486411D01*
X36959135Y-173572285D01*
X36894743Y-173666680D01*
X36857069Y-173747842D01*
X36807153Y-173855378D01*
X36800688Y-173869305D01*
X36740989Y-174084570D01*
X36717251Y-174306695D01*
X36730110Y-174529715D01*
X36731247Y-174534760D01*
X36731966Y-174539877D01*
X36730518Y-174540081D01*
X36726398Y-174604274D01*
X36697119Y-174650200D01*
X35392724Y-175954595D01*
X35330412Y-175988621D01*
X35303629Y-175991500D01*
X34722000Y-175991500D01*
X34653879Y-175971498D01*
X34607386Y-175917842D01*
X34596000Y-175865500D01*
X34596000Y-175583498D01*
X34595750Y-175580316D01*
X34593567Y-175552579D01*
X34593566Y-175552574D01*
X34593062Y-175546169D01*
X34564028Y-175446231D01*
X34548857Y-175394012D01*
X34548856Y-175394010D01*
X34546645Y-175386399D01*
X34518066Y-175338075D01*
X34465991Y-175250020D01*
X34465989Y-175250017D01*
X34461953Y-175243193D01*
X34344307Y-175125547D01*
X34337483Y-175121511D01*
X34337480Y-175121509D01*
X34207927Y-175044892D01*
X34207928Y-175044892D01*
X34201101Y-175040855D01*
X34071848Y-175003304D01*
X34012012Y-174965092D01*
X33982334Y-174900595D01*
X33981000Y-174882307D01*
X33981000Y-173478915D01*
X34001002Y-173410794D01*
X34017827Y-173389897D01*
X34079134Y-173328483D01*
X34084305Y-173323303D01*
X34152825Y-173212144D01*
X34173275Y-173178968D01*
X34173276Y-173178966D01*
X34177115Y-173172738D01*
X34208480Y-173078174D01*
X34230632Y-173011389D01*
X34230632Y-173011387D01*
X34232797Y-173004861D01*
X34243500Y-172900400D01*
X34243500Y-171899600D01*
X34243163Y-171896350D01*
X34233238Y-171800692D01*
X34233237Y-171800688D01*
X34232526Y-171793834D01*
X34229139Y-171783680D01*
X34178868Y-171633002D01*
X34176550Y-171626054D01*
X34093236Y-171491420D01*
X34074398Y-171422969D01*
X34093120Y-171359002D01*
X34173275Y-171228968D01*
X34173276Y-171228966D01*
X34177115Y-171222738D01*
X34232797Y-171054861D01*
X34243500Y-170950400D01*
X34243500Y-169949600D01*
X34237501Y-169891779D01*
X34233238Y-169850692D01*
X34233237Y-169850688D01*
X34232526Y-169843834D01*
X34228297Y-169831156D01*
X34178868Y-169683002D01*
X34176550Y-169676054D01*
X34083478Y-169525652D01*
X33958303Y-169400695D01*
X33929339Y-169382841D01*
X33813968Y-169311725D01*
X33813966Y-169311724D01*
X33807738Y-169307885D01*
X33727995Y-169281436D01*
X33646389Y-169254368D01*
X33646387Y-169254368D01*
X33639861Y-169252203D01*
X33633025Y-169251503D01*
X33633022Y-169251502D01*
X33589969Y-169247091D01*
X33535400Y-169241500D01*
X32909600Y-169241500D01*
X32906354Y-169241837D01*
X32906350Y-169241837D01*
X32810692Y-169251762D01*
X32810688Y-169251763D01*
X32803834Y-169252474D01*
X32797298Y-169254655D01*
X32797296Y-169254655D01*
X32744327Y-169272327D01*
X32636054Y-169308450D01*
X32485652Y-169401522D01*
X32480479Y-169406704D01*
X32399216Y-169488109D01*
X32336934Y-169522188D01*
X32266114Y-169517185D01*
X32221025Y-169488264D01*
X32138483Y-169405866D01*
X32133303Y-169400695D01*
X32010664Y-169325099D01*
X31963171Y-169272327D01*
X31951747Y-169202255D01*
X31980021Y-169137131D01*
X31987839Y-169128589D01*
X32029435Y-169087138D01*
X32029439Y-169087133D01*
X32033096Y-169083489D01*
X32163453Y-168902077D01*
X32179225Y-168870166D01*
X32260136Y-168706453D01*
X32260137Y-168706451D01*
X32262430Y-168701811D01*
X32327370Y-168488069D01*
X32356529Y-168266590D01*
X32358156Y-168200000D01*
X32339852Y-167977361D01*
X32285431Y-167760702D01*
X32196354Y-167555840D01*
X32116313Y-167432115D01*
X32077822Y-167372617D01*
X32077820Y-167372614D01*
X32075014Y-167368277D01*
X31924670Y-167203051D01*
X31896287Y-167180635D01*
X31869218Y-167159257D01*
X31828156Y-167101340D01*
X31824924Y-167030417D01*
X31860550Y-166969006D01*
X31923721Y-166936604D01*
X31947535Y-166934376D01*
X34744359Y-166939397D01*
G37*
G04 #@! TD.AperFunction*
G04 #@! TA.AperFunction,Conductor*
G36*
X16508734Y-177962522D02*
G01*
X16534915Y-177982596D01*
X17691230Y-179138911D01*
X17703616Y-179153323D01*
X17712149Y-179164918D01*
X17712154Y-179164923D01*
X17716492Y-179170818D01*
X17722070Y-179175557D01*
X17722073Y-179175560D01*
X17756768Y-179205035D01*
X17764284Y-179211965D01*
X17769979Y-179217660D01*
X17772861Y-179219940D01*
X17792251Y-179235281D01*
X17795655Y-179238072D01*
X17845703Y-179280591D01*
X17851285Y-179285333D01*
X17857801Y-179288661D01*
X17862850Y-179292028D01*
X17867979Y-179295195D01*
X17873716Y-179299734D01*
X17939875Y-179330655D01*
X17943769Y-179332558D01*
X18008808Y-179365769D01*
X18015916Y-179367508D01*
X18021559Y-179369607D01*
X18027322Y-179371524D01*
X18033950Y-179374622D01*
X18091994Y-179386695D01*
X18105412Y-179389486D01*
X18109696Y-179390456D01*
X18180610Y-179407808D01*
X18186212Y-179408156D01*
X18186215Y-179408156D01*
X18191764Y-179408500D01*
X18191762Y-179408536D01*
X18195755Y-179408775D01*
X18199947Y-179409149D01*
X18207115Y-179410640D01*
X18284520Y-179408546D01*
X18287928Y-179408500D01*
X19407413Y-179408500D01*
X19481472Y-179432563D01*
X19487902Y-179437235D01*
X19487909Y-179437239D01*
X19493248Y-179441118D01*
X19499276Y-179443802D01*
X19499278Y-179443803D01*
X19661681Y-179516109D01*
X19667712Y-179518794D01*
X19674167Y-179520166D01*
X19674170Y-179520167D01*
X19691696Y-179523892D01*
X19754170Y-179557620D01*
X19788491Y-179619769D01*
X19791500Y-179647139D01*
X19791500Y-185232930D01*
X19790067Y-185251880D01*
X19786801Y-185273349D01*
X19787394Y-185280641D01*
X19787394Y-185280644D01*
X19791085Y-185326018D01*
X19791500Y-185336233D01*
X19791500Y-185344293D01*
X19791925Y-185347937D01*
X19794789Y-185372507D01*
X19795222Y-185376882D01*
X19795760Y-185383489D01*
X19801140Y-185449637D01*
X19803396Y-185456601D01*
X19804587Y-185462560D01*
X19805971Y-185468415D01*
X19806818Y-185475681D01*
X19831735Y-185544327D01*
X19833152Y-185548455D01*
X19843318Y-185579834D01*
X19855649Y-185617899D01*
X19859445Y-185624154D01*
X19861951Y-185629628D01*
X19864670Y-185635058D01*
X19867167Y-185641937D01*
X19871180Y-185648057D01*
X19871180Y-185648058D01*
X19907186Y-185702976D01*
X19909523Y-185706680D01*
X19947405Y-185769107D01*
X19951121Y-185773315D01*
X19951122Y-185773316D01*
X19954803Y-185777484D01*
X19954776Y-185777508D01*
X19957429Y-185780500D01*
X19960132Y-185783733D01*
X19964144Y-185789852D01*
X19984389Y-185809030D01*
X20020383Y-185843128D01*
X20022825Y-185845506D01*
X20211895Y-186034576D01*
X20245921Y-186096888D01*
X20248110Y-186110499D01*
X20256458Y-186189928D01*
X20258498Y-186196205D01*
X20258498Y-186196207D01*
X20277209Y-186253794D01*
X20315473Y-186371556D01*
X20410960Y-186536944D01*
X20415378Y-186541851D01*
X20415379Y-186541852D01*
X20503687Y-186639928D01*
X20538747Y-186678866D01*
X20598460Y-186722250D01*
X20686204Y-186786000D01*
X20693248Y-186791118D01*
X20699276Y-186793802D01*
X20699278Y-186793803D01*
X20793983Y-186835968D01*
X20867712Y-186868794D01*
X20961113Y-186888647D01*
X21048056Y-186907128D01*
X21048061Y-186907128D01*
X21054513Y-186908500D01*
X21245487Y-186908500D01*
X21251939Y-186907128D01*
X21251944Y-186907128D01*
X21338887Y-186888647D01*
X21432288Y-186868794D01*
X21506017Y-186835968D01*
X21600722Y-186793803D01*
X21600724Y-186793802D01*
X21606752Y-186791118D01*
X21613797Y-186786000D01*
X21701540Y-186722250D01*
X21761253Y-186678866D01*
X21796313Y-186639928D01*
X21884621Y-186541852D01*
X21884622Y-186541851D01*
X21889040Y-186536944D01*
X21984527Y-186371556D01*
X22043542Y-186189928D01*
X22044326Y-186182475D01*
X22062814Y-186006565D01*
X22063504Y-186000000D01*
X22053215Y-185902104D01*
X22044232Y-185816635D01*
X22044232Y-185816633D01*
X22043542Y-185810072D01*
X21984527Y-185628444D01*
X21889040Y-185463056D01*
X21876958Y-185449637D01*
X21765675Y-185326045D01*
X21765674Y-185326044D01*
X21761253Y-185321134D01*
X21635846Y-185230020D01*
X21612094Y-185212763D01*
X21612093Y-185212762D01*
X21606752Y-185208882D01*
X21600724Y-185206198D01*
X21600722Y-185206197D01*
X21492552Y-185158037D01*
X21454706Y-185132025D01*
X21345405Y-185022724D01*
X21311379Y-184960412D01*
X21308500Y-184933629D01*
X21308500Y-183609500D01*
X21328502Y-183541379D01*
X21382158Y-183494886D01*
X21434500Y-183483500D01*
X21850400Y-183483500D01*
X21853646Y-183483163D01*
X21853650Y-183483163D01*
X21949308Y-183473238D01*
X21949312Y-183473237D01*
X21956166Y-183472526D01*
X21962702Y-183470345D01*
X21962704Y-183470345D01*
X22116998Y-183418868D01*
X22123946Y-183416550D01*
X22274348Y-183323478D01*
X22399305Y-183198303D01*
X22402102Y-183193765D01*
X22459353Y-183153176D01*
X22530276Y-183149946D01*
X22591687Y-183185572D01*
X22599062Y-183194068D01*
X22607098Y-183204207D01*
X22721829Y-183318739D01*
X22733240Y-183327751D01*
X22871243Y-183412816D01*
X22884424Y-183418963D01*
X23038710Y-183470138D01*
X23052086Y-183473005D01*
X23146438Y-183482672D01*
X23152854Y-183483000D01*
X23177885Y-183483000D01*
X23193124Y-183478525D01*
X23194329Y-183477135D01*
X23196000Y-183469452D01*
X23196000Y-183464884D01*
X23704000Y-183464884D01*
X23708475Y-183480123D01*
X23709865Y-183481328D01*
X23717548Y-183482999D01*
X23747095Y-183482999D01*
X23753614Y-183482662D01*
X23849206Y-183472743D01*
X23862600Y-183469851D01*
X24016784Y-183418412D01*
X24029962Y-183412239D01*
X24167807Y-183326937D01*
X24179208Y-183317901D01*
X24293739Y-183203171D01*
X24302751Y-183191760D01*
X24387816Y-183053757D01*
X24393963Y-183040576D01*
X24445138Y-182886290D01*
X24448005Y-182872914D01*
X24457672Y-182778562D01*
X24458000Y-182772145D01*
X24458000Y-182522115D01*
X24453525Y-182506876D01*
X24452135Y-182505671D01*
X24444452Y-182504000D01*
X23722115Y-182504000D01*
X23706876Y-182508475D01*
X23705671Y-182509865D01*
X23704000Y-182517548D01*
X23704000Y-183464884D01*
X23196000Y-183464884D01*
X23196000Y-180322000D01*
X23216002Y-180253879D01*
X23269658Y-180207386D01*
X23322000Y-180196000D01*
X23578000Y-180196000D01*
X23646121Y-180216002D01*
X23692614Y-180269658D01*
X23704000Y-180322000D01*
X23704000Y-181977885D01*
X23708475Y-181993124D01*
X23709865Y-181994329D01*
X23717548Y-181996000D01*
X24439884Y-181996000D01*
X24455123Y-181991525D01*
X24469123Y-181975369D01*
X24487217Y-181942229D01*
X24549528Y-181908202D01*
X24591310Y-181908099D01*
X24591485Y-181906437D01*
X24598056Y-181907128D01*
X24604513Y-181908500D01*
X24795487Y-181908500D01*
X24801939Y-181907128D01*
X24801944Y-181907128D01*
X24901359Y-181885996D01*
X24926773Y-181880594D01*
X24997564Y-181885996D01*
X25042065Y-181914746D01*
X25329875Y-182202556D01*
X25360613Y-182252714D01*
X25415473Y-182421556D01*
X25418776Y-182427278D01*
X25418777Y-182427279D01*
X25431647Y-182449570D01*
X25510960Y-182586944D01*
X25515378Y-182591851D01*
X25515379Y-182591852D01*
X25629826Y-182718958D01*
X25638747Y-182728866D01*
X25644096Y-182732752D01*
X25646398Y-182734825D01*
X25683638Y-182795271D01*
X25682287Y-182866255D01*
X25651183Y-182917557D01*
X25625547Y-182943193D01*
X25621511Y-182950017D01*
X25621509Y-182950020D01*
X25567955Y-183040576D01*
X25540855Y-183086399D01*
X25538644Y-183094010D01*
X25538643Y-183094012D01*
X25523790Y-183145139D01*
X25494438Y-183246169D01*
X25493934Y-183252574D01*
X25493933Y-183252579D01*
X25492646Y-183268938D01*
X25491500Y-183283498D01*
X25491500Y-184591502D01*
X25491693Y-184593952D01*
X25491693Y-184593956D01*
X25494299Y-184627062D01*
X25479703Y-184696542D01*
X25429861Y-184747102D01*
X25408556Y-184756475D01*
X25408208Y-184756591D01*
X25395043Y-184762758D01*
X25257193Y-184848063D01*
X25245792Y-184857099D01*
X25131261Y-184971829D01*
X25122249Y-184983240D01*
X25037184Y-185121243D01*
X25031037Y-185134424D01*
X24979862Y-185288710D01*
X24976995Y-185302086D01*
X24967328Y-185396438D01*
X24967000Y-185402855D01*
X24967000Y-185443615D01*
X24946998Y-185511736D01*
X24893342Y-185558229D01*
X24823068Y-185568333D01*
X24814803Y-185566861D01*
X24701953Y-185542873D01*
X24701940Y-185542872D01*
X24695487Y-185541500D01*
X24504513Y-185541500D01*
X24498061Y-185542872D01*
X24498056Y-185542872D01*
X24412576Y-185561042D01*
X24317712Y-185581206D01*
X24311682Y-185583891D01*
X24311681Y-185583891D01*
X24149278Y-185656197D01*
X24149276Y-185656198D01*
X24143248Y-185658882D01*
X24137907Y-185662762D01*
X24137906Y-185662763D01*
X24126712Y-185670896D01*
X23988747Y-185771134D01*
X23984326Y-185776044D01*
X23984325Y-185776045D01*
X23865693Y-185907800D01*
X23860960Y-185913056D01*
X23810763Y-186000000D01*
X23787545Y-186040215D01*
X23765473Y-186078444D01*
X23706458Y-186260072D01*
X23705768Y-186266633D01*
X23705768Y-186266635D01*
X23700861Y-186313323D01*
X23686496Y-186450000D01*
X23687186Y-186456565D01*
X23705370Y-186629573D01*
X23706458Y-186639928D01*
X23765473Y-186821556D01*
X23860960Y-186986944D01*
X23988747Y-187128866D01*
X24087843Y-187200864D01*
X24134507Y-187234767D01*
X24143248Y-187241118D01*
X24149276Y-187243802D01*
X24149278Y-187243803D01*
X24297978Y-187310008D01*
X24317712Y-187318794D01*
X24324167Y-187320166D01*
X24324176Y-187320169D01*
X24380772Y-187332199D01*
X24443669Y-187366350D01*
X24933584Y-187856265D01*
X24967610Y-187918577D01*
X24969815Y-187932353D01*
X24977474Y-188006166D01*
X24979655Y-188012702D01*
X24979655Y-188012704D01*
X25001588Y-188078444D01*
X25033450Y-188173946D01*
X25126522Y-188324348D01*
X25251697Y-188449305D01*
X25257927Y-188453145D01*
X25257928Y-188453146D01*
X25381616Y-188529389D01*
X25429110Y-188582162D01*
X25441500Y-188636649D01*
X25441500Y-188714306D01*
X25421498Y-188782427D01*
X25367842Y-188828920D01*
X25325718Y-188839891D01*
X25324723Y-188839972D01*
X25310364Y-188841140D01*
X25303398Y-188843397D01*
X25297461Y-188844583D01*
X25291590Y-188845970D01*
X25284319Y-188846818D01*
X25277443Y-188849314D01*
X25277434Y-188849316D01*
X25215702Y-188871725D01*
X25211598Y-188873135D01*
X25142101Y-188895648D01*
X25135846Y-188899444D01*
X25130387Y-188901943D01*
X25124939Y-188904671D01*
X25118063Y-188907167D01*
X25057010Y-188947195D01*
X25053337Y-188949513D01*
X24990893Y-188987405D01*
X24982517Y-188994802D01*
X24982493Y-188994775D01*
X24979499Y-188997430D01*
X24976268Y-189000132D01*
X24970148Y-189004144D01*
X24965116Y-189009456D01*
X24916872Y-189060383D01*
X24914494Y-189062825D01*
X23973595Y-190003724D01*
X23911283Y-190037750D01*
X23840468Y-190032685D01*
X23783632Y-189990138D01*
X23758821Y-189923618D01*
X23758500Y-189914629D01*
X23758500Y-188986999D01*
X23775381Y-188923999D01*
X23831223Y-188827279D01*
X23831224Y-188827278D01*
X23834527Y-188821556D01*
X23893542Y-188639928D01*
X23899614Y-188582162D01*
X23912814Y-188456565D01*
X23913504Y-188450000D01*
X23900298Y-188324348D01*
X23894232Y-188266635D01*
X23894232Y-188266633D01*
X23893542Y-188260072D01*
X23834527Y-188078444D01*
X23739040Y-187913056D01*
X23727645Y-187900400D01*
X23615675Y-187776045D01*
X23615674Y-187776044D01*
X23611253Y-187771134D01*
X23456752Y-187658882D01*
X23450724Y-187656198D01*
X23450722Y-187656197D01*
X23288319Y-187583891D01*
X23288318Y-187583891D01*
X23282288Y-187581206D01*
X23188888Y-187561353D01*
X23101944Y-187542872D01*
X23101939Y-187542872D01*
X23095487Y-187541500D01*
X22904513Y-187541500D01*
X22898061Y-187542872D01*
X22898056Y-187542872D01*
X22811112Y-187561353D01*
X22717712Y-187581206D01*
X22711682Y-187583891D01*
X22711681Y-187583891D01*
X22549278Y-187656197D01*
X22549276Y-187656198D01*
X22543248Y-187658882D01*
X22388747Y-187771134D01*
X22384326Y-187776044D01*
X22384325Y-187776045D01*
X22272356Y-187900400D01*
X22260960Y-187913056D01*
X22165473Y-188078444D01*
X22106458Y-188260072D01*
X22105768Y-188266633D01*
X22105768Y-188266635D01*
X22099702Y-188324348D01*
X22086496Y-188450000D01*
X22087186Y-188456565D01*
X22100387Y-188582162D01*
X22106458Y-188639928D01*
X22165473Y-188821556D01*
X22168776Y-188827278D01*
X22168777Y-188827279D01*
X22224619Y-188923999D01*
X22241500Y-188986999D01*
X22241500Y-189783629D01*
X22221498Y-189851750D01*
X22204595Y-189872724D01*
X20831089Y-191246230D01*
X20816677Y-191258616D01*
X20805082Y-191267149D01*
X20805077Y-191267154D01*
X20799182Y-191271492D01*
X20777443Y-191297081D01*
X20718095Y-191336044D01*
X20681419Y-191341500D01*
X20421866Y-191341500D01*
X20359684Y-191348255D01*
X20223295Y-191399385D01*
X20106739Y-191486739D01*
X20019385Y-191603295D01*
X19968255Y-191739684D01*
X19961500Y-191801866D01*
X19961500Y-193598134D01*
X19968255Y-193660316D01*
X19971027Y-193667712D01*
X19971029Y-193667718D01*
X20010455Y-193772886D01*
X20015638Y-193843693D01*
X19981717Y-193906062D01*
X19919461Y-193940191D01*
X19892473Y-193943115D01*
X13144500Y-193943115D01*
X13076379Y-193923113D01*
X13029886Y-193869457D01*
X13018500Y-193817115D01*
X13018500Y-185063931D01*
X13038502Y-184995810D01*
X13092158Y-184949317D01*
X13162432Y-184939213D01*
X13170697Y-184940685D01*
X13248047Y-184957127D01*
X13248060Y-184957128D01*
X13254513Y-184958500D01*
X13445487Y-184958500D01*
X13451939Y-184957128D01*
X13451944Y-184957128D01*
X13562495Y-184933629D01*
X13632288Y-184918794D01*
X13638319Y-184916109D01*
X13800722Y-184843803D01*
X13800724Y-184843802D01*
X13806752Y-184841118D01*
X13961253Y-184728866D01*
X14004353Y-184680999D01*
X14064797Y-184643761D01*
X14135781Y-184645113D01*
X14194765Y-184684627D01*
X14220904Y-184737609D01*
X14259222Y-184907639D01*
X14343266Y-185114616D01*
X14364055Y-185148540D01*
X14449951Y-185288710D01*
X14459987Y-185305088D01*
X14606250Y-185473938D01*
X14778126Y-185616632D01*
X14845834Y-185656197D01*
X14851445Y-185659476D01*
X14900169Y-185711114D01*
X14913240Y-185780897D01*
X14886509Y-185846669D01*
X14846055Y-185880027D01*
X14833607Y-185886507D01*
X14829474Y-185889610D01*
X14829471Y-185889612D01*
X14670528Y-186008950D01*
X14654965Y-186020635D01*
X14651393Y-186024373D01*
X14526308Y-186155267D01*
X14500629Y-186182138D01*
X14497715Y-186186410D01*
X14497714Y-186186411D01*
X14495315Y-186189928D01*
X14374743Y-186366680D01*
X14336067Y-186450000D01*
X14284502Y-186561089D01*
X14280688Y-186569305D01*
X14220989Y-186784570D01*
X14197251Y-187006695D01*
X14210110Y-187229715D01*
X14211247Y-187234761D01*
X14211248Y-187234767D01*
X14218400Y-187266502D01*
X14259222Y-187447639D01*
X14343266Y-187654616D01*
X14361885Y-187685000D01*
X14417678Y-187776045D01*
X14459987Y-187845088D01*
X14606250Y-188013938D01*
X14778126Y-188156632D01*
X14818417Y-188180176D01*
X14851445Y-188199476D01*
X14900169Y-188251114D01*
X14913240Y-188320897D01*
X14886509Y-188386669D01*
X14846055Y-188420027D01*
X14833607Y-188426507D01*
X14829474Y-188429610D01*
X14829471Y-188429612D01*
X14687107Y-188536502D01*
X14654965Y-188560635D01*
X14500629Y-188722138D01*
X14374743Y-188906680D01*
X14355385Y-188948384D01*
X14294688Y-189079145D01*
X14280688Y-189109305D01*
X14220989Y-189324570D01*
X14220440Y-189329707D01*
X14219456Y-189338913D01*
X14197251Y-189546695D01*
X14197548Y-189551848D01*
X14197548Y-189551851D01*
X14203011Y-189646590D01*
X14210110Y-189769715D01*
X14211247Y-189774761D01*
X14211248Y-189774767D01*
X14228173Y-189849865D01*
X14259222Y-189987639D01*
X14343266Y-190194616D01*
X14345965Y-190199020D01*
X14439795Y-190352137D01*
X14459987Y-190385088D01*
X14606250Y-190553938D01*
X14778126Y-190696632D01*
X14971000Y-190809338D01*
X15179692Y-190889030D01*
X15184760Y-190890061D01*
X15184763Y-190890062D01*
X15292017Y-190911883D01*
X15398597Y-190933567D01*
X15403772Y-190933757D01*
X15403774Y-190933757D01*
X15616673Y-190941564D01*
X15616677Y-190941564D01*
X15621837Y-190941753D01*
X15626957Y-190941097D01*
X15626959Y-190941097D01*
X15838288Y-190914025D01*
X15838289Y-190914025D01*
X15843416Y-190913368D01*
X15848366Y-190911883D01*
X16052429Y-190850661D01*
X16052434Y-190850659D01*
X16057384Y-190849174D01*
X16257994Y-190750896D01*
X16439860Y-190621173D01*
X16598096Y-190463489D01*
X16645295Y-190397805D01*
X16725435Y-190286277D01*
X16728453Y-190282077D01*
X16735367Y-190268089D01*
X16799285Y-190138758D01*
X16822410Y-190091968D01*
X16870523Y-190039761D01*
X16939224Y-190021854D01*
X16986616Y-190032688D01*
X16997986Y-190037750D01*
X17067712Y-190068794D01*
X17150791Y-190086453D01*
X17248056Y-190107128D01*
X17248061Y-190107128D01*
X17254513Y-190108500D01*
X17445487Y-190108500D01*
X17451939Y-190107128D01*
X17451944Y-190107128D01*
X17549209Y-190086453D01*
X17632288Y-190068794D01*
X17697498Y-190039761D01*
X17800722Y-189993803D01*
X17800724Y-189993802D01*
X17806752Y-189991118D01*
X17818482Y-189982596D01*
X17899657Y-189923618D01*
X17961253Y-189878866D01*
X17989681Y-189847294D01*
X18084621Y-189741852D01*
X18084622Y-189741851D01*
X18089040Y-189736944D01*
X18184527Y-189571556D01*
X18243542Y-189389928D01*
X18246423Y-189362522D01*
X18262814Y-189206565D01*
X18263504Y-189200000D01*
X18250802Y-189079145D01*
X18244232Y-189016635D01*
X18244232Y-189016633D01*
X18243542Y-189010072D01*
X18184527Y-188828444D01*
X18125381Y-188726000D01*
X18108500Y-188663001D01*
X18108500Y-183817069D01*
X18109933Y-183798118D01*
X18112099Y-183783883D01*
X18112099Y-183783881D01*
X18113199Y-183776651D01*
X18111840Y-183759934D01*
X18108915Y-183723982D01*
X18108500Y-183713767D01*
X18108500Y-183705707D01*
X18105211Y-183677493D01*
X18104778Y-183673118D01*
X18099454Y-183607661D01*
X18099453Y-183607658D01*
X18098860Y-183600363D01*
X18096604Y-183593399D01*
X18095413Y-183587440D01*
X18094029Y-183581585D01*
X18093182Y-183574319D01*
X18068265Y-183505673D01*
X18066848Y-183501545D01*
X18046607Y-183439064D01*
X18046606Y-183439062D01*
X18044351Y-183432101D01*
X18040555Y-183425846D01*
X18038049Y-183420372D01*
X18035330Y-183414942D01*
X18032833Y-183408063D01*
X17992809Y-183347016D01*
X17990472Y-183343312D01*
X17955509Y-183285693D01*
X17955505Y-183285688D01*
X17952595Y-183280892D01*
X17945197Y-183272516D01*
X17945223Y-183272493D01*
X17942574Y-183269503D01*
X17939866Y-183266264D01*
X17935856Y-183260148D01*
X17930549Y-183255121D01*
X17930546Y-183255117D01*
X17879617Y-183206872D01*
X17877175Y-183204494D01*
X16939609Y-182266928D01*
X16905583Y-182204616D01*
X16903782Y-182161389D01*
X16921529Y-182026590D01*
X16921611Y-182023238D01*
X16923074Y-181963365D01*
X16923074Y-181963361D01*
X16923156Y-181960000D01*
X16904852Y-181737361D01*
X16850431Y-181520702D01*
X16761354Y-181315840D01*
X16640014Y-181128277D01*
X16489670Y-180963051D01*
X16485619Y-180959852D01*
X16485615Y-180959848D01*
X16318414Y-180827800D01*
X16318410Y-180827798D01*
X16314359Y-180824598D01*
X16273053Y-180801796D01*
X16223084Y-180751364D01*
X16208312Y-180681921D01*
X16233428Y-180615516D01*
X16260780Y-180588909D01*
X16304603Y-180557650D01*
X16439860Y-180461173D01*
X16598096Y-180303489D01*
X16660962Y-180216002D01*
X16725435Y-180126277D01*
X16728453Y-180122077D01*
X16827430Y-179921811D01*
X16892370Y-179708069D01*
X16921529Y-179486590D01*
X16921611Y-179483240D01*
X16923074Y-179423365D01*
X16923074Y-179423361D01*
X16923156Y-179420000D01*
X16904852Y-179197361D01*
X16850431Y-178980702D01*
X16761354Y-178775840D01*
X16640014Y-178588277D01*
X16489670Y-178423051D01*
X16485619Y-178419852D01*
X16485615Y-178419848D01*
X16318414Y-178287800D01*
X16318410Y-178287798D01*
X16314359Y-178284598D01*
X16273053Y-178261796D01*
X16223084Y-178211364D01*
X16208312Y-178141921D01*
X16233428Y-178075516D01*
X16260780Y-178048909D01*
X16372652Y-177969112D01*
X16439725Y-177945838D01*
X16508734Y-177962522D01*
G37*
G04 #@! TD.AperFunction*
G04 #@! TA.AperFunction,Conductor*
G36*
X28276398Y-190353503D02*
G01*
X28414989Y-190393767D01*
X28414993Y-190393768D01*
X28421169Y-190395562D01*
X28427574Y-190396066D01*
X28427579Y-190396067D01*
X28456042Y-190398307D01*
X28456050Y-190398307D01*
X28458498Y-190398500D01*
X29412429Y-190398500D01*
X29480550Y-190418502D01*
X29527043Y-190472158D01*
X29537739Y-190511329D01*
X29542565Y-190557240D01*
X29556458Y-190689428D01*
X29615473Y-190871056D01*
X29618776Y-190876778D01*
X29618777Y-190876779D01*
X29639902Y-190913368D01*
X29710960Y-191036444D01*
X29838747Y-191178366D01*
X29993248Y-191290618D01*
X29999276Y-191293302D01*
X29999278Y-191293303D01*
X30161681Y-191365609D01*
X30167712Y-191368294D01*
X30253232Y-191386472D01*
X30348056Y-191406628D01*
X30348061Y-191406628D01*
X30354513Y-191408000D01*
X30545487Y-191408000D01*
X30550289Y-191406979D01*
X30619509Y-191419638D01*
X30671355Y-191468140D01*
X30688750Y-191536973D01*
X30666169Y-191604283D01*
X30638494Y-191632936D01*
X30574965Y-191680635D01*
X30571393Y-191684373D01*
X30463729Y-191797037D01*
X30420629Y-191842138D01*
X30313201Y-191999621D01*
X30258293Y-192044621D01*
X30187768Y-192052792D01*
X30124021Y-192021538D01*
X30103324Y-191997054D01*
X30022822Y-191872617D01*
X30022820Y-191872614D01*
X30020014Y-191868277D01*
X29869670Y-191703051D01*
X29865619Y-191699852D01*
X29865615Y-191699848D01*
X29698414Y-191567800D01*
X29698410Y-191567798D01*
X29694359Y-191564598D01*
X29658028Y-191544542D01*
X29575035Y-191498728D01*
X29498789Y-191456638D01*
X29493920Y-191454914D01*
X29493916Y-191454912D01*
X29293087Y-191383795D01*
X29293083Y-191383794D01*
X29288212Y-191382069D01*
X29283119Y-191381162D01*
X29283116Y-191381161D01*
X29073373Y-191343800D01*
X29073367Y-191343799D01*
X29068284Y-191342894D01*
X28994452Y-191341992D01*
X28850081Y-191340228D01*
X28850079Y-191340228D01*
X28844911Y-191340165D01*
X28624091Y-191373955D01*
X28411756Y-191443357D01*
X28377860Y-191461002D01*
X28231922Y-191536973D01*
X28213607Y-191546507D01*
X28209474Y-191549610D01*
X28209471Y-191549612D01*
X28098494Y-191632936D01*
X28034965Y-191680635D01*
X28031393Y-191684373D01*
X27923729Y-191797037D01*
X27880629Y-191842138D01*
X27773204Y-191999618D01*
X27772898Y-192000066D01*
X27717987Y-192045069D01*
X27647462Y-192053240D01*
X27583715Y-192021986D01*
X27563018Y-191997502D01*
X27482426Y-191872926D01*
X27476136Y-191864757D01*
X27332806Y-191707240D01*
X27325273Y-191700215D01*
X27158139Y-191568222D01*
X27149552Y-191562517D01*
X26963117Y-191459599D01*
X26953705Y-191455369D01*
X26752959Y-191384280D01*
X26742988Y-191381646D01*
X26671837Y-191368972D01*
X26658540Y-191370432D01*
X26654000Y-191384989D01*
X26654000Y-192828000D01*
X26633998Y-192896121D01*
X26580342Y-192942614D01*
X26528000Y-192954000D01*
X26272000Y-192954000D01*
X26203879Y-192933998D01*
X26157386Y-192880342D01*
X26146000Y-192828000D01*
X26146000Y-191383102D01*
X26142082Y-191369758D01*
X26127806Y-191367771D01*
X26089324Y-191373660D01*
X26079288Y-191376051D01*
X25876868Y-191442212D01*
X25867359Y-191446209D01*
X25678463Y-191544542D01*
X25669738Y-191550036D01*
X25499433Y-191677905D01*
X25491726Y-191684748D01*
X25344590Y-191838717D01*
X25338109Y-191846722D01*
X25233498Y-192000074D01*
X25178587Y-192045076D01*
X25108062Y-192053247D01*
X25044315Y-192021993D01*
X25023618Y-191997509D01*
X24942822Y-191872617D01*
X24942820Y-191872614D01*
X24940014Y-191868277D01*
X24789670Y-191703051D01*
X24785625Y-191699857D01*
X24785616Y-191699848D01*
X24694093Y-191627568D01*
X24653030Y-191569651D01*
X24649798Y-191498728D01*
X24683090Y-191439591D01*
X25733716Y-190388965D01*
X25796028Y-190354939D01*
X25826678Y-190352184D01*
X25833349Y-190353199D01*
X25840640Y-190352606D01*
X25840642Y-190352606D01*
X25886018Y-190348915D01*
X25896233Y-190348500D01*
X28241246Y-190348500D01*
X28276398Y-190353503D01*
G37*
G04 #@! TD.AperFunction*
G04 #@! TA.AperFunction,Conductor*
G36*
X28267012Y-182030983D02*
G01*
X28304332Y-182087269D01*
X28315473Y-182121556D01*
X28410960Y-182286944D01*
X28415378Y-182291851D01*
X28415379Y-182291852D01*
X28526506Y-182415271D01*
X28538747Y-182428866D01*
X28577273Y-182456857D01*
X28621541Y-182489020D01*
X28664895Y-182545243D01*
X28670970Y-182615979D01*
X28637838Y-182678771D01*
X28576018Y-182713682D01*
X28512326Y-182711953D01*
X28471395Y-182700061D01*
X28457294Y-182700101D01*
X28454000Y-182707370D01*
X28454000Y-184065500D01*
X28433998Y-184133621D01*
X28380342Y-184180114D01*
X28328000Y-184191500D01*
X28072000Y-184191500D01*
X28003879Y-184171498D01*
X27957386Y-184117842D01*
X27946000Y-184065500D01*
X27946000Y-183054842D01*
X27963547Y-182990703D01*
X27987607Y-182950020D01*
X28009145Y-182913601D01*
X28017080Y-182886290D01*
X28029514Y-182843489D01*
X28055562Y-182753831D01*
X28056714Y-182739206D01*
X28058307Y-182718958D01*
X28058307Y-182718950D01*
X28058500Y-182716502D01*
X28058500Y-182126207D01*
X28078502Y-182058086D01*
X28132158Y-182011593D01*
X28202432Y-182001489D01*
X28267012Y-182030983D01*
G37*
G04 #@! TD.AperFunction*
G04 #@! TA.AperFunction,Conductor*
G36*
X36647783Y-176949064D02*
G01*
X36704619Y-176991611D01*
X36729542Y-177059865D01*
X36730110Y-177069715D01*
X36731247Y-177074760D01*
X36731966Y-177079877D01*
X36730518Y-177080081D01*
X36726398Y-177144274D01*
X36697119Y-177190200D01*
X35711089Y-178176230D01*
X35696677Y-178188616D01*
X35685082Y-178197149D01*
X35685077Y-178197154D01*
X35679182Y-178201492D01*
X35674443Y-178207070D01*
X35674440Y-178207073D01*
X35644965Y-178241768D01*
X35638035Y-178249284D01*
X35632340Y-178254979D01*
X35630060Y-178257861D01*
X35614719Y-178277251D01*
X35611928Y-178280655D01*
X35605858Y-178287800D01*
X35564667Y-178336285D01*
X35561339Y-178342801D01*
X35557972Y-178347850D01*
X35554805Y-178352979D01*
X35550266Y-178358716D01*
X35519345Y-178424875D01*
X35517442Y-178428769D01*
X35484231Y-178493808D01*
X35482492Y-178500916D01*
X35480393Y-178506559D01*
X35478476Y-178512322D01*
X35475378Y-178518950D01*
X35473888Y-178526112D01*
X35473888Y-178526113D01*
X35460514Y-178590412D01*
X35459544Y-178594696D01*
X35442192Y-178665610D01*
X35441500Y-178676764D01*
X35441464Y-178676762D01*
X35441225Y-178680755D01*
X35440851Y-178684947D01*
X35439360Y-178692115D01*
X35439558Y-178699432D01*
X35441454Y-178769521D01*
X35441500Y-178772928D01*
X35441500Y-182169365D01*
X35421498Y-182237486D01*
X35367842Y-182283979D01*
X35297568Y-182294083D01*
X35232988Y-182264589D01*
X35221863Y-182253674D01*
X35215674Y-182246800D01*
X35211253Y-182241890D01*
X35056752Y-182129638D01*
X35050724Y-182126954D01*
X35050722Y-182126953D01*
X34888319Y-182054647D01*
X34888318Y-182054647D01*
X34882288Y-182051962D01*
X34875833Y-182050590D01*
X34875824Y-182050587D01*
X34819228Y-182038557D01*
X34756331Y-182004406D01*
X33513014Y-180761089D01*
X33500628Y-180746677D01*
X33492095Y-180735082D01*
X33492090Y-180735077D01*
X33487752Y-180729182D01*
X33482174Y-180724443D01*
X33482171Y-180724440D01*
X33447476Y-180694965D01*
X33439960Y-180688035D01*
X33434265Y-180682340D01*
X33419487Y-180670648D01*
X33411993Y-180664719D01*
X33408589Y-180661928D01*
X33358541Y-180619409D01*
X33358539Y-180619408D01*
X33352959Y-180614667D01*
X33346443Y-180611339D01*
X33341394Y-180607972D01*
X33336265Y-180604805D01*
X33330528Y-180600266D01*
X33264368Y-180569345D01*
X33260509Y-180567459D01*
X33259527Y-180566958D01*
X33207937Y-180518183D01*
X33190906Y-180449259D01*
X33213843Y-180382069D01*
X33238524Y-180355975D01*
X33243122Y-180352331D01*
X33249348Y-180348478D01*
X33374305Y-180223303D01*
X33378146Y-180217072D01*
X33463275Y-180078968D01*
X33463276Y-180078966D01*
X33467115Y-180072738D01*
X33522797Y-179904861D01*
X33533500Y-179800400D01*
X33533500Y-178799600D01*
X33531528Y-178780590D01*
X33523238Y-178700692D01*
X33523237Y-178700688D01*
X33522526Y-178693834D01*
X33520346Y-178687301D01*
X33520344Y-178687290D01*
X33515868Y-178673876D01*
X33513282Y-178602927D01*
X33549466Y-178541842D01*
X33612930Y-178510017D01*
X33635391Y-178507999D01*
X34001484Y-178507999D01*
X34006420Y-178507805D01*
X34034836Y-178505570D01*
X34047431Y-178503270D01*
X34193290Y-178460893D01*
X34207721Y-178454648D01*
X34337178Y-178378089D01*
X34349604Y-178368449D01*
X34455949Y-178262104D01*
X34465589Y-178249678D01*
X34542148Y-178120221D01*
X34548393Y-178105790D01*
X34587439Y-177971395D01*
X34587399Y-177957294D01*
X34580130Y-177954000D01*
X33222000Y-177954000D01*
X33153879Y-177933998D01*
X33107386Y-177880342D01*
X33096000Y-177828000D01*
X33096000Y-177634500D01*
X33116002Y-177566379D01*
X33169658Y-177519886D01*
X33222000Y-177508500D01*
X35602930Y-177508500D01*
X35621880Y-177509933D01*
X35636115Y-177512099D01*
X35636119Y-177512099D01*
X35643349Y-177513199D01*
X35650641Y-177512606D01*
X35650644Y-177512606D01*
X35696018Y-177508915D01*
X35706233Y-177508500D01*
X35714293Y-177508500D01*
X35727583Y-177506951D01*
X35742507Y-177505211D01*
X35746882Y-177504778D01*
X35812339Y-177499454D01*
X35812342Y-177499453D01*
X35819637Y-177498860D01*
X35826601Y-177496604D01*
X35832560Y-177495413D01*
X35838415Y-177494029D01*
X35845681Y-177493182D01*
X35914327Y-177468265D01*
X35918455Y-177466848D01*
X35980936Y-177446607D01*
X35980938Y-177446606D01*
X35987899Y-177444351D01*
X35994154Y-177440555D01*
X35999628Y-177438049D01*
X36005058Y-177435330D01*
X36011937Y-177432833D01*
X36072976Y-177392814D01*
X36076680Y-177390477D01*
X36139107Y-177352595D01*
X36147484Y-177345197D01*
X36147508Y-177345224D01*
X36150500Y-177342571D01*
X36153733Y-177339868D01*
X36159852Y-177335856D01*
X36213128Y-177279617D01*
X36215506Y-177277175D01*
X36514656Y-176978025D01*
X36576968Y-176943999D01*
X36647783Y-176949064D01*
G37*
G04 #@! TD.AperFunction*
G04 #@! TA.AperFunction,Conductor*
G36*
X27298621Y-177898502D02*
G01*
X27345114Y-177952158D01*
X27356500Y-178004500D01*
X27356500Y-178058134D01*
X27363255Y-178120316D01*
X27414385Y-178256705D01*
X27501739Y-178373261D01*
X27508919Y-178378642D01*
X27508920Y-178378643D01*
X27577308Y-178429897D01*
X27590838Y-178441628D01*
X28710115Y-179560905D01*
X28744141Y-179623217D01*
X28739076Y-179694032D01*
X28710115Y-179739095D01*
X28529095Y-179920115D01*
X28466783Y-179954141D01*
X28395968Y-179949076D01*
X28350905Y-179920115D01*
X27219710Y-178788920D01*
X27202898Y-178779740D01*
X27139650Y-178765980D01*
X27104225Y-178737224D01*
X26973177Y-178583787D01*
X26969969Y-178580031D01*
X26789416Y-178425824D01*
X26785208Y-178423245D01*
X26785202Y-178423241D01*
X26591183Y-178304346D01*
X26586963Y-178301760D01*
X26582393Y-178299867D01*
X26582389Y-178299865D01*
X26372167Y-178212789D01*
X26372165Y-178212788D01*
X26367594Y-178210895D01*
X26274795Y-178188616D01*
X26141524Y-178156620D01*
X26141518Y-178156619D01*
X26136711Y-178155465D01*
X25900000Y-178136835D01*
X25663289Y-178155465D01*
X25658482Y-178156619D01*
X25658476Y-178156620D01*
X25582602Y-178174836D01*
X25511694Y-178171289D01*
X25464093Y-178141412D01*
X25433770Y-178111089D01*
X25421383Y-178096676D01*
X25408509Y-178079182D01*
X25384243Y-178012461D01*
X25399901Y-177943212D01*
X25450512Y-177893422D01*
X25509991Y-177878500D01*
X27230500Y-177878500D01*
X27298621Y-177898502D01*
G37*
G04 #@! TD.AperFunction*
G04 #@! TA.AperFunction,Conductor*
G36*
X26380751Y-169555566D02*
G01*
X26405879Y-169599805D01*
X26416360Y-169632158D01*
X26420649Y-169645399D01*
X26424445Y-169651654D01*
X26424446Y-169651657D01*
X26509496Y-169791814D01*
X26509499Y-169791818D01*
X26512405Y-169796607D01*
X26516114Y-169800806D01*
X26516117Y-169800811D01*
X26518509Y-169803519D01*
X26519803Y-169804984D01*
X27004595Y-170289776D01*
X27038621Y-170352088D01*
X27041500Y-170378871D01*
X27041500Y-170515500D01*
X27021498Y-170583621D01*
X26967842Y-170630114D01*
X26915500Y-170641500D01*
X25758498Y-170641500D01*
X25756050Y-170641693D01*
X25756042Y-170641693D01*
X25727579Y-170643933D01*
X25727574Y-170643934D01*
X25721169Y-170644438D01*
X25628027Y-170671498D01*
X25569012Y-170688643D01*
X25569010Y-170688644D01*
X25561399Y-170690855D01*
X25554572Y-170694892D01*
X25554573Y-170694892D01*
X25425020Y-170771509D01*
X25425017Y-170771511D01*
X25418193Y-170775547D01*
X25300547Y-170893193D01*
X25296511Y-170900017D01*
X25296509Y-170900020D01*
X25232893Y-171007589D01*
X25215855Y-171036399D01*
X25213644Y-171044010D01*
X25213643Y-171044012D01*
X25210491Y-171054861D01*
X25169438Y-171196169D01*
X25168934Y-171202574D01*
X25168933Y-171202579D01*
X25166761Y-171230176D01*
X25166500Y-171233498D01*
X25166500Y-171666502D01*
X25169438Y-171703831D01*
X25188124Y-171768149D01*
X25203779Y-171822033D01*
X25215855Y-171863601D01*
X25219892Y-171870427D01*
X25296509Y-171999980D01*
X25296511Y-171999983D01*
X25300547Y-172006807D01*
X25418193Y-172124453D01*
X25425017Y-172128489D01*
X25425020Y-172128491D01*
X25464997Y-172152133D01*
X25561399Y-172209145D01*
X25569010Y-172211356D01*
X25569012Y-172211357D01*
X25576399Y-172213503D01*
X25721169Y-172255562D01*
X25727574Y-172256066D01*
X25727579Y-172256067D01*
X25756042Y-172258307D01*
X25756050Y-172258307D01*
X25758498Y-172258500D01*
X27066502Y-172258500D01*
X27068950Y-172258307D01*
X27068958Y-172258307D01*
X27097421Y-172256067D01*
X27097426Y-172256066D01*
X27103831Y-172255562D01*
X27110007Y-172253768D01*
X27110011Y-172253767D01*
X27248602Y-172213503D01*
X27283754Y-172208500D01*
X30330430Y-172208500D01*
X30349380Y-172209933D01*
X30363615Y-172212099D01*
X30363619Y-172212099D01*
X30370849Y-172213199D01*
X30378141Y-172212606D01*
X30378144Y-172212606D01*
X30423518Y-172208915D01*
X30433733Y-172208500D01*
X30441793Y-172208500D01*
X30455083Y-172206951D01*
X30470007Y-172205211D01*
X30474382Y-172204778D01*
X30539839Y-172199454D01*
X30539842Y-172199453D01*
X30547137Y-172198860D01*
X30554101Y-172196604D01*
X30560060Y-172195413D01*
X30565915Y-172194029D01*
X30573181Y-172193182D01*
X30641827Y-172168265D01*
X30645955Y-172166848D01*
X30691379Y-172152133D01*
X30730210Y-172146000D01*
X31525500Y-172146000D01*
X31593621Y-172166002D01*
X31640114Y-172219658D01*
X31651500Y-172272000D01*
X31651500Y-172528000D01*
X31631498Y-172596121D01*
X31577842Y-172642614D01*
X31525500Y-172654000D01*
X30395116Y-172654000D01*
X30379877Y-172658475D01*
X30378672Y-172659865D01*
X30377001Y-172667548D01*
X30377001Y-172897095D01*
X30377338Y-172903614D01*
X30387257Y-172999206D01*
X30390149Y-173012600D01*
X30441588Y-173166784D01*
X30447761Y-173179962D01*
X30533063Y-173317807D01*
X30542099Y-173329208D01*
X30656829Y-173443739D01*
X30668240Y-173452751D01*
X30806243Y-173537816D01*
X30819426Y-173543964D01*
X30915731Y-173575907D01*
X30974091Y-173616338D01*
X31001328Y-173681902D01*
X30988794Y-173751784D01*
X30940470Y-173803795D01*
X30876064Y-173821500D01*
X29999500Y-173821500D01*
X29931379Y-173801498D01*
X29884886Y-173747842D01*
X29873500Y-173695500D01*
X29873500Y-173641866D01*
X29866745Y-173579684D01*
X29815615Y-173443295D01*
X29728261Y-173326739D01*
X29611705Y-173239385D01*
X29475316Y-173188255D01*
X29460588Y-173186655D01*
X29458922Y-173186474D01*
X29393360Y-173159231D01*
X29352935Y-173100867D01*
X29350481Y-173029913D01*
X29383437Y-172972116D01*
X29393449Y-172962104D01*
X29403089Y-172949678D01*
X29479648Y-172820221D01*
X29485893Y-172805790D01*
X29524939Y-172671395D01*
X29524899Y-172657294D01*
X29517630Y-172654000D01*
X27063122Y-172654000D01*
X27049591Y-172657973D01*
X27048456Y-172665871D01*
X27089107Y-172805790D01*
X27095352Y-172820221D01*
X27171911Y-172949678D01*
X27181551Y-172962104D01*
X27287896Y-173068449D01*
X27300322Y-173078089D01*
X27429781Y-173154649D01*
X27434952Y-173156887D01*
X27489527Y-173202298D01*
X27510887Y-173270005D01*
X27492251Y-173338512D01*
X27485738Y-173348089D01*
X27414385Y-173443295D01*
X27363255Y-173579684D01*
X27356500Y-173641866D01*
X27356500Y-175518134D01*
X27363255Y-175580316D01*
X27414385Y-175716705D01*
X27419770Y-175723890D01*
X27419771Y-175723892D01*
X27457651Y-175774435D01*
X27482499Y-175840942D01*
X27467446Y-175910324D01*
X27457651Y-175925565D01*
X27443507Y-175944438D01*
X27414385Y-175983295D01*
X27363255Y-176119684D01*
X27356500Y-176181866D01*
X27356500Y-176235500D01*
X27336498Y-176303621D01*
X27282842Y-176350114D01*
X27230500Y-176361500D01*
X22847069Y-176361500D01*
X22828121Y-176360067D01*
X22820780Y-176358950D01*
X22813883Y-176357901D01*
X22813881Y-176357901D01*
X22806651Y-176356801D01*
X22799359Y-176357394D01*
X22799356Y-176357394D01*
X22753982Y-176361085D01*
X22743767Y-176361500D01*
X22735707Y-176361500D01*
X22722417Y-176363049D01*
X22707493Y-176364789D01*
X22703118Y-176365222D01*
X22637661Y-176370546D01*
X22637658Y-176370547D01*
X22630363Y-176371140D01*
X22623399Y-176373396D01*
X22617440Y-176374587D01*
X22611585Y-176375971D01*
X22604319Y-176376818D01*
X22535673Y-176401735D01*
X22531545Y-176403152D01*
X22469064Y-176423393D01*
X22469062Y-176423394D01*
X22462101Y-176425649D01*
X22455846Y-176429445D01*
X22450372Y-176431951D01*
X22444942Y-176434670D01*
X22438063Y-176437167D01*
X22377016Y-176477191D01*
X22373327Y-176479518D01*
X22356067Y-176489992D01*
X22315693Y-176514491D01*
X22315688Y-176514495D01*
X22310892Y-176517405D01*
X22302516Y-176524803D01*
X22302493Y-176524777D01*
X22299503Y-176527426D01*
X22296264Y-176530134D01*
X22290148Y-176534144D01*
X22285121Y-176539451D01*
X22285117Y-176539454D01*
X22236872Y-176590383D01*
X22234494Y-176592825D01*
X20794877Y-178032442D01*
X20732565Y-178066468D01*
X20661750Y-178061403D01*
X20612149Y-178027660D01*
X20561253Y-177971134D01*
X20441642Y-177884231D01*
X20412090Y-177862760D01*
X20412088Y-177862759D01*
X20406752Y-177858882D01*
X20405234Y-177858206D01*
X20357505Y-177808147D01*
X20343500Y-177750414D01*
X20343500Y-176181866D01*
X20336745Y-176119684D01*
X20285615Y-175983295D01*
X20256494Y-175944438D01*
X20242349Y-175925565D01*
X20217501Y-175859058D01*
X20232554Y-175789676D01*
X20242349Y-175774435D01*
X20280229Y-175723892D01*
X20280230Y-175723890D01*
X20285615Y-175716705D01*
X20336745Y-175580316D01*
X20343500Y-175518134D01*
X20343500Y-175464500D01*
X20363502Y-175396379D01*
X20417158Y-175349886D01*
X20469500Y-175338500D01*
X21952930Y-175338500D01*
X21971880Y-175339933D01*
X21986115Y-175342099D01*
X21986119Y-175342099D01*
X21993349Y-175343199D01*
X22000641Y-175342606D01*
X22000644Y-175342606D01*
X22046018Y-175338915D01*
X22056233Y-175338500D01*
X22064293Y-175338500D01*
X22077583Y-175336951D01*
X22092507Y-175335211D01*
X22096882Y-175334778D01*
X22162339Y-175329454D01*
X22162342Y-175329453D01*
X22169637Y-175328860D01*
X22176601Y-175326604D01*
X22182560Y-175325413D01*
X22188415Y-175324029D01*
X22195681Y-175323182D01*
X22264327Y-175298265D01*
X22268455Y-175296848D01*
X22330936Y-175276607D01*
X22330938Y-175276606D01*
X22337899Y-175274351D01*
X22344154Y-175270555D01*
X22349628Y-175268049D01*
X22355058Y-175265330D01*
X22361937Y-175262833D01*
X22422976Y-175222814D01*
X22426680Y-175220477D01*
X22489107Y-175182595D01*
X22497484Y-175175197D01*
X22497508Y-175175224D01*
X22500500Y-175172571D01*
X22503733Y-175169868D01*
X22509852Y-175165856D01*
X22563128Y-175109617D01*
X22565506Y-175107175D01*
X24088911Y-173583770D01*
X24103323Y-173571384D01*
X24114918Y-173562851D01*
X24114923Y-173562846D01*
X24120818Y-173558508D01*
X24125557Y-173552930D01*
X24125560Y-173552927D01*
X24155035Y-173518232D01*
X24161965Y-173510716D01*
X24167660Y-173505021D01*
X24172518Y-173498880D01*
X24185281Y-173482749D01*
X24188072Y-173479345D01*
X24230591Y-173429297D01*
X24230592Y-173429295D01*
X24235333Y-173423715D01*
X24238661Y-173417199D01*
X24242028Y-173412150D01*
X24245195Y-173407021D01*
X24249734Y-173401284D01*
X24280655Y-173335125D01*
X24282561Y-173331225D01*
X24286073Y-173324348D01*
X24315769Y-173266192D01*
X24317508Y-173259084D01*
X24319607Y-173253441D01*
X24321524Y-173247678D01*
X24324622Y-173241050D01*
X24339487Y-173169583D01*
X24340457Y-173165299D01*
X24355513Y-173103768D01*
X24357808Y-173094390D01*
X24358500Y-173083236D01*
X24358536Y-173083238D01*
X24358775Y-173079245D01*
X24359149Y-173075053D01*
X24360640Y-173067885D01*
X24358546Y-172990479D01*
X24358500Y-172987072D01*
X24358500Y-170881371D01*
X24378502Y-170813250D01*
X24395405Y-170792276D01*
X25606441Y-169581240D01*
X25668753Y-169547214D01*
X25720657Y-169546865D01*
X25753597Y-169553567D01*
X25758772Y-169553757D01*
X25758774Y-169553757D01*
X25971673Y-169561564D01*
X25971677Y-169561564D01*
X25976837Y-169561753D01*
X25981957Y-169561097D01*
X25981959Y-169561097D01*
X26054961Y-169551745D01*
X26198416Y-169533368D01*
X26249806Y-169517950D01*
X26320800Y-169517534D01*
X26380751Y-169555566D01*
G37*
G04 #@! TD.AperFunction*
G04 #@! TD*
M02*
