G04 #@! TF.GenerationSoftware,KiCad,Pcbnew,(6.0.11)*
G04 #@! TF.CreationDate,2025-10-01T23:51:27+02:00*
G04 #@! TF.ProjectId,PCB_Dongle_Linky,5043425f-446f-46e6-976c-655f4c696e6b,rev?*
G04 #@! TF.SameCoordinates,Original*
G04 #@! TF.FileFunction,Copper,L1,Top*
G04 #@! TF.FilePolarity,Positive*
%FSLAX46Y46*%
G04 Gerber Fmt 4.6, Leading zero omitted, Abs format (unit mm)*
G04 Created by KiCad (PCBNEW (6.0.11)) date 2025-10-01 23:51:27*
%MOMM*%
%LPD*%
G01*
G04 APERTURE LIST*
G04 Aperture macros list*
%AMRoundRect*
0 Rectangle with rounded corners*
0 $1 Rounding radius*
0 $2 $3 $4 $5 $6 $7 $8 $9 X,Y pos of 4 corners*
0 Add a 4 corners polygon primitive as box body*
4,1,4,$2,$3,$4,$5,$6,$7,$8,$9,$2,$3,0*
0 Add four circle primitives for the rounded corners*
1,1,$1+$1,$2,$3*
1,1,$1+$1,$4,$5*
1,1,$1+$1,$6,$7*
1,1,$1+$1,$8,$9*
0 Add four rect primitives between the rounded corners*
20,1,$1+$1,$2,$3,$4,$5,0*
20,1,$1+$1,$4,$5,$6,$7,0*
20,1,$1+$1,$6,$7,$8,$9,0*
20,1,$1+$1,$8,$9,$2,$3,0*%
G04 Aperture macros list end*
G04 #@! TA.AperFunction,ComponentPad*
%ADD10R,1.700000X1.700000*%
G04 #@! TD*
G04 #@! TA.AperFunction,ComponentPad*
%ADD11O,1.700000X1.700000*%
G04 #@! TD*
G04 #@! TA.AperFunction,SMDPad,CuDef*
%ADD12RoundRect,0.250000X0.262500X0.450000X-0.262500X0.450000X-0.262500X-0.450000X0.262500X-0.450000X0*%
G04 #@! TD*
G04 #@! TA.AperFunction,SMDPad,CuDef*
%ADD13R,2.500000X2.300000*%
G04 #@! TD*
G04 #@! TA.AperFunction,SMDPad,CuDef*
%ADD14R,1.000000X2.200000*%
G04 #@! TD*
G04 #@! TA.AperFunction,SMDPad,CuDef*
%ADD15R,3.400000X1.800000*%
G04 #@! TD*
G04 #@! TA.AperFunction,SMDPad,CuDef*
%ADD16RoundRect,0.150000X-0.150000X0.587500X-0.150000X-0.587500X0.150000X-0.587500X0.150000X0.587500X0*%
G04 #@! TD*
G04 #@! TA.AperFunction,SMDPad,CuDef*
%ADD17RoundRect,0.250000X0.450000X-0.262500X0.450000X0.262500X-0.450000X0.262500X-0.450000X-0.262500X0*%
G04 #@! TD*
G04 #@! TA.AperFunction,SMDPad,CuDef*
%ADD18RoundRect,0.250000X-0.250000X-0.475000X0.250000X-0.475000X0.250000X0.475000X-0.250000X0.475000X0*%
G04 #@! TD*
G04 #@! TA.AperFunction,ComponentPad*
%ADD19C,2.000000*%
G04 #@! TD*
G04 #@! TA.AperFunction,SMDPad,CuDef*
%ADD20RoundRect,0.250000X-0.450000X0.262500X-0.450000X-0.262500X0.450000X-0.262500X0.450000X0.262500X0*%
G04 #@! TD*
G04 #@! TA.AperFunction,SMDPad,CuDef*
%ADD21RoundRect,0.250000X-0.262500X-0.450000X0.262500X-0.450000X0.262500X0.450000X-0.262500X0.450000X0*%
G04 #@! TD*
G04 #@! TA.AperFunction,ViaPad*
%ADD22C,0.800000*%
G04 #@! TD*
G04 #@! TA.AperFunction,Conductor*
%ADD23C,0.500000*%
G04 #@! TD*
G04 #@! TA.AperFunction,Conductor*
%ADD24C,0.300000*%
G04 #@! TD*
G04 APERTURE END LIST*
D10*
G04 #@! TO.P,J0,1,Pin_1*
G04 #@! TO.N,I1*
X20835000Y-168200000D03*
D11*
G04 #@! TO.P,J0,2,Pin_2*
G04 #@! TO.N,unconnected-(J0-Pad2)*
X23375000Y-168200000D03*
G04 #@! TO.P,J0,3,Pin_3*
G04 #@! TO.N,I2*
X25915000Y-168200000D03*
G04 #@! TO.P,J0,4,Pin_4*
G04 #@! TO.N,unconnected-(J0-Pad4)*
X28455000Y-168200000D03*
G04 #@! TO.P,J0,5,Pin_5*
G04 #@! TO.N,A*
X30995000Y-168200000D03*
G04 #@! TD*
D12*
G04 #@! TO.P,R4,1*
G04 #@! TO.N,Net-(J1-Pad2)*
X21625000Y-181350000D03*
G04 #@! TO.P,R4,2*
G04 #@! TO.N,+BATT*
X19800000Y-181350000D03*
G04 #@! TD*
D13*
G04 #@! TO.P,D4,1,K*
G04 #@! TO.N,I1*
X28650000Y-176200000D03*
G04 #@! TO.P,D4,2,A*
G04 #@! TO.N,GND*
X32950000Y-176200000D03*
G04 #@! TD*
G04 #@! TO.P,D1,1,K*
G04 #@! TO.N,+BATT*
X21000000Y-171900000D03*
G04 #@! TO.P,D1,2,A*
G04 #@! TO.N,A*
X25300000Y-171900000D03*
G04 #@! TD*
D14*
G04 #@! TO.P,U4,1,EN*
G04 #@! TO.N,Net-(Q2-Pad3)*
X24150000Y-183850000D03*
G04 #@! TO.P,U4,2,IN*
G04 #@! TO.N,+BATT*
X22650000Y-183850000D03*
G04 #@! TO.P,U4,3,OUT*
G04 #@! TO.N,VBUS*
X21150000Y-183850000D03*
G04 #@! TO.P,U4,4,Error*
G04 #@! TO.N,GND*
X19650000Y-183850000D03*
D15*
G04 #@! TO.P,U4,5,GND*
X21900000Y-190150000D03*
G04 #@! TD*
D16*
G04 #@! TO.P,Q2,1,G*
G04 #@! TO.N,Net-(Q2-Pad1)*
X35050000Y-184812500D03*
G04 #@! TO.P,Q2,2,S*
G04 #@! TO.N,GND*
X33150000Y-184812500D03*
G04 #@! TO.P,Q2,3,D*
G04 #@! TO.N,Net-(Q2-Pad3)*
X34100000Y-186687500D03*
G04 #@! TD*
D10*
G04 #@! TO.P,J2,1,Pin_1*
G04 #@! TO.N,unconnected-(J2-Pad1)*
X38080000Y-171800000D03*
D11*
G04 #@! TO.P,J2,2,Pin_2*
G04 #@! TO.N,Net-(J1-Pad6)*
X38080000Y-174340000D03*
G04 #@! TO.P,J2,3,Pin_3*
G04 #@! TO.N,Net-(J2-Pad3)*
X38080000Y-176880000D03*
G04 #@! TO.P,J2,4,Pin_4*
G04 #@! TO.N,Net-(J2-Pad4)*
X38080000Y-179420000D03*
G04 #@! TO.P,J2,5,Pin_5*
G04 #@! TO.N,unconnected-(J2-Pad5)*
X38080000Y-181960000D03*
G04 #@! TO.P,J2,6,Pin_6*
G04 #@! TO.N,unconnected-(J2-Pad6)*
X38080000Y-184500000D03*
G04 #@! TO.P,J2,7,Pin_7*
G04 #@! TO.N,GND*
X38080000Y-187040000D03*
G04 #@! TO.P,J2,8,Pin_8*
G04 #@! TO.N,Net-(J2-Pad8)*
X38080000Y-189580000D03*
G04 #@! TD*
D10*
G04 #@! TO.P,J1,1,Pin_1*
G04 #@! TO.N,Net-(J1-Pad1)*
X15560000Y-171800000D03*
D11*
G04 #@! TO.P,J1,2,Pin_2*
G04 #@! TO.N,Net-(J1-Pad2)*
X15560000Y-174340000D03*
G04 #@! TO.P,J1,3,Pin_3*
G04 #@! TO.N,Net-(J1-Pad1)*
X15560000Y-176880000D03*
G04 #@! TO.P,J1,4,Pin_4*
G04 #@! TO.N,Net-(J1-Pad4)*
X15560000Y-179420000D03*
G04 #@! TO.P,J1,5,Pin_5*
G04 #@! TO.N,Net-(J1-Pad5)*
X15560000Y-181960000D03*
G04 #@! TO.P,J1,6,Pin_6*
G04 #@! TO.N,Net-(J1-Pad6)*
X15560000Y-184500000D03*
G04 #@! TO.P,J1,7,Pin_7*
G04 #@! TO.N,unconnected-(J1-Pad7)*
X15560000Y-187040000D03*
G04 #@! TO.P,J1,8,Pin_8*
G04 #@! TO.N,VBUS*
X15560000Y-189580000D03*
G04 #@! TD*
D10*
G04 #@! TO.P,J4,1,Pin_1*
G04 #@! TO.N,Net-(J1-Pad4)*
X21320000Y-192700000D03*
D11*
G04 #@! TO.P,J4,2,Pin_2*
G04 #@! TO.N,+3.3V*
X23860000Y-192700000D03*
G04 #@! TO.P,J4,3,Pin_3*
G04 #@! TO.N,GND*
X26400000Y-192700000D03*
G04 #@! TO.P,J4,4,Pin_4*
G04 #@! TO.N,Net-(J1-Pad2)*
X28940000Y-192700000D03*
G04 #@! TO.P,J4,5,Pin_5*
G04 #@! TO.N,Net-(J4-Pad5)*
X31480000Y-192700000D03*
G04 #@! TD*
D17*
G04 #@! TO.P,R10,1*
G04 #@! TO.N,Net-(J1-Pad5)*
X18150000Y-171262500D03*
G04 #@! TO.P,R10,2*
G04 #@! TO.N,Net-(Q3-Pad1)*
X18150000Y-169437500D03*
G04 #@! TD*
D13*
G04 #@! TO.P,D3,1,K*
G04 #@! TO.N,+BATT*
X21000000Y-176250000D03*
G04 #@! TO.P,D3,2,A*
G04 #@! TO.N,I1*
X25300000Y-176250000D03*
G04 #@! TD*
D12*
G04 #@! TO.P,R5,1*
G04 #@! TO.N,GND*
X33175000Y-181800000D03*
G04 #@! TO.P,R5,2*
G04 #@! TO.N,Net-(J1-Pad2)*
X31350000Y-181800000D03*
G04 #@! TD*
D18*
G04 #@! TO.P,C4,1*
G04 #@! TO.N,VBUS*
X14750000Y-192850000D03*
G04 #@! TO.P,C4,2*
G04 #@! TO.N,GND*
X16650000Y-192850000D03*
G04 #@! TD*
D19*
G04 #@! TO.P,C1,1*
G04 #@! TO.N,+BATT*
X25900000Y-179650000D03*
G04 #@! TO.P,C1,2*
G04 #@! TO.N,GND*
X28440000Y-179650000D03*
G04 #@! TD*
D20*
G04 #@! TO.P,R11,1*
G04 #@! TO.N,Net-(J1-Pad5)*
X18200000Y-189837500D03*
G04 #@! TO.P,R11,2*
G04 #@! TO.N,GND*
X18200000Y-191662500D03*
G04 #@! TD*
D12*
G04 #@! TO.P,R7,1*
G04 #@! TO.N,Net-(J2-Pad4)*
X35762500Y-179400000D03*
G04 #@! TO.P,R7,2*
G04 #@! TO.N,GND*
X33937500Y-179400000D03*
G04 #@! TD*
D21*
G04 #@! TO.P,R15,1*
G04 #@! TO.N,+BATT*
X30250000Y-189200000D03*
G04 #@! TO.P,R15,2*
G04 #@! TO.N,Net-(Q2-Pad3)*
X32075000Y-189200000D03*
G04 #@! TD*
G04 #@! TO.P,R8,1*
G04 #@! TO.N,Net-(J2-Pad8)*
X37125000Y-192550000D03*
G04 #@! TO.P,R8,2*
G04 #@! TO.N,Net-(J2-Pad4)*
X38950000Y-192550000D03*
G04 #@! TD*
D13*
G04 #@! TO.P,D2,1,K*
G04 #@! TO.N,A*
X28650000Y-171850000D03*
G04 #@! TO.P,D2,2,A*
G04 #@! TO.N,GND*
X32950000Y-171850000D03*
G04 #@! TD*
D22*
G04 #@! TO.N,Net-(Q3-Pad1)*
X18250000Y-168000000D03*
G04 #@! TO.N,GND*
X33600000Y-191800000D03*
X18900000Y-186500000D03*
X34750000Y-177850000D03*
X21700000Y-189650000D03*
X31382265Y-173317735D03*
G04 #@! TO.N,+3.3V*
X24600000Y-186450000D03*
X27003100Y-184636946D03*
G04 #@! TO.N,Net-(Q2-Pad1)*
X34600000Y-182920756D03*
G04 #@! TO.N,Net-(J1-Pad4)*
X23000000Y-188450000D03*
X27550000Y-188200000D03*
X13350000Y-184050000D03*
G04 #@! TO.N,Net-(Q2-Pad3)*
X29700000Y-184100000D03*
X31450000Y-185300000D03*
G04 #@! TO.N,Net-(J1-Pad5)*
X17350000Y-189200000D03*
G04 #@! TO.N,+BATT*
X29150000Y-181750000D03*
G04 #@! TO.N,VBUS*
X21150000Y-186000000D03*
G04 #@! TO.N,Net-(J1-Pad2)*
X26250000Y-182050000D03*
X19950000Y-178650000D03*
X24700000Y-181000000D03*
X32567499Y-187932227D03*
G04 #@! TO.N,Net-(J2-Pad3)*
X30450000Y-190499500D03*
X35955500Y-183723910D03*
G04 #@! TD*
D23*
G04 #@! TO.N,Net-(J1-Pad1)*
X14650000Y-171800000D02*
X15560000Y-171800000D01*
G04 #@! TO.N,GND*
X18900000Y-186000000D02*
X19650000Y-185250000D01*
X18900000Y-186500000D02*
X18900000Y-186000000D01*
X19650000Y-185250000D02*
X19650000Y-183850000D01*
X32850000Y-171850000D02*
X33250000Y-171850000D01*
X31382265Y-173317735D02*
X32850000Y-171850000D01*
X36650000Y-184231492D02*
X36650000Y-185610000D01*
X36805500Y-184075992D02*
X36650000Y-184231492D01*
X36805500Y-183371828D02*
X36805500Y-184075992D01*
X35233672Y-181800000D02*
X36805500Y-183371828D01*
X36650000Y-185610000D02*
X38080000Y-187040000D01*
X33175000Y-181800000D02*
X35233672Y-181800000D01*
G04 #@! TO.N,Net-(J1-Pad2)*
X30550000Y-186050000D02*
X30550000Y-183250000D01*
X30550000Y-183250000D02*
X30450000Y-183150000D01*
X32567499Y-187932227D02*
X32432227Y-187932227D01*
X32432227Y-187932227D02*
X30550000Y-186050000D01*
G04 #@! TO.N,Net-(J1-Pad5)*
X17987500Y-189837500D02*
X18200000Y-189837500D01*
X17350000Y-189200000D02*
X17987500Y-189837500D01*
G04 #@! TO.N,Net-(Q3-Pad1)*
X18250000Y-168800000D02*
X18250000Y-168000000D01*
G04 #@! TO.N,Net-(J1-Pad5)*
X17800000Y-171612500D02*
X18150000Y-171262500D01*
X15560000Y-181960000D02*
X17800000Y-179720000D01*
X17800000Y-179720000D02*
X17800000Y-171612500D01*
G04 #@! TO.N,+BATT*
X25950000Y-179650000D02*
X25900000Y-179650000D01*
X28050000Y-181750000D02*
X25950000Y-179650000D01*
X29150000Y-181750000D02*
X28050000Y-181750000D01*
G04 #@! TO.N,Net-(Q2-Pad1)*
X34650000Y-184412500D02*
X35050000Y-184812500D01*
X34650000Y-182970756D02*
X34650000Y-184412500D01*
X34600000Y-182920756D02*
X34650000Y-182970756D01*
G04 #@! TO.N,Net-(J2-Pad3)*
X30499500Y-190450000D02*
X30450000Y-190499500D01*
X33750000Y-190450000D02*
X30499500Y-190450000D01*
X35800000Y-183976472D02*
X35800000Y-188400000D01*
X35955500Y-183723910D02*
X35955500Y-183820972D01*
X35955500Y-183820972D02*
X35800000Y-183976472D01*
X35800000Y-188400000D02*
X33750000Y-190450000D01*
G04 #@! TO.N,GND*
X26400000Y-192700000D02*
X27750000Y-194050000D01*
X27750000Y-194050000D02*
X33100000Y-194050000D01*
X33100000Y-194050000D02*
X33175000Y-193975000D01*
X33600000Y-191800000D02*
X33600000Y-193550000D01*
X33175000Y-193975000D02*
X33875000Y-193975000D01*
X33600000Y-193550000D02*
X33175000Y-193975000D01*
X18200000Y-191662500D02*
X17837500Y-191662500D01*
X32750000Y-181375000D02*
X32750000Y-179250000D01*
X18887500Y-191662500D02*
X20400000Y-190150000D01*
X36500000Y-187800000D02*
X37260000Y-187040000D01*
X21900000Y-190150000D02*
X25000000Y-190150000D01*
X26400000Y-191550000D02*
X26400000Y-192700000D01*
X33250000Y-171850000D02*
X33250000Y-175700000D01*
X21700000Y-189650000D02*
X21700000Y-189950000D01*
X33875000Y-193975000D02*
X36500000Y-191350000D01*
X33150000Y-184812500D02*
X33150000Y-181825000D01*
X25000000Y-190150000D02*
X26175000Y-191325000D01*
X34400000Y-177850000D02*
X32750000Y-176200000D01*
X32350000Y-179650000D02*
X32750000Y-179250000D01*
X38080000Y-187040000D02*
X37315000Y-187040000D01*
X34750000Y-177850000D02*
X34400000Y-177850000D01*
X17837500Y-191662500D02*
X16650000Y-192850000D01*
X21700000Y-189950000D02*
X21900000Y-190150000D01*
X20400000Y-190150000D02*
X21900000Y-190150000D01*
X18200000Y-191662500D02*
X18887500Y-191662500D01*
X36500000Y-191350000D02*
X36500000Y-187800000D01*
X32900000Y-179400000D02*
X32750000Y-179250000D01*
X37260000Y-187040000D02*
X38080000Y-187040000D01*
X34750000Y-177850000D02*
X34750000Y-178587500D01*
X32750000Y-179250000D02*
X32750000Y-176200000D01*
X34750000Y-178587500D02*
X33937500Y-179400000D01*
X33937500Y-179400000D02*
X32900000Y-179400000D01*
X26175000Y-191325000D02*
X26400000Y-191550000D01*
X33250000Y-175700000D02*
X32750000Y-176200000D01*
X28440000Y-179650000D02*
X32350000Y-179650000D01*
X33175000Y-181800000D02*
X32750000Y-181375000D01*
X33150000Y-181825000D02*
X33175000Y-181800000D01*
G04 #@! TO.N,A*
X28950000Y-171850000D02*
X25350000Y-171850000D01*
X30995000Y-169805000D02*
X30995000Y-168200000D01*
X25350000Y-171850000D02*
X25300000Y-171900000D01*
X30995000Y-169805000D02*
X28950000Y-171850000D01*
G04 #@! TO.N,I1*
X24750000Y-176250000D02*
X25300000Y-176250000D01*
X25350000Y-176200000D02*
X25300000Y-176250000D01*
X23050000Y-174550000D02*
X24750000Y-176250000D01*
X28450000Y-176200000D02*
X25350000Y-176200000D01*
X23050000Y-169750000D02*
X23050000Y-174550000D01*
X20835000Y-168200000D02*
X21500000Y-168200000D01*
X21500000Y-168200000D02*
X23050000Y-169750000D01*
G04 #@! TO.N,+3.3V*
X27003100Y-184636946D02*
X25190046Y-186450000D01*
X25190046Y-186450000D02*
X24600000Y-186450000D01*
G04 #@! TO.N,Net-(Q3-Pad1)*
X18150000Y-169437500D02*
X18150000Y-168900000D01*
X18250000Y-168800000D02*
X18150000Y-168900000D01*
G04 #@! TO.N,Net-(J1-Pad4)*
X12950000Y-188300000D02*
X12950000Y-184450000D01*
X19870000Y-194150000D02*
X13650000Y-194150000D01*
X12950000Y-193450000D02*
X12950000Y-188300000D01*
X12950000Y-184450000D02*
X13350000Y-184050000D01*
X13650000Y-194150000D02*
X12950000Y-193450000D01*
X21320000Y-192700000D02*
X19870000Y-194150000D01*
X27550000Y-188200000D02*
X27300000Y-188450000D01*
X27300000Y-188450000D02*
X23000000Y-188450000D01*
G04 #@! TO.N,Net-(Q2-Pad3)*
X34100000Y-186687500D02*
X32837500Y-186687500D01*
X32750000Y-189200000D02*
X34100000Y-187850000D01*
X32075000Y-189200000D02*
X32750000Y-189200000D01*
X32837500Y-186687500D02*
X31450000Y-185300000D01*
D24*
X24150000Y-183850000D02*
X28600000Y-183850000D01*
D23*
X29450000Y-183850000D02*
X29700000Y-184100000D01*
X28600000Y-183850000D02*
X29450000Y-183850000D01*
X34100000Y-187850000D02*
X34100000Y-186687500D01*
G04 #@! TO.N,Net-(J1-Pad6)*
X15560000Y-184500000D02*
X12800000Y-181740000D01*
X14075000Y-166825000D02*
X38975000Y-166825000D01*
X39900000Y-167750000D02*
X39900000Y-173700000D01*
X39260000Y-174340000D02*
X38080000Y-174340000D01*
X38975000Y-166825000D02*
X39900000Y-167750000D01*
X39900000Y-173700000D02*
X39260000Y-174340000D01*
X12800000Y-181740000D02*
X12800000Y-168100000D01*
X12800000Y-168100000D02*
X14075000Y-166825000D01*
G04 #@! TO.N,Net-(J2-Pad8)*
X38080000Y-191595000D02*
X37125000Y-192550000D01*
X38080000Y-189580000D02*
X38080000Y-191595000D01*
G04 #@! TO.N,Net-(J1-Pad1)*
X14650000Y-171800000D02*
X13800000Y-172650000D01*
X13800000Y-172650000D02*
X13800000Y-175120000D01*
X15560000Y-171800000D02*
X15950000Y-171800000D01*
X13800000Y-175120000D02*
X15560000Y-176880000D01*
G04 #@! TO.N,+BATT*
X24400000Y-179650000D02*
X21000000Y-176250000D01*
X22650000Y-186300000D02*
X22650000Y-183850000D01*
X23900000Y-187550000D02*
X22650000Y-186300000D01*
X25900000Y-181050000D02*
X25900000Y-179650000D01*
X22650000Y-182900000D02*
X23500000Y-182050000D01*
X22650000Y-183850000D02*
X22650000Y-182900000D01*
X30250000Y-189200000D02*
X28300000Y-187250000D01*
X21000000Y-171900000D02*
X21000000Y-176250000D01*
X24850000Y-187550000D02*
X23900000Y-187550000D01*
X19050000Y-180600000D02*
X19050000Y-178200000D01*
X25900000Y-179650000D02*
X24400000Y-179650000D01*
X19800000Y-181350000D02*
X19050000Y-180600000D01*
X19050000Y-178200000D02*
X21000000Y-176250000D01*
X23500000Y-182050000D02*
X24900000Y-182050000D01*
X28300000Y-187250000D02*
X25150000Y-187250000D01*
X24900000Y-182050000D02*
X25900000Y-181050000D01*
X25150000Y-187250000D02*
X24850000Y-187550000D01*
G04 #@! TO.N,VBUS*
X14750000Y-191650000D02*
X14750000Y-192850000D01*
X15560000Y-190840000D02*
X14750000Y-191650000D01*
X21150000Y-186000000D02*
X18800000Y-188350000D01*
X18800000Y-188350000D02*
X16790000Y-188350000D01*
X21150000Y-186000000D02*
X21150000Y-183850000D01*
X15560000Y-189580000D02*
X15560000Y-190840000D01*
X16790000Y-188350000D02*
X15560000Y-189580000D01*
G04 #@! TO.N,Net-(J1-Pad2)*
X24350000Y-181350000D02*
X24700000Y-181000000D01*
X21625000Y-181350000D02*
X21625000Y-180325000D01*
X27350000Y-183150000D02*
X30450000Y-183150000D01*
X21625000Y-181350000D02*
X24350000Y-181350000D01*
X31350000Y-182250000D02*
X31350000Y-181800000D01*
X26250000Y-182050000D02*
X27350000Y-183150000D01*
X30450000Y-183150000D02*
X31350000Y-182250000D01*
X21625000Y-180325000D02*
X19950000Y-178650000D01*
G04 #@! TO.N,Net-(J2-Pad4)*
X38950000Y-192550000D02*
X40100000Y-191400000D01*
X38060000Y-179400000D02*
X38080000Y-179420000D01*
X35762500Y-179400000D02*
X38060000Y-179400000D01*
X40100000Y-181440000D02*
X38080000Y-179420000D01*
X40100000Y-191400000D02*
X40100000Y-181440000D01*
G04 #@! TD*
G04 #@! TA.AperFunction,Conductor*
G04 #@! TO.N,GND*
G36*
X27751751Y-193374678D02*
G01*
X27779579Y-193406511D01*
X27839987Y-193505088D01*
X27986250Y-193673938D01*
X28041938Y-193720171D01*
X28081573Y-193779073D01*
X28083071Y-193850054D01*
X28045956Y-193910577D01*
X27982012Y-193941426D01*
X27961453Y-193943115D01*
X27381446Y-193943115D01*
X27313325Y-193923113D01*
X27266832Y-193869457D01*
X27256728Y-193799183D01*
X27286222Y-193734603D01*
X27292506Y-193727864D01*
X27434057Y-193586805D01*
X27440730Y-193578965D01*
X27568022Y-193401819D01*
X27569279Y-193402722D01*
X27616373Y-193359362D01*
X27686311Y-193347145D01*
X27751751Y-193374678D01*
G37*
G04 #@! TD.AperFunction*
G04 #@! TA.AperFunction,Conductor*
G36*
X36767012Y-187452721D02*
G01*
X36801243Y-187500541D01*
X36861770Y-187649603D01*
X36866413Y-187658794D01*
X36977694Y-187840388D01*
X36983777Y-187848699D01*
X37123213Y-188009667D01*
X37130580Y-188016883D01*
X37294434Y-188152916D01*
X37302881Y-188158831D01*
X37371969Y-188199203D01*
X37420693Y-188250842D01*
X37433764Y-188320625D01*
X37407033Y-188386396D01*
X37366584Y-188419752D01*
X37353607Y-188426507D01*
X37349474Y-188429610D01*
X37349471Y-188429612D01*
X37278048Y-188483238D01*
X37174965Y-188560635D01*
X37128202Y-188609570D01*
X37025291Y-188717260D01*
X37020629Y-188722138D01*
X37017715Y-188726410D01*
X37017714Y-188726411D01*
X36969783Y-188796676D01*
X36894743Y-188906680D01*
X36864951Y-188970861D01*
X36804705Y-189100652D01*
X36800688Y-189109305D01*
X36740989Y-189324570D01*
X36717251Y-189546695D01*
X36730110Y-189769715D01*
X36731247Y-189774761D01*
X36731248Y-189774767D01*
X36755304Y-189881508D01*
X36779222Y-189987639D01*
X36863266Y-190194616D01*
X36979987Y-190385088D01*
X37126250Y-190553938D01*
X37275985Y-190678250D01*
X37315620Y-190737152D01*
X37321500Y-190775194D01*
X37321500Y-191215500D01*
X37301498Y-191283621D01*
X37247842Y-191330114D01*
X37195500Y-191341500D01*
X36812100Y-191341500D01*
X36808854Y-191341837D01*
X36808850Y-191341837D01*
X36713192Y-191351762D01*
X36713188Y-191351763D01*
X36706334Y-191352474D01*
X36699798Y-191354655D01*
X36699796Y-191354655D01*
X36620349Y-191381161D01*
X36538554Y-191408450D01*
X36388152Y-191501522D01*
X36382979Y-191506704D01*
X36327263Y-191562517D01*
X36263195Y-191626697D01*
X36259355Y-191632927D01*
X36259354Y-191632928D01*
X36193549Y-191739684D01*
X36170385Y-191777262D01*
X36163351Y-191798469D01*
X36118194Y-191934615D01*
X36114703Y-191945139D01*
X36114003Y-191951975D01*
X36114002Y-191951978D01*
X36109591Y-191995031D01*
X36104000Y-192049600D01*
X36104000Y-193050400D01*
X36104337Y-193053646D01*
X36104337Y-193053650D01*
X36112863Y-193135819D01*
X36114974Y-193156166D01*
X36117155Y-193162702D01*
X36117155Y-193162704D01*
X36130202Y-193201811D01*
X36170950Y-193323946D01*
X36264022Y-193474348D01*
X36389197Y-193599305D01*
X36395427Y-193603145D01*
X36395428Y-193603146D01*
X36532590Y-193687694D01*
X36539762Y-193692115D01*
X36551047Y-193695858D01*
X36556063Y-193697522D01*
X36614424Y-193737952D01*
X36641661Y-193803516D01*
X36629128Y-193873398D01*
X36580804Y-193925410D01*
X36516397Y-193943115D01*
X32462156Y-193943115D01*
X32394035Y-193923113D01*
X32347542Y-193869457D01*
X32337438Y-193799183D01*
X32366932Y-193734603D01*
X32373216Y-193727864D01*
X32499187Y-193602332D01*
X32518096Y-193583489D01*
X32569656Y-193511736D01*
X32645435Y-193406277D01*
X32648453Y-193402077D01*
X32653681Y-193391500D01*
X32745136Y-193206453D01*
X32745137Y-193206451D01*
X32747430Y-193201811D01*
X32794425Y-193047134D01*
X32810865Y-192993023D01*
X32810865Y-192993021D01*
X32812370Y-192988069D01*
X32841529Y-192766590D01*
X32843156Y-192700000D01*
X32824852Y-192477361D01*
X32770431Y-192260702D01*
X32681354Y-192055840D01*
X32602930Y-191934615D01*
X32562822Y-191872617D01*
X32562820Y-191872614D01*
X32560014Y-191868277D01*
X32409670Y-191703051D01*
X32405619Y-191699852D01*
X32405615Y-191699848D01*
X32238414Y-191567800D01*
X32238410Y-191567798D01*
X32234359Y-191564598D01*
X32208196Y-191550155D01*
X32179836Y-191534500D01*
X32038789Y-191456638D01*
X32033624Y-191454809D01*
X32029285Y-191453272D01*
X31971750Y-191411677D01*
X31945835Y-191345579D01*
X31959770Y-191275964D01*
X32009129Y-191224933D01*
X32071347Y-191208500D01*
X33682930Y-191208500D01*
X33701880Y-191209933D01*
X33716115Y-191212099D01*
X33716119Y-191212099D01*
X33723349Y-191213199D01*
X33730641Y-191212606D01*
X33730644Y-191212606D01*
X33776018Y-191208915D01*
X33786233Y-191208500D01*
X33794293Y-191208500D01*
X33807583Y-191206951D01*
X33822507Y-191205211D01*
X33826882Y-191204778D01*
X33892339Y-191199454D01*
X33892342Y-191199453D01*
X33899637Y-191198860D01*
X33906601Y-191196604D01*
X33912560Y-191195413D01*
X33918415Y-191194029D01*
X33925681Y-191193182D01*
X33994327Y-191168265D01*
X33998455Y-191166848D01*
X34060936Y-191146607D01*
X34060938Y-191146606D01*
X34067899Y-191144351D01*
X34074154Y-191140555D01*
X34079628Y-191138049D01*
X34085058Y-191135330D01*
X34091937Y-191132833D01*
X34107356Y-191122724D01*
X34152976Y-191092814D01*
X34156680Y-191090477D01*
X34219107Y-191052595D01*
X34227484Y-191045197D01*
X34227508Y-191045224D01*
X34230500Y-191042571D01*
X34233733Y-191039868D01*
X34239852Y-191035856D01*
X34293128Y-190979617D01*
X34295506Y-190977175D01*
X36288911Y-188983770D01*
X36303323Y-188971384D01*
X36314918Y-188962851D01*
X36314923Y-188962846D01*
X36320818Y-188958508D01*
X36325557Y-188952930D01*
X36325560Y-188952927D01*
X36355035Y-188918232D01*
X36361965Y-188910716D01*
X36367661Y-188905020D01*
X36369924Y-188902159D01*
X36369929Y-188902154D01*
X36385293Y-188882734D01*
X36388082Y-188879333D01*
X36392651Y-188873955D01*
X36435333Y-188823715D01*
X36438659Y-188817202D01*
X36442020Y-188812163D01*
X36445196Y-188807021D01*
X36449734Y-188801284D01*
X36480655Y-188735125D01*
X36482561Y-188731225D01*
X36495015Y-188706836D01*
X36515769Y-188666192D01*
X36517508Y-188659083D01*
X36519604Y-188653449D01*
X36521523Y-188647679D01*
X36524622Y-188641050D01*
X36539491Y-188569565D01*
X36540461Y-188565282D01*
X36557808Y-188494390D01*
X36558500Y-188483236D01*
X36558535Y-188483238D01*
X36558775Y-188479266D01*
X36559152Y-188475045D01*
X36560641Y-188467885D01*
X36558546Y-188390456D01*
X36558500Y-188387048D01*
X36558500Y-187547945D01*
X36578502Y-187479824D01*
X36632158Y-187433331D01*
X36702432Y-187423227D01*
X36767012Y-187452721D01*
G37*
G04 #@! TD.AperFunction*
G04 #@! TA.AperFunction,Conductor*
G36*
X21916467Y-186616565D02*
G01*
X21975451Y-186656080D01*
X21984039Y-186667671D01*
X22001934Y-186694965D01*
X22007187Y-186702977D01*
X22009523Y-186706680D01*
X22047405Y-186769107D01*
X22051121Y-186773315D01*
X22051122Y-186773316D01*
X22054803Y-186777484D01*
X22054776Y-186777508D01*
X22057429Y-186780500D01*
X22060132Y-186783733D01*
X22064144Y-186789852D01*
X22069456Y-186794884D01*
X22120383Y-186843128D01*
X22122825Y-186845506D01*
X22685510Y-187408191D01*
X22719536Y-187470503D01*
X22714471Y-187541318D01*
X22671924Y-187598154D01*
X22647664Y-187612393D01*
X22549278Y-187656197D01*
X22549276Y-187656198D01*
X22543248Y-187658882D01*
X22388747Y-187771134D01*
X22384326Y-187776044D01*
X22384325Y-187776045D01*
X22289993Y-187880812D01*
X22260960Y-187913056D01*
X22165473Y-188078444D01*
X22106458Y-188260072D01*
X22105768Y-188266633D01*
X22105768Y-188266635D01*
X22096068Y-188358925D01*
X22086496Y-188450000D01*
X22087186Y-188456565D01*
X22100525Y-188583475D01*
X22106458Y-188639928D01*
X22136753Y-188733166D01*
X22147833Y-188767266D01*
X22154000Y-188806202D01*
X22154000Y-189877885D01*
X22158475Y-189893124D01*
X22159865Y-189894329D01*
X22167548Y-189896000D01*
X24089884Y-189896000D01*
X24105123Y-189891525D01*
X24106328Y-189890135D01*
X24107999Y-189882452D01*
X24107999Y-189334500D01*
X24128001Y-189266379D01*
X24181657Y-189219886D01*
X24233999Y-189208500D01*
X27232930Y-189208500D01*
X27251880Y-189209933D01*
X27266115Y-189212099D01*
X27266119Y-189212099D01*
X27273349Y-189213199D01*
X27280641Y-189212606D01*
X27280644Y-189212606D01*
X27326018Y-189208915D01*
X27336233Y-189208500D01*
X27344293Y-189208500D01*
X27357583Y-189206951D01*
X27372507Y-189205211D01*
X27376882Y-189204778D01*
X27442339Y-189199454D01*
X27442342Y-189199453D01*
X27449637Y-189198860D01*
X27456601Y-189196604D01*
X27462560Y-189195413D01*
X27468415Y-189194029D01*
X27475681Y-189193182D01*
X27544327Y-189168265D01*
X27548455Y-189166848D01*
X27610936Y-189146607D01*
X27610938Y-189146606D01*
X27617899Y-189144351D01*
X27624154Y-189140555D01*
X27629628Y-189138049D01*
X27635058Y-189135330D01*
X27641937Y-189132833D01*
X27675385Y-189110903D01*
X27718273Y-189093029D01*
X27761045Y-189083937D01*
X27832288Y-189068794D01*
X27947369Y-189017557D01*
X28000722Y-188993803D01*
X28000724Y-188993802D01*
X28006752Y-188991118D01*
X28033914Y-188971384D01*
X28082835Y-188935840D01*
X28161253Y-188878866D01*
X28165675Y-188873955D01*
X28284621Y-188741852D01*
X28284622Y-188741851D01*
X28289040Y-188736944D01*
X28344405Y-188641050D01*
X28362580Y-188609570D01*
X28413963Y-188560577D01*
X28483676Y-188547141D01*
X28549587Y-188573528D01*
X28560794Y-188583475D01*
X29192095Y-189214776D01*
X29226121Y-189277088D01*
X29229000Y-189303871D01*
X29229000Y-189700400D01*
X29229337Y-189703646D01*
X29229337Y-189703650D01*
X29235656Y-189764547D01*
X29239974Y-189806166D01*
X29242155Y-189812702D01*
X29242155Y-189812704D01*
X29269945Y-189896000D01*
X29295950Y-189973946D01*
X29389022Y-190124348D01*
X29394204Y-190129521D01*
X29514197Y-190249305D01*
X29512202Y-190251303D01*
X29545766Y-190298653D01*
X29551917Y-190352776D01*
X29536496Y-190499500D01*
X29537186Y-190506065D01*
X29554422Y-190670053D01*
X29556458Y-190689428D01*
X29615473Y-190871056D01*
X29710960Y-191036444D01*
X29715378Y-191041351D01*
X29715379Y-191041352D01*
X29831804Y-191170655D01*
X29838747Y-191178366D01*
X29897019Y-191220703D01*
X29973079Y-191275964D01*
X29993248Y-191290618D01*
X29999276Y-191293302D01*
X29999278Y-191293303D01*
X30136364Y-191354337D01*
X30167712Y-191368294D01*
X30261112Y-191388147D01*
X30348056Y-191406628D01*
X30348061Y-191406628D01*
X30354513Y-191408000D01*
X30545487Y-191408000D01*
X30550289Y-191406979D01*
X30619509Y-191419638D01*
X30671355Y-191468140D01*
X30688750Y-191536973D01*
X30666169Y-191604283D01*
X30638494Y-191632936D01*
X30598549Y-191662928D01*
X30574965Y-191680635D01*
X30571393Y-191684373D01*
X30488580Y-191771032D01*
X30420629Y-191842138D01*
X30313201Y-191999621D01*
X30258293Y-192044621D01*
X30187768Y-192052792D01*
X30124021Y-192021538D01*
X30103324Y-191997054D01*
X30022822Y-191872617D01*
X30022820Y-191872614D01*
X30020014Y-191868277D01*
X29869670Y-191703051D01*
X29865619Y-191699852D01*
X29865615Y-191699848D01*
X29698414Y-191567800D01*
X29698410Y-191567798D01*
X29694359Y-191564598D01*
X29668196Y-191550155D01*
X29639836Y-191534500D01*
X29498789Y-191456638D01*
X29493920Y-191454914D01*
X29493916Y-191454912D01*
X29293087Y-191383795D01*
X29293083Y-191383794D01*
X29288212Y-191382069D01*
X29283119Y-191381162D01*
X29283116Y-191381161D01*
X29073373Y-191343800D01*
X29073367Y-191343799D01*
X29068284Y-191342894D01*
X28994452Y-191341992D01*
X28850081Y-191340228D01*
X28850079Y-191340228D01*
X28844911Y-191340165D01*
X28624091Y-191373955D01*
X28411756Y-191443357D01*
X28367531Y-191466379D01*
X28231922Y-191536973D01*
X28213607Y-191546507D01*
X28209474Y-191549610D01*
X28209471Y-191549612D01*
X28039100Y-191677530D01*
X28034965Y-191680635D01*
X28031393Y-191684373D01*
X27948580Y-191771032D01*
X27880629Y-191842138D01*
X27877720Y-191846403D01*
X27877714Y-191846411D01*
X27862798Y-191868277D01*
X27773204Y-191999618D01*
X27772898Y-192000066D01*
X27717987Y-192045069D01*
X27647462Y-192053240D01*
X27583715Y-192021986D01*
X27563018Y-191997502D01*
X27482426Y-191872926D01*
X27476136Y-191864757D01*
X27332806Y-191707240D01*
X27325273Y-191700215D01*
X27158139Y-191568222D01*
X27149552Y-191562517D01*
X26963117Y-191459599D01*
X26953705Y-191455369D01*
X26752959Y-191384280D01*
X26742988Y-191381646D01*
X26671837Y-191368972D01*
X26658540Y-191370432D01*
X26654000Y-191384989D01*
X26654000Y-192828000D01*
X26633998Y-192896121D01*
X26580342Y-192942614D01*
X26528000Y-192954000D01*
X26272000Y-192954000D01*
X26203879Y-192933998D01*
X26157386Y-192880342D01*
X26146000Y-192828000D01*
X26146000Y-191383102D01*
X26142082Y-191369758D01*
X26127806Y-191367771D01*
X26089324Y-191373660D01*
X26079288Y-191376051D01*
X25876868Y-191442212D01*
X25867359Y-191446209D01*
X25678463Y-191544542D01*
X25669738Y-191550036D01*
X25499433Y-191677905D01*
X25491726Y-191684748D01*
X25344590Y-191838717D01*
X25338109Y-191846722D01*
X25233498Y-192000074D01*
X25178587Y-192045076D01*
X25108062Y-192053247D01*
X25044315Y-192021993D01*
X25023618Y-191997509D01*
X24942822Y-191872617D01*
X24942820Y-191872614D01*
X24940014Y-191868277D01*
X24789670Y-191703051D01*
X24785619Y-191699852D01*
X24785615Y-191699848D01*
X24618414Y-191567800D01*
X24618410Y-191567798D01*
X24614359Y-191564598D01*
X24588196Y-191550155D01*
X24559836Y-191534500D01*
X24418789Y-191456638D01*
X24413920Y-191454914D01*
X24413916Y-191454912D01*
X24213087Y-191383795D01*
X24213083Y-191383794D01*
X24208212Y-191382069D01*
X24178999Y-191376865D01*
X24115444Y-191345229D01*
X24079080Y-191284253D01*
X24083114Y-191208589D01*
X24098478Y-191167605D01*
X24102105Y-191152351D01*
X24107631Y-191101486D01*
X24108000Y-191094672D01*
X24108000Y-190422115D01*
X24103525Y-190406876D01*
X24102135Y-190405671D01*
X24094452Y-190404000D01*
X19710116Y-190404000D01*
X19694877Y-190408475D01*
X19693672Y-190409865D01*
X19692001Y-190417548D01*
X19692001Y-191094669D01*
X19692371Y-191101490D01*
X19697895Y-191152352D01*
X19701521Y-191167604D01*
X19746676Y-191288054D01*
X19755214Y-191303649D01*
X19831715Y-191405724D01*
X19844276Y-191418285D01*
X19953538Y-191500172D01*
X19952473Y-191501593D01*
X19995023Y-191544234D01*
X20010039Y-191613624D01*
X20002352Y-191648729D01*
X19971029Y-191732282D01*
X19971027Y-191732288D01*
X19968255Y-191739684D01*
X19961500Y-191801866D01*
X19961500Y-192933629D01*
X19941498Y-193001750D01*
X19924595Y-193022724D01*
X19592724Y-193354595D01*
X19530412Y-193388621D01*
X19503629Y-193391500D01*
X17784000Y-193391500D01*
X17715879Y-193371498D01*
X17669386Y-193317842D01*
X17658000Y-193265500D01*
X17658000Y-193122115D01*
X17653525Y-193106876D01*
X17652135Y-193105671D01*
X17644452Y-193104000D01*
X16522000Y-193104000D01*
X16453879Y-193083998D01*
X16407386Y-193030342D01*
X16396000Y-192978000D01*
X16396000Y-191635116D01*
X16391525Y-191619877D01*
X16390135Y-191618672D01*
X16382452Y-191617001D01*
X16352905Y-191617001D01*
X16346386Y-191617338D01*
X16250794Y-191627257D01*
X16237400Y-191630149D01*
X16151446Y-191658825D01*
X16080496Y-191661409D01*
X16019412Y-191625225D01*
X15987588Y-191561761D01*
X15995127Y-191491166D01*
X16022475Y-191450206D01*
X16048911Y-191423770D01*
X16063323Y-191411384D01*
X16074918Y-191402851D01*
X16074923Y-191402846D01*
X16080818Y-191398508D01*
X16085557Y-191392930D01*
X16085560Y-191392927D01*
X16115035Y-191358232D01*
X16121965Y-191350716D01*
X16127660Y-191345021D01*
X16145281Y-191322749D01*
X16148072Y-191319345D01*
X16190591Y-191269297D01*
X16190592Y-191269295D01*
X16195333Y-191263715D01*
X16198661Y-191257199D01*
X16202028Y-191252150D01*
X16205195Y-191247021D01*
X16209734Y-191241284D01*
X16240655Y-191175125D01*
X16242561Y-191171225D01*
X16244067Y-191168276D01*
X16275769Y-191106192D01*
X16277508Y-191099084D01*
X16279607Y-191093441D01*
X16281524Y-191087678D01*
X16284622Y-191081050D01*
X16286913Y-191070038D01*
X16299486Y-191009588D01*
X16300457Y-191005299D01*
X16306741Y-190979617D01*
X16317808Y-190934390D01*
X16318500Y-190923236D01*
X16318536Y-190923238D01*
X16318775Y-190919245D01*
X16319149Y-190915053D01*
X16320640Y-190907885D01*
X16318546Y-190830479D01*
X16318500Y-190827072D01*
X16318500Y-190772632D01*
X16338502Y-190704511D01*
X16371331Y-190670054D01*
X16439860Y-190621173D01*
X16482695Y-190578488D01*
X16594435Y-190467137D01*
X16594436Y-190467136D01*
X16598096Y-190463489D01*
X16627379Y-190422738D01*
X16725435Y-190286277D01*
X16728453Y-190282077D01*
X16763885Y-190210386D01*
X16811996Y-190158182D01*
X16880697Y-190140274D01*
X16948173Y-190162352D01*
X16993002Y-190217405D01*
X16999491Y-190242749D01*
X17000308Y-190242573D01*
X17001762Y-190249305D01*
X17002474Y-190256166D01*
X17004655Y-190262702D01*
X17004655Y-190262704D01*
X17012520Y-190286277D01*
X17058450Y-190423946D01*
X17151522Y-190574348D01*
X17156704Y-190579521D01*
X17238463Y-190661138D01*
X17272542Y-190723421D01*
X17267539Y-190794241D01*
X17238618Y-190839329D01*
X17156261Y-190921829D01*
X17147249Y-190933240D01*
X17062184Y-191071243D01*
X17056037Y-191084424D01*
X17004862Y-191238710D01*
X17001995Y-191252086D01*
X16992328Y-191346438D01*
X16992000Y-191352855D01*
X16992000Y-191502158D01*
X16971998Y-191570279D01*
X16918342Y-191616772D01*
X16907422Y-191620844D01*
X16905671Y-191622865D01*
X16904000Y-191630548D01*
X16904000Y-192577885D01*
X16908475Y-192593124D01*
X16909865Y-192594329D01*
X16917548Y-192596000D01*
X17583501Y-192596000D01*
X17651622Y-192616002D01*
X17698115Y-192669658D01*
X17701708Y-192679292D01*
X17705988Y-192683000D01*
X17927885Y-192683000D01*
X17943124Y-192678525D01*
X17944329Y-192677135D01*
X17946000Y-192669452D01*
X17946000Y-192664884D01*
X18454000Y-192664884D01*
X18458475Y-192680123D01*
X18459865Y-192681328D01*
X18467548Y-192682999D01*
X18697095Y-192682999D01*
X18703614Y-192682662D01*
X18799206Y-192672743D01*
X18812600Y-192669851D01*
X18966784Y-192618412D01*
X18979962Y-192612239D01*
X19117807Y-192526937D01*
X19129208Y-192517901D01*
X19243739Y-192403171D01*
X19252751Y-192391760D01*
X19337816Y-192253757D01*
X19343963Y-192240576D01*
X19395138Y-192086290D01*
X19398005Y-192072914D01*
X19407672Y-191978562D01*
X19408000Y-191972146D01*
X19408000Y-191934615D01*
X19403525Y-191919376D01*
X19402135Y-191918171D01*
X19394452Y-191916500D01*
X18472115Y-191916500D01*
X18456876Y-191920975D01*
X18455671Y-191922365D01*
X18454000Y-191930048D01*
X18454000Y-192664884D01*
X17946000Y-192664884D01*
X17946000Y-191534500D01*
X17966002Y-191466379D01*
X18019658Y-191419886D01*
X18072000Y-191408500D01*
X19389884Y-191408500D01*
X19405123Y-191404025D01*
X19406328Y-191402635D01*
X19407999Y-191394952D01*
X19407999Y-191352905D01*
X19407662Y-191346386D01*
X19397743Y-191250794D01*
X19394851Y-191237400D01*
X19343412Y-191083216D01*
X19337239Y-191070038D01*
X19251937Y-190932193D01*
X19242901Y-190920792D01*
X19161538Y-190839570D01*
X19127459Y-190777287D01*
X19132462Y-190706467D01*
X19161383Y-190661380D01*
X19244130Y-190578488D01*
X19244134Y-190578483D01*
X19249305Y-190573303D01*
X19253146Y-190567072D01*
X19338275Y-190428968D01*
X19338276Y-190428966D01*
X19342115Y-190422738D01*
X19397797Y-190254861D01*
X19408500Y-190150400D01*
X19408500Y-189877885D01*
X19692000Y-189877885D01*
X19696475Y-189893124D01*
X19697865Y-189894329D01*
X19705548Y-189896000D01*
X21627885Y-189896000D01*
X21643124Y-189891525D01*
X21644329Y-189890135D01*
X21646000Y-189882452D01*
X21646000Y-188760116D01*
X21641525Y-188744877D01*
X21640135Y-188743672D01*
X21632452Y-188742001D01*
X20155331Y-188742001D01*
X20148510Y-188742371D01*
X20097648Y-188747895D01*
X20082396Y-188751521D01*
X19961946Y-188796676D01*
X19946351Y-188805214D01*
X19844276Y-188881715D01*
X19831715Y-188894276D01*
X19755214Y-188996351D01*
X19746676Y-189011946D01*
X19701522Y-189132394D01*
X19697895Y-189147649D01*
X19692369Y-189198514D01*
X19692000Y-189205328D01*
X19692000Y-189877885D01*
X19408500Y-189877885D01*
X19408500Y-189524600D01*
X19397526Y-189418834D01*
X19341550Y-189251054D01*
X19252457Y-189107082D01*
X19233619Y-189038630D01*
X19254780Y-188970861D01*
X19274750Y-188947984D01*
X19274600Y-188947824D01*
X19275032Y-188947418D01*
X19275972Y-188946585D01*
X19276169Y-188946359D01*
X19277458Y-188945220D01*
X19277482Y-188945247D01*
X19280500Y-188942571D01*
X19283733Y-188939868D01*
X19289852Y-188935856D01*
X19343128Y-188879617D01*
X19345506Y-188877175D01*
X21306331Y-186916350D01*
X21369228Y-186882199D01*
X21425824Y-186870169D01*
X21425833Y-186870166D01*
X21432288Y-186868794D01*
X21487350Y-186844279D01*
X21600722Y-186793803D01*
X21600724Y-186793802D01*
X21606752Y-186791118D01*
X21621367Y-186780500D01*
X21698526Y-186724440D01*
X21761253Y-186678866D01*
X21785037Y-186652451D01*
X21845483Y-186615213D01*
X21916467Y-186616565D01*
G37*
G04 #@! TD.AperFunction*
G04 #@! TA.AperFunction,Conductor*
G36*
X18207211Y-180489636D02*
G01*
X18264047Y-180532183D01*
X18288764Y-180597478D01*
X18289646Y-180608328D01*
X18291085Y-180626020D01*
X18291500Y-180636233D01*
X18291500Y-180644293D01*
X18291925Y-180647937D01*
X18294789Y-180672507D01*
X18295222Y-180676882D01*
X18297376Y-180703357D01*
X18301140Y-180749637D01*
X18303396Y-180756601D01*
X18304587Y-180762560D01*
X18305971Y-180768415D01*
X18306818Y-180775681D01*
X18331735Y-180844327D01*
X18333152Y-180848455D01*
X18343318Y-180879834D01*
X18355649Y-180917899D01*
X18359445Y-180924154D01*
X18361951Y-180929628D01*
X18364670Y-180935058D01*
X18367167Y-180941937D01*
X18371180Y-180948057D01*
X18371180Y-180948058D01*
X18407186Y-181002976D01*
X18409523Y-181006680D01*
X18447405Y-181069107D01*
X18451121Y-181073315D01*
X18451122Y-181073316D01*
X18454803Y-181077484D01*
X18454776Y-181077508D01*
X18457429Y-181080500D01*
X18460132Y-181083733D01*
X18464144Y-181089852D01*
X18477113Y-181102138D01*
X18520383Y-181143128D01*
X18522825Y-181145506D01*
X18742095Y-181364776D01*
X18776121Y-181427088D01*
X18779000Y-181453871D01*
X18779000Y-181850400D01*
X18779337Y-181853646D01*
X18779337Y-181853650D01*
X18788941Y-181946206D01*
X18789974Y-181956166D01*
X18845950Y-182123946D01*
X18877903Y-182175581D01*
X18896740Y-182244030D01*
X18875579Y-182311800D01*
X18846323Y-182342708D01*
X18794276Y-182381715D01*
X18781715Y-182394276D01*
X18705214Y-182496351D01*
X18696676Y-182511946D01*
X18651522Y-182632394D01*
X18647895Y-182647649D01*
X18642369Y-182698514D01*
X18642000Y-182705328D01*
X18642000Y-183577885D01*
X18646475Y-183593124D01*
X18647865Y-183594329D01*
X18655548Y-183596000D01*
X19778000Y-183596000D01*
X19846121Y-183616002D01*
X19892614Y-183669658D01*
X19904000Y-183722000D01*
X19904000Y-185439884D01*
X19908475Y-185455123D01*
X19909865Y-185456328D01*
X19917548Y-185457999D01*
X20198093Y-185457999D01*
X20266214Y-185478001D01*
X20312707Y-185531657D01*
X20322811Y-185601931D01*
X20315189Y-185628352D01*
X20315473Y-185628444D01*
X20265139Y-185783357D01*
X20260613Y-185797285D01*
X20229875Y-185847444D01*
X18522724Y-187554595D01*
X18460412Y-187588621D01*
X18433629Y-187591500D01*
X16982302Y-187591500D01*
X16914181Y-187571498D01*
X16867688Y-187517842D01*
X16857584Y-187447568D01*
X16861741Y-187428879D01*
X16892370Y-187328069D01*
X16921529Y-187106590D01*
X16923156Y-187040000D01*
X16904852Y-186817361D01*
X16850431Y-186600702D01*
X16761354Y-186395840D01*
X16640014Y-186208277D01*
X16489670Y-186043051D01*
X16485619Y-186039852D01*
X16485615Y-186039848D01*
X16318414Y-185907800D01*
X16318410Y-185907798D01*
X16314359Y-185904598D01*
X16273053Y-185881796D01*
X16223084Y-185831364D01*
X16208312Y-185761921D01*
X16233428Y-185695516D01*
X16260780Y-185668909D01*
X16317639Y-185628352D01*
X16439860Y-185541173D01*
X16449410Y-185531657D01*
X16541504Y-185439884D01*
X16598096Y-185383489D01*
X16609340Y-185367842D01*
X16725435Y-185206277D01*
X16728453Y-185202077D01*
X16761852Y-185134500D01*
X16825136Y-185006453D01*
X16825137Y-185006451D01*
X16827430Y-185001811D01*
X16829600Y-184994669D01*
X18642001Y-184994669D01*
X18642371Y-185001490D01*
X18647895Y-185052352D01*
X18651521Y-185067604D01*
X18696676Y-185188054D01*
X18705214Y-185203649D01*
X18781715Y-185305724D01*
X18794276Y-185318285D01*
X18896351Y-185394786D01*
X18911946Y-185403324D01*
X19032394Y-185448478D01*
X19047649Y-185452105D01*
X19098514Y-185457631D01*
X19105328Y-185458000D01*
X19377885Y-185458000D01*
X19393124Y-185453525D01*
X19394329Y-185452135D01*
X19396000Y-185444452D01*
X19396000Y-184122115D01*
X19391525Y-184106876D01*
X19390135Y-184105671D01*
X19382452Y-184104000D01*
X18660116Y-184104000D01*
X18644877Y-184108475D01*
X18643672Y-184109865D01*
X18642001Y-184117548D01*
X18642001Y-184994669D01*
X16829600Y-184994669D01*
X16875436Y-184843806D01*
X16890865Y-184793023D01*
X16890865Y-184793021D01*
X16892370Y-184788069D01*
X16921529Y-184566590D01*
X16922939Y-184508882D01*
X16923074Y-184503365D01*
X16923074Y-184503361D01*
X16923156Y-184500000D01*
X16904852Y-184277361D01*
X16850431Y-184060702D01*
X16761354Y-183855840D01*
X16640014Y-183668277D01*
X16489670Y-183503051D01*
X16485619Y-183499852D01*
X16485615Y-183499848D01*
X16318414Y-183367800D01*
X16318410Y-183367798D01*
X16314359Y-183364598D01*
X16273053Y-183341796D01*
X16223084Y-183291364D01*
X16208312Y-183221921D01*
X16233428Y-183155516D01*
X16260780Y-183128909D01*
X16304603Y-183097650D01*
X16439860Y-183001173D01*
X16445709Y-182995345D01*
X16587805Y-182853744D01*
X16598096Y-182843489D01*
X16602589Y-182837237D01*
X16725435Y-182666277D01*
X16728453Y-182662077D01*
X16733140Y-182652595D01*
X16825136Y-182466453D01*
X16825137Y-182466451D01*
X16827430Y-182461811D01*
X16892370Y-182248069D01*
X16921529Y-182026590D01*
X16923156Y-181960000D01*
X16905870Y-181749747D01*
X16920223Y-181680219D01*
X16942351Y-181650330D01*
X18074084Y-180518597D01*
X18136396Y-180484571D01*
X18207211Y-180489636D01*
G37*
G04 #@! TD.AperFunction*
G04 #@! TA.AperFunction,Conductor*
G36*
X36767012Y-184914051D02*
G01*
X36801243Y-184961871D01*
X36856264Y-185097371D01*
X36863266Y-185114616D01*
X36979987Y-185305088D01*
X37126250Y-185473938D01*
X37298126Y-185616632D01*
X37318340Y-185628444D01*
X37371955Y-185659774D01*
X37420679Y-185711412D01*
X37433750Y-185781195D01*
X37407019Y-185846967D01*
X37366562Y-185880327D01*
X37358457Y-185884546D01*
X37349738Y-185890036D01*
X37179433Y-186017905D01*
X37171726Y-186024748D01*
X37024590Y-186178717D01*
X37018104Y-186186727D01*
X36898098Y-186362649D01*
X36893000Y-186371623D01*
X36803337Y-186564786D01*
X36802752Y-186566376D01*
X36802343Y-186566928D01*
X36801159Y-186569478D01*
X36800633Y-186569234D01*
X36760460Y-186623402D01*
X36694052Y-186648510D01*
X36624611Y-186633730D01*
X36574184Y-186583754D01*
X36558500Y-186522873D01*
X36558500Y-185009275D01*
X36578502Y-184941154D01*
X36632158Y-184894661D01*
X36702432Y-184884557D01*
X36767012Y-184914051D01*
G37*
G04 #@! TD.AperFunction*
G04 #@! TA.AperFunction,Conductor*
G36*
X36936739Y-180178502D02*
G01*
X36974059Y-180216630D01*
X36974229Y-180216505D01*
X36975095Y-180217689D01*
X36976051Y-180218665D01*
X36979987Y-180225088D01*
X37126250Y-180393938D01*
X37298126Y-180536632D01*
X37357792Y-180571498D01*
X37371445Y-180579476D01*
X37420169Y-180631114D01*
X37433240Y-180700897D01*
X37406509Y-180766669D01*
X37366055Y-180800027D01*
X37353607Y-180806507D01*
X37349474Y-180809610D01*
X37349471Y-180809612D01*
X37179100Y-180937530D01*
X37174965Y-180940635D01*
X37113636Y-181004812D01*
X37085544Y-181034209D01*
X37020629Y-181102138D01*
X37017715Y-181106410D01*
X37017714Y-181106411D01*
X36991882Y-181144279D01*
X36894743Y-181286680D01*
X36887212Y-181302905D01*
X36841362Y-181401681D01*
X36800688Y-181489305D01*
X36740989Y-181704570D01*
X36717251Y-181926695D01*
X36717548Y-181931848D01*
X36717548Y-181931851D01*
X36724839Y-182058297D01*
X36730110Y-182149715D01*
X36731247Y-182154761D01*
X36731248Y-182154767D01*
X36750008Y-182238007D01*
X36779222Y-182367639D01*
X36863266Y-182574616D01*
X36865965Y-182579020D01*
X36960170Y-182732749D01*
X36979987Y-182765088D01*
X37126250Y-182933938D01*
X37298126Y-183076632D01*
X37336021Y-183098776D01*
X37371445Y-183119476D01*
X37420169Y-183171114D01*
X37433240Y-183240897D01*
X37406509Y-183306669D01*
X37366055Y-183340027D01*
X37353607Y-183346507D01*
X37349474Y-183349610D01*
X37349471Y-183349612D01*
X37195204Y-183465439D01*
X37174965Y-183480635D01*
X37066317Y-183594329D01*
X37063251Y-183597537D01*
X37001727Y-183632967D01*
X36930814Y-183629510D01*
X36873028Y-183588264D01*
X36849446Y-183537829D01*
X36849042Y-183533982D01*
X36790027Y-183352354D01*
X36694540Y-183186966D01*
X36675994Y-183166368D01*
X36571175Y-183049955D01*
X36571174Y-183049954D01*
X36566753Y-183045044D01*
X36427497Y-182943868D01*
X36417594Y-182936673D01*
X36417593Y-182936672D01*
X36412252Y-182932792D01*
X36406224Y-182930108D01*
X36406222Y-182930107D01*
X36243819Y-182857801D01*
X36243818Y-182857801D01*
X36237788Y-182855116D01*
X36142002Y-182834756D01*
X36057444Y-182816782D01*
X36057439Y-182816782D01*
X36050987Y-182815410D01*
X35860013Y-182815410D01*
X35853561Y-182816782D01*
X35853556Y-182816782D01*
X35768998Y-182834756D01*
X35673212Y-182855116D01*
X35667180Y-182857802D01*
X35660900Y-182859842D01*
X35660014Y-182857115D01*
X35602099Y-182864871D01*
X35537806Y-182834756D01*
X35500001Y-182774661D01*
X35495925Y-182753502D01*
X35494232Y-182737392D01*
X35494232Y-182737391D01*
X35493542Y-182730828D01*
X35434527Y-182549200D01*
X35339040Y-182383812D01*
X35327953Y-182371498D01*
X35215675Y-182246801D01*
X35215674Y-182246800D01*
X35211253Y-182241890D01*
X35079450Y-182146129D01*
X35062094Y-182133519D01*
X35062093Y-182133518D01*
X35056752Y-182129638D01*
X35050724Y-182126954D01*
X35050722Y-182126953D01*
X34888319Y-182054647D01*
X34888318Y-182054647D01*
X34882288Y-182051962D01*
X34762923Y-182026590D01*
X34701944Y-182013628D01*
X34701939Y-182013628D01*
X34695487Y-182012256D01*
X34504513Y-182012256D01*
X34498061Y-182013628D01*
X34498056Y-182013628D01*
X34437077Y-182026590D01*
X34317712Y-182051962D01*
X34303483Y-182058297D01*
X34233118Y-182067733D01*
X34221128Y-182062188D01*
X34221059Y-182062507D01*
X34181952Y-182054000D01*
X33447115Y-182054000D01*
X33431876Y-182058475D01*
X33430671Y-182059865D01*
X33429000Y-182067548D01*
X33429000Y-182989884D01*
X33433475Y-183005123D01*
X33434865Y-183006328D01*
X33442548Y-183007999D01*
X33484595Y-183007999D01*
X33491114Y-183007662D01*
X33568383Y-182999645D01*
X33638205Y-183012510D01*
X33689986Y-183061082D01*
X33704633Y-183098776D01*
X33705767Y-183104112D01*
X33706458Y-183110684D01*
X33765473Y-183292312D01*
X33768776Y-183298034D01*
X33768777Y-183298035D01*
X33806967Y-183364181D01*
X33860960Y-183457700D01*
X33865379Y-183462608D01*
X33867436Y-183465439D01*
X33891295Y-183532307D01*
X33891500Y-183539500D01*
X33891500Y-183589453D01*
X33871498Y-183657574D01*
X33817842Y-183704067D01*
X33747568Y-183714171D01*
X33701361Y-183697907D01*
X33570221Y-183620352D01*
X33555790Y-183614107D01*
X33421395Y-183575061D01*
X33407294Y-183575101D01*
X33404000Y-183582370D01*
X33404000Y-184940500D01*
X33383998Y-185008621D01*
X33330342Y-185055114D01*
X33278000Y-185066500D01*
X33022000Y-185066500D01*
X32953879Y-185046498D01*
X32907386Y-184992842D01*
X32896000Y-184940500D01*
X32896000Y-183588122D01*
X32892027Y-183574591D01*
X32884129Y-183573456D01*
X32744210Y-183614107D01*
X32729779Y-183620352D01*
X32600322Y-183696911D01*
X32587896Y-183706551D01*
X32481551Y-183812896D01*
X32471911Y-183825322D01*
X32395352Y-183954779D01*
X32389107Y-183969210D01*
X32346731Y-184115065D01*
X32344430Y-184127667D01*
X32342193Y-184156084D01*
X32342000Y-184161014D01*
X32342000Y-184604695D01*
X32321998Y-184672816D01*
X32268342Y-184719309D01*
X32198068Y-184729413D01*
X32133488Y-184699919D01*
X32122364Y-184689005D01*
X32115157Y-184681000D01*
X32061253Y-184621134D01*
X31906752Y-184508882D01*
X31900724Y-184506198D01*
X31900722Y-184506197D01*
X31738319Y-184433891D01*
X31738318Y-184433891D01*
X31732288Y-184431206D01*
X31626745Y-184408772D01*
X31551944Y-184392872D01*
X31551939Y-184392872D01*
X31545487Y-184391500D01*
X31434500Y-184391500D01*
X31366379Y-184371498D01*
X31319886Y-184317842D01*
X31308500Y-184265500D01*
X31308500Y-183416371D01*
X31328502Y-183348250D01*
X31345405Y-183327276D01*
X31632712Y-183039969D01*
X31695024Y-183005943D01*
X31708799Y-183003738D01*
X31733791Y-183001145D01*
X31761807Y-182998238D01*
X31761810Y-182998237D01*
X31768666Y-182997526D01*
X31775202Y-182995345D01*
X31775204Y-182995345D01*
X31929498Y-182943868D01*
X31936446Y-182941550D01*
X32086848Y-182848478D01*
X32118489Y-182816782D01*
X32173638Y-182761537D01*
X32235921Y-182727458D01*
X32306741Y-182732461D01*
X32351829Y-182761382D01*
X32434329Y-182843739D01*
X32445740Y-182852751D01*
X32583743Y-182937816D01*
X32596924Y-182943963D01*
X32751210Y-182995138D01*
X32764586Y-182998005D01*
X32858938Y-183007672D01*
X32865354Y-183008000D01*
X32902885Y-183008000D01*
X32918124Y-183003525D01*
X32919329Y-183002135D01*
X32921000Y-182994452D01*
X32921000Y-181672000D01*
X32941002Y-181603879D01*
X32994658Y-181557386D01*
X33047000Y-181546000D01*
X34177384Y-181546000D01*
X34192623Y-181541525D01*
X34193828Y-181540135D01*
X34195499Y-181532452D01*
X34195499Y-181302905D01*
X34195162Y-181296386D01*
X34185243Y-181200794D01*
X34182351Y-181187400D01*
X34130912Y-181033216D01*
X34124739Y-181020038D01*
X34039437Y-180882193D01*
X34030400Y-180870791D01*
X33982698Y-180823171D01*
X33948620Y-180760888D01*
X33953623Y-180690068D01*
X33996121Y-180633196D01*
X34062620Y-180608328D01*
X34071717Y-180607999D01*
X34247095Y-180607999D01*
X34253614Y-180607662D01*
X34349206Y-180597743D01*
X34362600Y-180594851D01*
X34516784Y-180543412D01*
X34529962Y-180537239D01*
X34667807Y-180451937D01*
X34679208Y-180442901D01*
X34760430Y-180361538D01*
X34822713Y-180327459D01*
X34893533Y-180332462D01*
X34938620Y-180361383D01*
X35021512Y-180444130D01*
X35021517Y-180444134D01*
X35026697Y-180449305D01*
X35032927Y-180453145D01*
X35032928Y-180453146D01*
X35170090Y-180537694D01*
X35177262Y-180542115D01*
X35257005Y-180568564D01*
X35338611Y-180595632D01*
X35338613Y-180595632D01*
X35345139Y-180597797D01*
X35351975Y-180598497D01*
X35351978Y-180598498D01*
X35383837Y-180601762D01*
X35449600Y-180608500D01*
X36075400Y-180608500D01*
X36078646Y-180608163D01*
X36078650Y-180608163D01*
X36174308Y-180598238D01*
X36174312Y-180598237D01*
X36181166Y-180597526D01*
X36187702Y-180595345D01*
X36187704Y-180595345D01*
X36319806Y-180551272D01*
X36348946Y-180541550D01*
X36499348Y-180448478D01*
X36624305Y-180323303D01*
X36688979Y-180218383D01*
X36741750Y-180170891D01*
X36796238Y-180158500D01*
X36868618Y-180158500D01*
X36936739Y-180178502D01*
G37*
G04 #@! TD.AperFunction*
G04 #@! TA.AperFunction,Conductor*
G36*
X38676750Y-167603502D02*
G01*
X38697724Y-167620405D01*
X39104595Y-168027276D01*
X39138621Y-168089588D01*
X39141500Y-168116371D01*
X39141500Y-170318818D01*
X39121498Y-170386939D01*
X39067842Y-170433432D01*
X39001892Y-170444081D01*
X38978134Y-170441500D01*
X37181866Y-170441500D01*
X37119684Y-170448255D01*
X36983295Y-170499385D01*
X36866739Y-170586739D01*
X36779385Y-170703295D01*
X36728255Y-170839684D01*
X36721500Y-170901866D01*
X36721500Y-172698134D01*
X36728255Y-172760316D01*
X36779385Y-172896705D01*
X36866739Y-173013261D01*
X36983295Y-173100615D01*
X36991704Y-173103767D01*
X36991705Y-173103768D01*
X37100451Y-173144535D01*
X37157216Y-173187176D01*
X37181916Y-173253738D01*
X37166709Y-173323087D01*
X37147316Y-173349568D01*
X37066185Y-173434467D01*
X37020629Y-173482138D01*
X37017715Y-173486410D01*
X37017714Y-173486411D01*
X37009482Y-173498479D01*
X36894743Y-173666680D01*
X36800688Y-173869305D01*
X36740989Y-174084570D01*
X36717251Y-174306695D01*
X36730110Y-174529715D01*
X36731247Y-174534761D01*
X36731248Y-174534767D01*
X36752275Y-174628069D01*
X36779222Y-174747639D01*
X36828752Y-174869617D01*
X36860577Y-174947993D01*
X36863266Y-174954616D01*
X36879808Y-174981610D01*
X36958102Y-175109374D01*
X36979987Y-175145088D01*
X37126250Y-175313938D01*
X37298126Y-175456632D01*
X37368595Y-175497811D01*
X37371445Y-175499476D01*
X37420169Y-175551114D01*
X37433240Y-175620897D01*
X37406509Y-175686669D01*
X37366055Y-175720027D01*
X37353607Y-175726507D01*
X37349474Y-175729610D01*
X37349471Y-175729612D01*
X37325247Y-175747800D01*
X37174965Y-175860635D01*
X37020629Y-176022138D01*
X37017715Y-176026410D01*
X37017714Y-176026411D01*
X36946605Y-176130653D01*
X36894743Y-176206680D01*
X36800688Y-176409305D01*
X36740989Y-176624570D01*
X36717251Y-176846695D01*
X36717548Y-176851848D01*
X36717548Y-176851851D01*
X36723011Y-176946590D01*
X36730110Y-177069715D01*
X36731247Y-177074761D01*
X36731248Y-177074767D01*
X36751119Y-177162939D01*
X36779222Y-177287639D01*
X36826359Y-177403724D01*
X36860577Y-177487993D01*
X36863266Y-177494616D01*
X36979987Y-177685088D01*
X37126250Y-177853938D01*
X37298126Y-177996632D01*
X37368595Y-178037811D01*
X37371445Y-178039476D01*
X37420169Y-178091114D01*
X37433240Y-178160897D01*
X37406509Y-178226669D01*
X37366055Y-178260027D01*
X37353607Y-178266507D01*
X37349474Y-178269610D01*
X37349471Y-178269612D01*
X37179100Y-178397530D01*
X37174965Y-178400635D01*
X37020629Y-178562138D01*
X37004008Y-178586504D01*
X36949098Y-178631507D01*
X36899920Y-178641500D01*
X36796311Y-178641500D01*
X36728190Y-178621498D01*
X36689167Y-178581804D01*
X36686085Y-178576823D01*
X36623478Y-178475652D01*
X36498303Y-178350695D01*
X36423840Y-178304795D01*
X36353968Y-178261725D01*
X36353966Y-178261724D01*
X36347738Y-178257885D01*
X36253624Y-178226669D01*
X36186389Y-178204368D01*
X36186387Y-178204368D01*
X36179861Y-178202203D01*
X36173025Y-178201503D01*
X36173022Y-178201502D01*
X36129969Y-178197091D01*
X36075400Y-178191500D01*
X35449600Y-178191500D01*
X35446354Y-178191837D01*
X35446350Y-178191837D01*
X35350692Y-178201762D01*
X35350688Y-178201763D01*
X35343834Y-178202474D01*
X35337298Y-178204655D01*
X35337296Y-178204655D01*
X35271313Y-178226669D01*
X35176054Y-178258450D01*
X35025652Y-178351522D01*
X35020479Y-178356704D01*
X34938862Y-178438463D01*
X34876579Y-178472542D01*
X34805759Y-178467539D01*
X34760671Y-178438618D01*
X34678171Y-178356261D01*
X34666760Y-178347249D01*
X34528757Y-178262184D01*
X34515576Y-178256037D01*
X34361290Y-178204862D01*
X34347914Y-178201995D01*
X34253562Y-178192328D01*
X34247145Y-178192000D01*
X34209615Y-178192000D01*
X34194376Y-178196475D01*
X34193171Y-178197865D01*
X34191500Y-178205548D01*
X34191500Y-179528000D01*
X34171498Y-179596121D01*
X34117842Y-179642614D01*
X34065500Y-179654000D01*
X32935116Y-179654000D01*
X32919877Y-179658475D01*
X32918672Y-179659865D01*
X32917001Y-179667548D01*
X32917001Y-179897095D01*
X32917338Y-179903614D01*
X32927257Y-179999206D01*
X32930149Y-180012600D01*
X32981588Y-180166784D01*
X32987761Y-180179962D01*
X33073063Y-180317807D01*
X33082100Y-180329209D01*
X33129802Y-180376829D01*
X33163880Y-180439112D01*
X33158877Y-180509932D01*
X33116379Y-180566804D01*
X33049880Y-180591672D01*
X33040783Y-180592001D01*
X32865405Y-180592001D01*
X32858886Y-180592338D01*
X32763294Y-180602257D01*
X32749900Y-180605149D01*
X32595716Y-180656588D01*
X32582538Y-180662761D01*
X32444693Y-180748063D01*
X32433292Y-180757099D01*
X32352070Y-180838462D01*
X32289787Y-180872541D01*
X32218967Y-180867538D01*
X32173880Y-180838617D01*
X32090988Y-180755870D01*
X32090983Y-180755866D01*
X32085803Y-180750695D01*
X32051002Y-180729243D01*
X31941468Y-180661725D01*
X31941466Y-180661724D01*
X31935238Y-180657885D01*
X31854525Y-180631114D01*
X31773889Y-180604368D01*
X31773887Y-180604368D01*
X31767361Y-180602203D01*
X31760525Y-180601503D01*
X31760522Y-180601502D01*
X31717469Y-180597091D01*
X31662900Y-180591500D01*
X31037100Y-180591500D01*
X31033854Y-180591837D01*
X31033850Y-180591837D01*
X30938192Y-180601762D01*
X30938188Y-180601763D01*
X30931334Y-180602474D01*
X30924798Y-180604655D01*
X30924796Y-180604655D01*
X30795065Y-180647937D01*
X30763554Y-180658450D01*
X30613152Y-180751522D01*
X30488195Y-180876697D01*
X30484355Y-180882927D01*
X30484354Y-180882928D01*
X30462798Y-180917899D01*
X30395385Y-181027262D01*
X30339703Y-181195139D01*
X30329000Y-181299600D01*
X30329000Y-182146129D01*
X30308998Y-182214250D01*
X30292095Y-182235224D01*
X30172724Y-182354595D01*
X30110412Y-182388621D01*
X30083629Y-182391500D01*
X30046913Y-182391500D01*
X29978792Y-182371498D01*
X29932299Y-182317842D01*
X29922195Y-182247568D01*
X29937794Y-182202500D01*
X29981223Y-182127279D01*
X29981224Y-182127278D01*
X29984527Y-182121556D01*
X30043542Y-181939928D01*
X30045473Y-181921562D01*
X30062814Y-181756565D01*
X30063504Y-181750000D01*
X30043542Y-181560072D01*
X29984527Y-181378444D01*
X29889040Y-181213056D01*
X29879066Y-181201978D01*
X29765675Y-181076045D01*
X29765674Y-181076044D01*
X29761253Y-181071134D01*
X29606752Y-180958882D01*
X29600724Y-180956198D01*
X29600722Y-180956197D01*
X29438319Y-180883891D01*
X29438318Y-180883891D01*
X29432288Y-180881206D01*
X29316030Y-180856494D01*
X29253133Y-180822343D01*
X28081922Y-179651132D01*
X28804408Y-179651132D01*
X28804539Y-179652965D01*
X28808790Y-179659580D01*
X29660290Y-180511080D01*
X29672670Y-180517840D01*
X29680320Y-180512113D01*
X29785205Y-180340958D01*
X29789687Y-180332163D01*
X29876734Y-180122012D01*
X29879783Y-180112627D01*
X29932885Y-179891446D01*
X29934428Y-179881699D01*
X29952275Y-179654930D01*
X29952275Y-179645070D01*
X29934428Y-179418301D01*
X29932885Y-179408554D01*
X29879783Y-179187373D01*
X29876734Y-179177988D01*
X29855981Y-179127885D01*
X32917000Y-179127885D01*
X32921475Y-179143124D01*
X32922865Y-179144329D01*
X32930548Y-179146000D01*
X33665385Y-179146000D01*
X33680624Y-179141525D01*
X33681829Y-179140135D01*
X33683500Y-179132452D01*
X33683500Y-178210116D01*
X33679025Y-178194877D01*
X33677635Y-178193672D01*
X33669952Y-178192001D01*
X33627905Y-178192001D01*
X33621386Y-178192338D01*
X33525794Y-178202257D01*
X33512400Y-178205149D01*
X33358216Y-178256588D01*
X33345038Y-178262761D01*
X33207193Y-178348063D01*
X33195792Y-178357099D01*
X33081261Y-178471829D01*
X33072249Y-178483240D01*
X32987184Y-178621243D01*
X32981037Y-178634424D01*
X32929862Y-178788710D01*
X32926995Y-178802086D01*
X32917328Y-178896438D01*
X32917000Y-178902855D01*
X32917000Y-179127885D01*
X29855981Y-179127885D01*
X29789687Y-178967837D01*
X29785205Y-178959042D01*
X29682568Y-178791555D01*
X29672110Y-178782093D01*
X29663334Y-178785876D01*
X28812022Y-179637188D01*
X28804408Y-179651132D01*
X28081922Y-179651132D01*
X27219710Y-178788920D01*
X27202898Y-178779740D01*
X27139650Y-178765980D01*
X27104225Y-178737224D01*
X26973177Y-178583787D01*
X26969969Y-178580031D01*
X26789416Y-178425824D01*
X26785208Y-178423245D01*
X26785202Y-178423241D01*
X26776470Y-178417890D01*
X27572093Y-178417890D01*
X27575876Y-178426666D01*
X28427188Y-179277978D01*
X28441132Y-179285592D01*
X28442965Y-179285461D01*
X28449580Y-179281210D01*
X29301080Y-178429710D01*
X29307840Y-178417330D01*
X29302113Y-178409680D01*
X29130958Y-178304795D01*
X29122163Y-178300313D01*
X28912012Y-178213266D01*
X28902627Y-178210217D01*
X28681446Y-178157115D01*
X28671699Y-178155572D01*
X28444930Y-178137725D01*
X28435070Y-178137725D01*
X28208301Y-178155572D01*
X28198554Y-178157115D01*
X27977373Y-178210217D01*
X27967988Y-178213266D01*
X27757837Y-178300313D01*
X27749042Y-178304795D01*
X27581555Y-178407432D01*
X27572093Y-178417890D01*
X26776470Y-178417890D01*
X26591183Y-178304346D01*
X26586963Y-178301760D01*
X26582393Y-178299867D01*
X26582389Y-178299865D01*
X26372167Y-178212789D01*
X26372165Y-178212788D01*
X26367594Y-178210895D01*
X26143184Y-178157019D01*
X26081615Y-178121667D01*
X26048932Y-178058640D01*
X26055513Y-177987949D01*
X26099267Y-177932038D01*
X26172598Y-177908500D01*
X26598134Y-177908500D01*
X26660316Y-177901745D01*
X26796705Y-177850615D01*
X26913261Y-177763261D01*
X26917388Y-177757754D01*
X26978777Y-177724232D01*
X27049592Y-177729297D01*
X27081125Y-177746527D01*
X27145517Y-177794786D01*
X27153295Y-177800615D01*
X27289684Y-177851745D01*
X27351866Y-177858500D01*
X29948134Y-177858500D01*
X30010316Y-177851745D01*
X30146705Y-177800615D01*
X30263261Y-177713261D01*
X30350615Y-177596705D01*
X30401745Y-177460316D01*
X30408500Y-177398134D01*
X30408500Y-177394669D01*
X31192001Y-177394669D01*
X31192371Y-177401490D01*
X31197895Y-177452352D01*
X31201521Y-177467604D01*
X31246676Y-177588054D01*
X31255214Y-177603649D01*
X31331715Y-177705724D01*
X31344276Y-177718285D01*
X31446351Y-177794786D01*
X31461946Y-177803324D01*
X31582394Y-177848478D01*
X31597649Y-177852105D01*
X31648514Y-177857631D01*
X31655328Y-177858000D01*
X32677885Y-177858000D01*
X32693124Y-177853525D01*
X32694329Y-177852135D01*
X32696000Y-177844452D01*
X32696000Y-177839884D01*
X33204000Y-177839884D01*
X33208475Y-177855123D01*
X33209865Y-177856328D01*
X33217548Y-177857999D01*
X34244669Y-177857999D01*
X34251490Y-177857629D01*
X34302352Y-177852105D01*
X34317604Y-177848479D01*
X34438054Y-177803324D01*
X34453649Y-177794786D01*
X34555724Y-177718285D01*
X34568285Y-177705724D01*
X34644786Y-177603649D01*
X34653324Y-177588054D01*
X34698478Y-177467606D01*
X34702105Y-177452351D01*
X34707631Y-177401486D01*
X34708000Y-177394672D01*
X34708000Y-176472115D01*
X34703525Y-176456876D01*
X34702135Y-176455671D01*
X34694452Y-176454000D01*
X33222115Y-176454000D01*
X33206876Y-176458475D01*
X33205671Y-176459865D01*
X33204000Y-176467548D01*
X33204000Y-177839884D01*
X32696000Y-177839884D01*
X32696000Y-176472115D01*
X32691525Y-176456876D01*
X32690135Y-176455671D01*
X32682452Y-176454000D01*
X31210116Y-176454000D01*
X31194877Y-176458475D01*
X31193672Y-176459865D01*
X31192001Y-176467548D01*
X31192001Y-177394669D01*
X30408500Y-177394669D01*
X30408500Y-175927885D01*
X31192000Y-175927885D01*
X31196475Y-175943124D01*
X31197865Y-175944329D01*
X31205548Y-175946000D01*
X32677885Y-175946000D01*
X32693124Y-175941525D01*
X32694329Y-175940135D01*
X32696000Y-175932452D01*
X32696000Y-175927885D01*
X33204000Y-175927885D01*
X33208475Y-175943124D01*
X33209865Y-175944329D01*
X33217548Y-175946000D01*
X34689884Y-175946000D01*
X34705123Y-175941525D01*
X34706328Y-175940135D01*
X34707999Y-175932452D01*
X34707999Y-175005331D01*
X34707629Y-174998510D01*
X34702105Y-174947648D01*
X34698479Y-174932396D01*
X34653324Y-174811946D01*
X34644786Y-174796351D01*
X34568285Y-174694276D01*
X34555724Y-174681715D01*
X34453649Y-174605214D01*
X34438054Y-174596676D01*
X34317606Y-174551522D01*
X34302351Y-174547895D01*
X34251486Y-174542369D01*
X34244672Y-174542000D01*
X33222115Y-174542000D01*
X33206876Y-174546475D01*
X33205671Y-174547865D01*
X33204000Y-174555548D01*
X33204000Y-175927885D01*
X32696000Y-175927885D01*
X32696000Y-174560116D01*
X32691525Y-174544877D01*
X32690135Y-174543672D01*
X32682452Y-174542001D01*
X31655331Y-174542001D01*
X31648510Y-174542371D01*
X31597648Y-174547895D01*
X31582396Y-174551521D01*
X31461946Y-174596676D01*
X31446351Y-174605214D01*
X31344276Y-174681715D01*
X31331715Y-174694276D01*
X31255214Y-174796351D01*
X31246676Y-174811946D01*
X31201522Y-174932394D01*
X31197895Y-174947649D01*
X31192369Y-174998514D01*
X31192000Y-175005328D01*
X31192000Y-175927885D01*
X30408500Y-175927885D01*
X30408500Y-175001866D01*
X30401745Y-174939684D01*
X30350615Y-174803295D01*
X30263261Y-174686739D01*
X30146705Y-174599385D01*
X30010316Y-174548255D01*
X29948134Y-174541500D01*
X27351866Y-174541500D01*
X27289684Y-174548255D01*
X27153295Y-174599385D01*
X27036739Y-174686739D01*
X27032612Y-174692246D01*
X26971223Y-174725768D01*
X26900408Y-174720703D01*
X26868875Y-174703473D01*
X26803892Y-174654771D01*
X26803890Y-174654770D01*
X26796705Y-174649385D01*
X26660316Y-174598255D01*
X26598134Y-174591500D01*
X24216371Y-174591500D01*
X24148250Y-174571498D01*
X24127276Y-174554595D01*
X23845405Y-174272724D01*
X23811379Y-174210412D01*
X23808500Y-174183629D01*
X23808500Y-173677923D01*
X23828502Y-173609802D01*
X23882158Y-173563309D01*
X23948108Y-173552660D01*
X24001866Y-173558500D01*
X26598134Y-173558500D01*
X26660316Y-173551745D01*
X26796705Y-173500615D01*
X26913261Y-173413261D01*
X26917388Y-173407754D01*
X26978777Y-173374232D01*
X27049592Y-173379297D01*
X27081125Y-173396527D01*
X27145517Y-173444786D01*
X27153295Y-173450615D01*
X27289684Y-173501745D01*
X27351866Y-173508500D01*
X29948134Y-173508500D01*
X30010316Y-173501745D01*
X30146705Y-173450615D01*
X30263261Y-173363261D01*
X30350615Y-173246705D01*
X30401745Y-173110316D01*
X30408500Y-173048134D01*
X30408500Y-173044669D01*
X31192001Y-173044669D01*
X31192371Y-173051490D01*
X31197895Y-173102352D01*
X31201521Y-173117604D01*
X31246676Y-173238054D01*
X31255214Y-173253649D01*
X31331715Y-173355724D01*
X31344276Y-173368285D01*
X31446351Y-173444786D01*
X31461946Y-173453324D01*
X31582394Y-173498478D01*
X31597649Y-173502105D01*
X31648514Y-173507631D01*
X31655328Y-173508000D01*
X32677885Y-173508000D01*
X32693124Y-173503525D01*
X32694329Y-173502135D01*
X32696000Y-173494452D01*
X32696000Y-173489884D01*
X33204000Y-173489884D01*
X33208475Y-173505123D01*
X33209865Y-173506328D01*
X33217548Y-173507999D01*
X34244669Y-173507999D01*
X34251490Y-173507629D01*
X34302352Y-173502105D01*
X34317604Y-173498479D01*
X34438054Y-173453324D01*
X34453649Y-173444786D01*
X34555724Y-173368285D01*
X34568285Y-173355724D01*
X34644786Y-173253649D01*
X34653324Y-173238054D01*
X34698478Y-173117606D01*
X34702105Y-173102351D01*
X34707631Y-173051486D01*
X34708000Y-173044672D01*
X34708000Y-172122115D01*
X34703525Y-172106876D01*
X34702135Y-172105671D01*
X34694452Y-172104000D01*
X33222115Y-172104000D01*
X33206876Y-172108475D01*
X33205671Y-172109865D01*
X33204000Y-172117548D01*
X33204000Y-173489884D01*
X32696000Y-173489884D01*
X32696000Y-172122115D01*
X32691525Y-172106876D01*
X32690135Y-172105671D01*
X32682452Y-172104000D01*
X31210116Y-172104000D01*
X31194877Y-172108475D01*
X31193672Y-172109865D01*
X31192001Y-172117548D01*
X31192001Y-173044669D01*
X30408500Y-173044669D01*
X30408500Y-171516371D01*
X30428502Y-171448250D01*
X30445405Y-171427276D01*
X30976905Y-170895776D01*
X31039217Y-170861750D01*
X31110032Y-170866815D01*
X31166868Y-170909362D01*
X31191679Y-170975882D01*
X31192000Y-170984871D01*
X31192000Y-171577885D01*
X31196475Y-171593124D01*
X31197865Y-171594329D01*
X31205548Y-171596000D01*
X32677885Y-171596000D01*
X32693124Y-171591525D01*
X32694329Y-171590135D01*
X32696000Y-171582452D01*
X32696000Y-171577885D01*
X33204000Y-171577885D01*
X33208475Y-171593124D01*
X33209865Y-171594329D01*
X33217548Y-171596000D01*
X34689884Y-171596000D01*
X34705123Y-171591525D01*
X34706328Y-171590135D01*
X34707999Y-171582452D01*
X34707999Y-170655331D01*
X34707629Y-170648510D01*
X34702105Y-170597648D01*
X34698479Y-170582396D01*
X34653324Y-170461946D01*
X34644786Y-170446351D01*
X34568285Y-170344276D01*
X34555724Y-170331715D01*
X34453649Y-170255214D01*
X34438054Y-170246676D01*
X34317606Y-170201522D01*
X34302351Y-170197895D01*
X34251486Y-170192369D01*
X34244672Y-170192000D01*
X33222115Y-170192000D01*
X33206876Y-170196475D01*
X33205671Y-170197865D01*
X33204000Y-170205548D01*
X33204000Y-171577885D01*
X32696000Y-171577885D01*
X32696000Y-170210116D01*
X32691525Y-170194877D01*
X32690135Y-170193672D01*
X32682452Y-170192001D01*
X31844170Y-170192001D01*
X31776049Y-170171999D01*
X31729556Y-170118343D01*
X31719452Y-170048069D01*
X31720810Y-170040343D01*
X31734490Y-169974572D01*
X31735461Y-169970282D01*
X31751473Y-169904844D01*
X31752808Y-169899390D01*
X31753500Y-169888236D01*
X31753535Y-169888238D01*
X31753775Y-169884266D01*
X31754152Y-169880045D01*
X31755641Y-169872885D01*
X31753546Y-169795458D01*
X31753500Y-169792050D01*
X31753500Y-169392632D01*
X31773502Y-169324511D01*
X31806331Y-169290054D01*
X31874860Y-169241173D01*
X32033096Y-169083489D01*
X32163453Y-168902077D01*
X32184320Y-168859857D01*
X32260136Y-168706453D01*
X32260137Y-168706451D01*
X32262430Y-168701811D01*
X32327370Y-168488069D01*
X32356529Y-168266590D01*
X32358156Y-168200000D01*
X32339852Y-167977361D01*
X32285431Y-167760702D01*
X32283366Y-167755952D01*
X32281703Y-167751068D01*
X32283837Y-167750342D01*
X32276193Y-167689297D01*
X32306859Y-167625265D01*
X32367275Y-167587977D01*
X32400563Y-167583500D01*
X38608629Y-167583500D01*
X38676750Y-167603502D01*
G37*
G04 #@! TD.AperFunction*
G04 #@! TD*
M02*
