M48
INCH,TZ
T1C0.0157
T2C0.0394
%
G90
G05
T1
X5256Y-72461
X6831Y-74488
X7185Y-66142
X7441Y-73425
X7854Y-70335
X8327Y-73228
X8543Y-74665
X9055Y-74193
X9685Y-73406
X9724Y-71260
X10335Y-71673
X10631Y-72692
X10846Y-74094
X11476Y-71555
X11693Y-72480
X11988Y-75000
X12355Y-68235
X12382Y-72953
X12822Y-73989
X13228Y-75512
X13622Y-72016
X13681Y-70020
X14156Y-72332
T2
X6126Y-67638
X6126Y-68638
X6126Y-69638
X6126Y-70638
X6126Y-71638
X6126Y-72638
X6126Y-73638
X6126Y-74638
X8203Y-66220
X8394Y-75866
X9203Y-66220
X9394Y-75866
X10197Y-70728
X10203Y-66220
X10394Y-75866
X11197Y-70728
X11203Y-66220
X11394Y-75866
X12203Y-66220
X12394Y-75866
X14992Y-67638
X14992Y-68638
X14992Y-69638
X14992Y-70638
X14992Y-71638
X14992Y-72638
X14992Y-73638
X14992Y-74638
T0
M30
