G04 #@! TF.GenerationSoftware,KiCad,Pcbnew,(6.0.11)*
G04 #@! TF.CreationDate,2025-08-24T23:10:35+01:00*
G04 #@! TF.ProjectId,PCB_Dongle_Linky,5043425f-446f-46e6-976c-655f4c696e6b,rev?*
G04 #@! TF.SameCoordinates,Original*
G04 #@! TF.FileFunction,Soldermask,Bot*
G04 #@! TF.FilePolarity,Negative*
%FSLAX46Y46*%
G04 Gerber Fmt 4.6, Leading zero omitted, Abs format (unit mm)*
G04 Created by KiCad (PCBNEW (6.0.11)) date 2025-08-24 23:10:35*
%MOMM*%
%LPD*%
G01*
G04 APERTURE LIST*
G04 Aperture macros list*
%AMRoundRect*
0 Rectangle with rounded corners*
0 $1 Rounding radius*
0 $2 $3 $4 $5 $6 $7 $8 $9 X,Y pos of 4 corners*
0 Add a 4 corners polygon primitive as box body*
4,1,4,$2,$3,$4,$5,$6,$7,$8,$9,$2,$3,0*
0 Add four circle primitives for the rounded corners*
1,1,$1+$1,$2,$3*
1,1,$1+$1,$4,$5*
1,1,$1+$1,$6,$7*
1,1,$1+$1,$8,$9*
0 Add four rect primitives between the rounded corners*
20,1,$1+$1,$2,$3,$4,$5,0*
20,1,$1+$1,$4,$5,$6,$7,0*
20,1,$1+$1,$6,$7,$8,$9,0*
20,1,$1+$1,$8,$9,$2,$3,0*%
G04 Aperture macros list end*
%ADD10R,1.700000X1.700000*%
%ADD11O,1.700000X1.700000*%
%ADD12C,2.400000*%
%ADD13R,1.500000X1.780000*%
%ADD14RoundRect,0.250000X-0.262500X-0.450000X0.262500X-0.450000X0.262500X0.450000X-0.262500X0.450000X0*%
%ADD15RoundRect,0.250000X0.450000X-0.262500X0.450000X0.262500X-0.450000X0.262500X-0.450000X-0.262500X0*%
%ADD16RoundRect,0.150000X-0.150000X0.587500X-0.150000X-0.587500X0.150000X-0.587500X0.150000X0.587500X0*%
%ADD17RoundRect,0.250000X-0.450000X0.262500X-0.450000X-0.262500X0.450000X-0.262500X0.450000X0.262500X0*%
%ADD18R,1.500000X2.000000*%
%ADD19R,3.800000X2.000000*%
%ADD20RoundRect,0.150000X0.587500X0.150000X-0.587500X0.150000X-0.587500X-0.150000X0.587500X-0.150000X0*%
%ADD21RoundRect,0.150000X0.150000X-0.825000X0.150000X0.825000X-0.150000X0.825000X-0.150000X-0.825000X0*%
G04 APERTURE END LIST*
D10*
G04 #@! TO.C,J0*
X20835000Y-168200000D03*
D11*
X23375000Y-168200000D03*
X25915000Y-168200000D03*
X28455000Y-168200000D03*
X30995000Y-168200000D03*
G04 #@! TD*
D10*
G04 #@! TO.C,J2*
X38080000Y-171800000D03*
D11*
X38080000Y-174340000D03*
X38080000Y-176880000D03*
X38080000Y-179420000D03*
X38080000Y-181960000D03*
X38080000Y-184500000D03*
X38080000Y-187040000D03*
X38080000Y-189580000D03*
G04 #@! TD*
D10*
G04 #@! TO.C,J1*
X15560000Y-171800000D03*
D11*
X15560000Y-174340000D03*
X15560000Y-176880000D03*
X15560000Y-179420000D03*
X15560000Y-181960000D03*
X15560000Y-184500000D03*
X15560000Y-187040000D03*
X15560000Y-189580000D03*
G04 #@! TD*
D10*
G04 #@! TO.C,J4*
X21470000Y-194182500D03*
D11*
X24010000Y-194182500D03*
X26550000Y-194182500D03*
X29090000Y-194182500D03*
X31630000Y-194182500D03*
G04 #@! TD*
D12*
G04 #@! TO.C,C1*
X19260000Y-181150000D03*
X34260000Y-181150000D03*
G04 #@! TD*
D13*
G04 #@! TO.C,U1*
X25060000Y-177690000D03*
X25060000Y-175150000D03*
X34590000Y-175150000D03*
X34590000Y-177690000D03*
G04 #@! TD*
D14*
G04 #@! TO.C,R2b1*
X31397500Y-170450000D03*
X33222500Y-170450000D03*
G04 #@! TD*
D15*
G04 #@! TO.C,R9*
X18360000Y-186112500D03*
X18360000Y-184287500D03*
G04 #@! TD*
D16*
G04 #@! TO.C,Q2*
X17660000Y-188600000D03*
X19560000Y-188600000D03*
X18610000Y-190475000D03*
G04 #@! TD*
D17*
G04 #@! TO.C,R1*
X22125000Y-170637500D03*
X22125000Y-172462500D03*
G04 #@! TD*
D18*
G04 #@! TO.C,U2*
X21860000Y-180950000D03*
X24160000Y-180950000D03*
D19*
X24160000Y-187250000D03*
D18*
X26460000Y-180950000D03*
G04 #@! TD*
D16*
G04 #@! TO.C,Q1*
X20160000Y-176662500D03*
X22060000Y-176662500D03*
X21110000Y-178537500D03*
G04 #@! TD*
D20*
G04 #@! TO.C,Q3*
X28147500Y-170850000D03*
X28147500Y-172750000D03*
X26272500Y-171800000D03*
G04 #@! TD*
D17*
G04 #@! TO.C,R3*
X18260000Y-177450000D03*
X18260000Y-179275000D03*
G04 #@! TD*
D14*
G04 #@! TO.C,R2a1*
X31397500Y-172400000D03*
X33222500Y-172400000D03*
G04 #@! TD*
D21*
G04 #@! TO.C,U3*
X32165000Y-187575000D03*
X30895000Y-187575000D03*
X29625000Y-187575000D03*
X28355000Y-187575000D03*
X28355000Y-182625000D03*
X29625000Y-182625000D03*
X30895000Y-182625000D03*
X32165000Y-182625000D03*
G04 #@! TD*
M02*
