G04 #@! TF.GenerationSoftware,KiCad,Pcbnew,(6.0.11)*
G04 #@! TF.CreationDate,2025-08-24T23:10:35+01:00*
G04 #@! TF.ProjectId,PCB_Dongle_Linky,5043425f-446f-46e6-976c-655f4c696e6b,rev?*
G04 #@! TF.SameCoordinates,Original*
G04 #@! TF.FileFunction,Legend,Top*
G04 #@! TF.FilePolarity,Positive*
%FSLAX46Y46*%
G04 Gerber Fmt 4.6, Leading zero omitted, Abs format (unit mm)*
G04 Created by KiCad (PCBNEW (6.0.11)) date 2025-08-24 23:10:35*
%MOMM*%
%LPD*%
G01*
G04 APERTURE LIST*
%ADD10C,0.125000*%
%ADD11C,0.150000*%
%ADD12C,0.100000*%
%ADD13C,0.110000*%
%ADD14C,0.120000*%
G04 APERTURE END LIST*
D10*
X18380714Y-195958690D02*
X18380714Y-195458690D01*
X18571190Y-195458690D01*
X18618809Y-195482500D01*
X18642619Y-195506309D01*
X18666428Y-195553928D01*
X18666428Y-195625357D01*
X18642619Y-195672976D01*
X18618809Y-195696785D01*
X18571190Y-195720595D01*
X18380714Y-195720595D01*
X18880714Y-195958690D02*
X18880714Y-195625357D01*
X18880714Y-195458690D02*
X18856904Y-195482500D01*
X18880714Y-195506309D01*
X18904523Y-195482500D01*
X18880714Y-195458690D01*
X18880714Y-195506309D01*
X19118809Y-195625357D02*
X19118809Y-195958690D01*
X19118809Y-195672976D02*
X19142619Y-195649166D01*
X19190238Y-195625357D01*
X19261666Y-195625357D01*
X19309285Y-195649166D01*
X19333095Y-195696785D01*
X19333095Y-195958690D01*
X19833095Y-195958690D02*
X19547380Y-195958690D01*
X19690238Y-195958690D02*
X19690238Y-195458690D01*
X19642619Y-195530119D01*
X19595000Y-195577738D01*
X19547380Y-195601547D01*
X26264047Y-195632500D02*
X26216428Y-195608690D01*
X26145000Y-195608690D01*
X26073571Y-195632500D01*
X26025952Y-195680119D01*
X26002142Y-195727738D01*
X25978333Y-195822976D01*
X25978333Y-195894404D01*
X26002142Y-195989642D01*
X26025952Y-196037261D01*
X26073571Y-196084880D01*
X26145000Y-196108690D01*
X26192619Y-196108690D01*
X26264047Y-196084880D01*
X26287857Y-196061071D01*
X26287857Y-195894404D01*
X26192619Y-195894404D01*
X26502142Y-196108690D02*
X26502142Y-195608690D01*
X26787857Y-196108690D01*
X26787857Y-195608690D01*
X27025952Y-196108690D02*
X27025952Y-195608690D01*
X27145000Y-195608690D01*
X27216428Y-195632500D01*
X27264047Y-195680119D01*
X27287857Y-195727738D01*
X27311666Y-195822976D01*
X27311666Y-195894404D01*
X27287857Y-195989642D01*
X27264047Y-196037261D01*
X27216428Y-196084880D01*
X27145000Y-196108690D01*
X27025952Y-196108690D01*
X36214761Y-190926190D02*
X35976666Y-190926190D01*
X35952857Y-191164285D01*
X35976666Y-191140476D01*
X36024285Y-191116666D01*
X36143333Y-191116666D01*
X36190952Y-191140476D01*
X36214761Y-191164285D01*
X36238571Y-191211904D01*
X36238571Y-191330952D01*
X36214761Y-191378571D01*
X36190952Y-191402380D01*
X36143333Y-191426190D01*
X36024285Y-191426190D01*
X35976666Y-191402380D01*
X35952857Y-191378571D01*
X36381428Y-190926190D02*
X36548095Y-191426190D01*
X36714761Y-190926190D01*
D11*
X18726666Y-167166666D02*
X18726666Y-166466666D01*
X19426666Y-167166666D02*
X19026666Y-167166666D01*
X19226666Y-167166666D02*
X19226666Y-166466666D01*
X19160000Y-166566666D01*
X19093333Y-166633333D01*
X19026666Y-166666666D01*
X24724285Y-166921428D02*
X24724285Y-166321428D01*
X24981428Y-166378571D02*
X25010000Y-166350000D01*
X25067142Y-166321428D01*
X25210000Y-166321428D01*
X25267142Y-166350000D01*
X25295714Y-166378571D01*
X25324285Y-166435714D01*
X25324285Y-166492857D01*
X25295714Y-166578571D01*
X24952857Y-166921428D01*
X25324285Y-166921428D01*
D10*
X34829047Y-179350000D02*
X34781428Y-179326190D01*
X34710000Y-179326190D01*
X34638571Y-179350000D01*
X34590952Y-179397619D01*
X34567142Y-179445238D01*
X34543333Y-179540476D01*
X34543333Y-179611904D01*
X34567142Y-179707142D01*
X34590952Y-179754761D01*
X34638571Y-179802380D01*
X34710000Y-179826190D01*
X34757619Y-179826190D01*
X34829047Y-179802380D01*
X34852857Y-179778571D01*
X34852857Y-179611904D01*
X34757619Y-179611904D01*
X35067142Y-179826190D02*
X35067142Y-179326190D01*
X35352857Y-179826190D01*
X35352857Y-179326190D01*
X35590952Y-179826190D02*
X35590952Y-179326190D01*
X35710000Y-179326190D01*
X35781428Y-179350000D01*
X35829047Y-179397619D01*
X35852857Y-179445238D01*
X35876666Y-179540476D01*
X35876666Y-179611904D01*
X35852857Y-179707142D01*
X35829047Y-179754761D01*
X35781428Y-179802380D01*
X35710000Y-179826190D01*
X35590952Y-179826190D01*
X23349761Y-195608690D02*
X23516428Y-196108690D01*
X23683095Y-195608690D01*
X24064047Y-196084880D02*
X24016428Y-196108690D01*
X23921190Y-196108690D01*
X23873571Y-196084880D01*
X23849761Y-196061071D01*
X23825952Y-196013452D01*
X23825952Y-195870595D01*
X23849761Y-195822976D01*
X23873571Y-195799166D01*
X23921190Y-195775357D01*
X24016428Y-195775357D01*
X24064047Y-195799166D01*
X24492619Y-196084880D02*
X24445000Y-196108690D01*
X24349761Y-196108690D01*
X24302142Y-196084880D01*
X24278333Y-196061071D01*
X24254523Y-196013452D01*
X24254523Y-195870595D01*
X24278333Y-195822976D01*
X24302142Y-195799166D01*
X24349761Y-195775357D01*
X24445000Y-195775357D01*
X24492619Y-195799166D01*
X14856904Y-192258690D02*
X15166428Y-192258690D01*
X14999761Y-192449166D01*
X15071190Y-192449166D01*
X15118809Y-192472976D01*
X15142619Y-192496785D01*
X15166428Y-192544404D01*
X15166428Y-192663452D01*
X15142619Y-192711071D01*
X15118809Y-192734880D01*
X15071190Y-192758690D01*
X14928333Y-192758690D01*
X14880714Y-192734880D01*
X14856904Y-192711071D01*
X15380714Y-192711071D02*
X15404523Y-192734880D01*
X15380714Y-192758690D01*
X15356904Y-192734880D01*
X15380714Y-192711071D01*
X15380714Y-192758690D01*
X15571190Y-192258690D02*
X15880714Y-192258690D01*
X15714047Y-192449166D01*
X15785476Y-192449166D01*
X15833095Y-192472976D01*
X15856904Y-192496785D01*
X15880714Y-192544404D01*
X15880714Y-192663452D01*
X15856904Y-192711071D01*
X15833095Y-192734880D01*
X15785476Y-192758690D01*
X15642619Y-192758690D01*
X15595000Y-192734880D01*
X15571190Y-192711071D01*
X16023571Y-192258690D02*
X16190238Y-192758690D01*
X16356904Y-192258690D01*
D11*
X32571904Y-169016666D02*
X33048095Y-169016666D01*
X32476666Y-169302380D02*
X32810000Y-168302380D01*
X33143333Y-169302380D01*
D10*
X17186190Y-181795238D02*
X17686190Y-181628571D01*
X17186190Y-181461904D01*
X17662380Y-181080952D02*
X17686190Y-181128571D01*
X17686190Y-181223809D01*
X17662380Y-181271428D01*
X17638571Y-181295238D01*
X17590952Y-181319047D01*
X17448095Y-181319047D01*
X17400476Y-181295238D01*
X17376666Y-181271428D01*
X17352857Y-181223809D01*
X17352857Y-181128571D01*
X17376666Y-181080952D01*
X17662380Y-180652380D02*
X17686190Y-180700000D01*
X17686190Y-180795238D01*
X17662380Y-180842857D01*
X17638571Y-180866666D01*
X17590952Y-180890476D01*
X17448095Y-180890476D01*
X17400476Y-180866666D01*
X17376666Y-180842857D01*
X17352857Y-180795238D01*
X17352857Y-180700000D01*
X17376666Y-180652380D01*
X35790952Y-187650000D02*
X35743333Y-187626190D01*
X35671904Y-187626190D01*
X35600476Y-187650000D01*
X35552857Y-187697619D01*
X35529047Y-187745238D01*
X35505238Y-187840476D01*
X35505238Y-187911904D01*
X35529047Y-188007142D01*
X35552857Y-188054761D01*
X35600476Y-188102380D01*
X35671904Y-188126190D01*
X35719523Y-188126190D01*
X35790952Y-188102380D01*
X35814761Y-188078571D01*
X35814761Y-187911904D01*
X35719523Y-187911904D01*
X36029047Y-188126190D02*
X36029047Y-187626190D01*
X36314761Y-188126190D01*
X36314761Y-187626190D01*
X36552857Y-188126190D02*
X36552857Y-187626190D01*
X36671904Y-187626190D01*
X36743333Y-187650000D01*
X36790952Y-187697619D01*
X36814761Y-187745238D01*
X36838571Y-187840476D01*
X36838571Y-187911904D01*
X36814761Y-188007142D01*
X36790952Y-188054761D01*
X36743333Y-188102380D01*
X36671904Y-188126190D01*
X36552857Y-188126190D01*
X37314761Y-188126190D02*
X37029047Y-188126190D01*
X37171904Y-188126190D02*
X37171904Y-187626190D01*
X37124285Y-187697619D01*
X37076666Y-187745238D01*
X37029047Y-187769047D01*
G04 #@! TO.C,R4*
X23826666Y-181826190D02*
X23660000Y-181588095D01*
X23540952Y-181826190D02*
X23540952Y-181326190D01*
X23731428Y-181326190D01*
X23779047Y-181350000D01*
X23802857Y-181373809D01*
X23826666Y-181421428D01*
X23826666Y-181492857D01*
X23802857Y-181540476D01*
X23779047Y-181564285D01*
X23731428Y-181588095D01*
X23540952Y-181588095D01*
X24255238Y-181492857D02*
X24255238Y-181826190D01*
X24136190Y-181302380D02*
X24017142Y-181659523D01*
X24326666Y-181659523D01*
D11*
G04 #@! TO.C,R12*
X26619642Y-192102380D02*
X26286309Y-191626190D01*
X26048214Y-192102380D02*
X26048214Y-191102380D01*
X26429166Y-191102380D01*
X26524404Y-191150000D01*
X26572023Y-191197619D01*
X26619642Y-191292857D01*
X26619642Y-191435714D01*
X26572023Y-191530952D01*
X26524404Y-191578571D01*
X26429166Y-191626190D01*
X26048214Y-191626190D01*
X27572023Y-192102380D02*
X27000595Y-192102380D01*
X27286309Y-192102380D02*
X27286309Y-191102380D01*
X27191071Y-191245238D01*
X27095833Y-191340476D01*
X27000595Y-191388095D01*
X27952976Y-191197619D02*
X28000595Y-191150000D01*
X28095833Y-191102380D01*
X28333928Y-191102380D01*
X28429166Y-191150000D01*
X28476785Y-191197619D01*
X28524404Y-191292857D01*
X28524404Y-191388095D01*
X28476785Y-191530952D01*
X27905357Y-192102380D01*
X28524404Y-192102380D01*
D10*
G04 #@! TO.C,C2b0*
X19862380Y-187978571D02*
X19838571Y-188002380D01*
X19767142Y-188026190D01*
X19719523Y-188026190D01*
X19648095Y-188002380D01*
X19600476Y-187954761D01*
X19576666Y-187907142D01*
X19552857Y-187811904D01*
X19552857Y-187740476D01*
X19576666Y-187645238D01*
X19600476Y-187597619D01*
X19648095Y-187550000D01*
X19719523Y-187526190D01*
X19767142Y-187526190D01*
X19838571Y-187550000D01*
X19862380Y-187573809D01*
X20052857Y-187573809D02*
X20076666Y-187550000D01*
X20124285Y-187526190D01*
X20243333Y-187526190D01*
X20290952Y-187550000D01*
X20314761Y-187573809D01*
X20338571Y-187621428D01*
X20338571Y-187669047D01*
X20314761Y-187740476D01*
X20029047Y-188026190D01*
X20338571Y-188026190D01*
X20552857Y-188026190D02*
X20552857Y-187526190D01*
X20552857Y-187716666D02*
X20600476Y-187692857D01*
X20695714Y-187692857D01*
X20743333Y-187716666D01*
X20767142Y-187740476D01*
X20790952Y-187788095D01*
X20790952Y-187930952D01*
X20767142Y-187978571D01*
X20743333Y-188002380D01*
X20695714Y-188026190D01*
X20600476Y-188026190D01*
X20552857Y-188002380D01*
X21100476Y-187526190D02*
X21148095Y-187526190D01*
X21195714Y-187550000D01*
X21219523Y-187573809D01*
X21243333Y-187621428D01*
X21267142Y-187716666D01*
X21267142Y-187835714D01*
X21243333Y-187930952D01*
X21219523Y-187978571D01*
X21195714Y-188002380D01*
X21148095Y-188026190D01*
X21100476Y-188026190D01*
X21052857Y-188002380D01*
X21029047Y-187978571D01*
X21005238Y-187930952D01*
X20981428Y-187835714D01*
X20981428Y-187716666D01*
X21005238Y-187621428D01*
X21029047Y-187573809D01*
X21052857Y-187550000D01*
X21100476Y-187526190D01*
G04 #@! TO.C,D4*
X30190952Y-176726190D02*
X30190952Y-176226190D01*
X30310000Y-176226190D01*
X30381428Y-176250000D01*
X30429047Y-176297619D01*
X30452857Y-176345238D01*
X30476666Y-176440476D01*
X30476666Y-176511904D01*
X30452857Y-176607142D01*
X30429047Y-176654761D01*
X30381428Y-176702380D01*
X30310000Y-176726190D01*
X30190952Y-176726190D01*
X30905238Y-176392857D02*
X30905238Y-176726190D01*
X30786190Y-176202380D02*
X30667142Y-176559523D01*
X30976666Y-176559523D01*
G04 #@! TO.C,D1*
X22640952Y-173526190D02*
X22640952Y-173026190D01*
X22760000Y-173026190D01*
X22831428Y-173050000D01*
X22879047Y-173097619D01*
X22902857Y-173145238D01*
X22926666Y-173240476D01*
X22926666Y-173311904D01*
X22902857Y-173407142D01*
X22879047Y-173454761D01*
X22831428Y-173502380D01*
X22760000Y-173526190D01*
X22640952Y-173526190D01*
X23402857Y-173526190D02*
X23117142Y-173526190D01*
X23260000Y-173526190D02*
X23260000Y-173026190D01*
X23212380Y-173097619D01*
X23164761Y-173145238D01*
X23117142Y-173169047D01*
D11*
G04 #@! TO.C,J0*
X32002857Y-167071428D02*
X32002857Y-167500000D01*
X31974285Y-167585714D01*
X31917142Y-167642857D01*
X31831428Y-167671428D01*
X31774285Y-167671428D01*
X32402857Y-167071428D02*
X32460000Y-167071428D01*
X32517142Y-167100000D01*
X32545714Y-167128571D01*
X32574285Y-167185714D01*
X32602857Y-167300000D01*
X32602857Y-167442857D01*
X32574285Y-167557142D01*
X32545714Y-167614285D01*
X32517142Y-167642857D01*
X32460000Y-167671428D01*
X32402857Y-167671428D01*
X32345714Y-167642857D01*
X32317142Y-167614285D01*
X32288571Y-167557142D01*
X32260000Y-167442857D01*
X32260000Y-167300000D01*
X32288571Y-167185714D01*
X32317142Y-167128571D01*
X32345714Y-167100000D01*
X32402857Y-167071428D01*
X33602857Y-167671428D02*
X33317142Y-167671428D01*
X33317142Y-167071428D01*
X33802857Y-167671428D02*
X33802857Y-167271428D01*
X33802857Y-167071428D02*
X33774285Y-167100000D01*
X33802857Y-167128571D01*
X33831428Y-167100000D01*
X33802857Y-167071428D01*
X33802857Y-167128571D01*
X34088571Y-167271428D02*
X34088571Y-167671428D01*
X34088571Y-167328571D02*
X34117142Y-167300000D01*
X34174285Y-167271428D01*
X34260000Y-167271428D01*
X34317142Y-167300000D01*
X34345714Y-167357142D01*
X34345714Y-167671428D01*
X34631428Y-167671428D02*
X34631428Y-167071428D01*
X34688571Y-167442857D02*
X34860000Y-167671428D01*
X34860000Y-167271428D02*
X34631428Y-167500000D01*
X35060000Y-167271428D02*
X35202857Y-167671428D01*
X35345714Y-167271428D02*
X35202857Y-167671428D01*
X35145714Y-167814285D01*
X35117142Y-167842857D01*
X35060000Y-167871428D01*
D10*
G04 #@! TO.C,J2*
X37069523Y-169526190D02*
X37188571Y-170026190D01*
X37283809Y-169669047D01*
X37379047Y-170026190D01*
X37498095Y-169526190D01*
X37879047Y-170002380D02*
X37831428Y-170026190D01*
X37736190Y-170026190D01*
X37688571Y-170002380D01*
X37664761Y-169954761D01*
X37664761Y-169764285D01*
X37688571Y-169716666D01*
X37736190Y-169692857D01*
X37831428Y-169692857D01*
X37879047Y-169716666D01*
X37902857Y-169764285D01*
X37902857Y-169811904D01*
X37664761Y-169859523D01*
X38117142Y-170026190D02*
X38117142Y-169526190D01*
X38283809Y-169883333D01*
X38450476Y-169526190D01*
X38450476Y-170026190D01*
X38760000Y-170026190D02*
X38712380Y-170002380D01*
X38688571Y-169978571D01*
X38664761Y-169930952D01*
X38664761Y-169788095D01*
X38688571Y-169740476D01*
X38712380Y-169716666D01*
X38760000Y-169692857D01*
X38831428Y-169692857D01*
X38879047Y-169716666D01*
X38902857Y-169740476D01*
X38926666Y-169788095D01*
X38926666Y-169930952D01*
X38902857Y-169978571D01*
X38879047Y-170002380D01*
X38831428Y-170026190D01*
X38760000Y-170026190D01*
G04 #@! TO.C,J1*
X14606904Y-193058690D02*
X14725952Y-193558690D01*
X14821190Y-193201547D01*
X14916428Y-193558690D01*
X15035476Y-193058690D01*
X15416428Y-193534880D02*
X15368809Y-193558690D01*
X15273571Y-193558690D01*
X15225952Y-193534880D01*
X15202142Y-193487261D01*
X15202142Y-193296785D01*
X15225952Y-193249166D01*
X15273571Y-193225357D01*
X15368809Y-193225357D01*
X15416428Y-193249166D01*
X15440238Y-193296785D01*
X15440238Y-193344404D01*
X15202142Y-193392023D01*
X15654523Y-193558690D02*
X15654523Y-193225357D01*
X15654523Y-193272976D02*
X15678333Y-193249166D01*
X15725952Y-193225357D01*
X15797380Y-193225357D01*
X15845000Y-193249166D01*
X15868809Y-193296785D01*
X15868809Y-193558690D01*
X15868809Y-193296785D02*
X15892619Y-193249166D01*
X15940238Y-193225357D01*
X16011666Y-193225357D01*
X16059285Y-193249166D01*
X16083095Y-193296785D01*
X16083095Y-193558690D01*
X16392619Y-193558690D02*
X16345000Y-193534880D01*
X16321190Y-193511071D01*
X16297380Y-193463452D01*
X16297380Y-193320595D01*
X16321190Y-193272976D01*
X16345000Y-193249166D01*
X16392619Y-193225357D01*
X16464047Y-193225357D01*
X16511666Y-193249166D01*
X16535476Y-193272976D01*
X16559285Y-193320595D01*
X16559285Y-193463452D01*
X16535476Y-193511071D01*
X16511666Y-193534880D01*
X16464047Y-193558690D01*
X16392619Y-193558690D01*
G04 #@! TO.C,J4*
X19071190Y-194399166D02*
X19428333Y-194399166D01*
X19499761Y-194422976D01*
X19547380Y-194470595D01*
X19571190Y-194542023D01*
X19571190Y-194589642D01*
X19237857Y-193946785D02*
X19571190Y-193946785D01*
X19047380Y-194065833D02*
X19404523Y-194184880D01*
X19404523Y-193875357D01*
D11*
X31378333Y-195999166D02*
X31378333Y-195299166D01*
X31645000Y-195299166D01*
X31711666Y-195332500D01*
X31745000Y-195365833D01*
X31778333Y-195432500D01*
X31778333Y-195532500D01*
X31745000Y-195599166D01*
X31711666Y-195632500D01*
X31645000Y-195665833D01*
X31378333Y-195665833D01*
X32078333Y-195999166D02*
X32078333Y-195532500D01*
X32078333Y-195299166D02*
X32045000Y-195332500D01*
X32078333Y-195365833D01*
X32111666Y-195332500D01*
X32078333Y-195299166D01*
X32078333Y-195365833D01*
X32711666Y-195965833D02*
X32645000Y-195999166D01*
X32511666Y-195999166D01*
X32445000Y-195965833D01*
X32411666Y-195932500D01*
X32378333Y-195865833D01*
X32378333Y-195665833D01*
X32411666Y-195599166D01*
X32445000Y-195565833D01*
X32511666Y-195532500D01*
X32645000Y-195532500D01*
X32711666Y-195565833D01*
X33011666Y-195999166D02*
X33011666Y-195299166D01*
X33078333Y-195732500D02*
X33278333Y-195999166D01*
X33278333Y-195532500D02*
X33011666Y-195799166D01*
X33578333Y-195999166D02*
X33578333Y-195532500D01*
X33578333Y-195299166D02*
X33545000Y-195332500D01*
X33578333Y-195365833D01*
X33611666Y-195332500D01*
X33578333Y-195299166D01*
X33578333Y-195365833D01*
X33811666Y-195532500D02*
X34078333Y-195532500D01*
X33911666Y-195299166D02*
X33911666Y-195899166D01*
X33945000Y-195965833D01*
X34011666Y-195999166D01*
X34078333Y-195999166D01*
X34311666Y-195732500D02*
X34845000Y-195732500D01*
X35111666Y-195299166D02*
X35545000Y-195299166D01*
X35311666Y-195565833D01*
X35411666Y-195565833D01*
X35478333Y-195599166D01*
X35511666Y-195632500D01*
X35545000Y-195699166D01*
X35545000Y-195865833D01*
X35511666Y-195932500D01*
X35478333Y-195965833D01*
X35411666Y-195999166D01*
X35211666Y-195999166D01*
X35145000Y-195965833D01*
X35111666Y-195932500D01*
D12*
G04 #@! TO.C,R10*
X17666071Y-188026190D02*
X17499404Y-187788095D01*
X17380357Y-188026190D02*
X17380357Y-187526190D01*
X17570833Y-187526190D01*
X17618452Y-187550000D01*
X17642261Y-187573809D01*
X17666071Y-187621428D01*
X17666071Y-187692857D01*
X17642261Y-187740476D01*
X17618452Y-187764285D01*
X17570833Y-187788095D01*
X17380357Y-187788095D01*
X18142261Y-188026190D02*
X17856547Y-188026190D01*
X17999404Y-188026190D02*
X17999404Y-187526190D01*
X17951785Y-187597619D01*
X17904166Y-187645238D01*
X17856547Y-187669047D01*
X18451785Y-187526190D02*
X18499404Y-187526190D01*
X18547023Y-187550000D01*
X18570833Y-187573809D01*
X18594642Y-187621428D01*
X18618452Y-187716666D01*
X18618452Y-187835714D01*
X18594642Y-187930952D01*
X18570833Y-187978571D01*
X18547023Y-188002380D01*
X18499404Y-188026190D01*
X18451785Y-188026190D01*
X18404166Y-188002380D01*
X18380357Y-187978571D01*
X18356547Y-187930952D01*
X18332738Y-187835714D01*
X18332738Y-187716666D01*
X18356547Y-187621428D01*
X18380357Y-187573809D01*
X18404166Y-187550000D01*
X18451785Y-187526190D01*
D10*
G04 #@! TO.C,C2b1*
X19212380Y-183278571D02*
X19188571Y-183302380D01*
X19117142Y-183326190D01*
X19069523Y-183326190D01*
X18998095Y-183302380D01*
X18950476Y-183254761D01*
X18926666Y-183207142D01*
X18902857Y-183111904D01*
X18902857Y-183040476D01*
X18926666Y-182945238D01*
X18950476Y-182897619D01*
X18998095Y-182850000D01*
X19069523Y-182826190D01*
X19117142Y-182826190D01*
X19188571Y-182850000D01*
X19212380Y-182873809D01*
X19402857Y-182873809D02*
X19426666Y-182850000D01*
X19474285Y-182826190D01*
X19593333Y-182826190D01*
X19640952Y-182850000D01*
X19664761Y-182873809D01*
X19688571Y-182921428D01*
X19688571Y-182969047D01*
X19664761Y-183040476D01*
X19379047Y-183326190D01*
X19688571Y-183326190D01*
X19902857Y-183326190D02*
X19902857Y-182826190D01*
X19902857Y-183016666D02*
X19950476Y-182992857D01*
X20045714Y-182992857D01*
X20093333Y-183016666D01*
X20117142Y-183040476D01*
X20140952Y-183088095D01*
X20140952Y-183230952D01*
X20117142Y-183278571D01*
X20093333Y-183302380D01*
X20045714Y-183326190D01*
X19950476Y-183326190D01*
X19902857Y-183302380D01*
X20617142Y-183326190D02*
X20331428Y-183326190D01*
X20474285Y-183326190D02*
X20474285Y-182826190D01*
X20426666Y-182897619D01*
X20379047Y-182945238D01*
X20331428Y-182969047D01*
D11*
G04 #@! TO.C,R13*
X36062380Y-193980357D02*
X35586190Y-194313690D01*
X36062380Y-194551785D02*
X35062380Y-194551785D01*
X35062380Y-194170833D01*
X35110000Y-194075595D01*
X35157619Y-194027976D01*
X35252857Y-193980357D01*
X35395714Y-193980357D01*
X35490952Y-194027976D01*
X35538571Y-194075595D01*
X35586190Y-194170833D01*
X35586190Y-194551785D01*
X36062380Y-193027976D02*
X36062380Y-193599404D01*
X36062380Y-193313690D02*
X35062380Y-193313690D01*
X35205238Y-193408928D01*
X35300476Y-193504166D01*
X35348095Y-193599404D01*
X35062380Y-192694642D02*
X35062380Y-192075595D01*
X35443333Y-192408928D01*
X35443333Y-192266071D01*
X35490952Y-192170833D01*
X35538571Y-192123214D01*
X35633809Y-192075595D01*
X35871904Y-192075595D01*
X35967142Y-192123214D01*
X36014761Y-192170833D01*
X36062380Y-192266071D01*
X36062380Y-192551785D01*
X36014761Y-192647023D01*
X35967142Y-192694642D01*
G04 #@! TO.C,Q4*
X25042261Y-189447619D02*
X24947023Y-189400000D01*
X24851785Y-189304761D01*
X24708928Y-189161904D01*
X24613690Y-189114285D01*
X24518452Y-189114285D01*
X24566071Y-189352380D02*
X24470833Y-189304761D01*
X24375595Y-189209523D01*
X24327976Y-189019047D01*
X24327976Y-188685714D01*
X24375595Y-188495238D01*
X24470833Y-188400000D01*
X24566071Y-188352380D01*
X24756547Y-188352380D01*
X24851785Y-188400000D01*
X24947023Y-188495238D01*
X24994642Y-188685714D01*
X24994642Y-189019047D01*
X24947023Y-189209523D01*
X24851785Y-189304761D01*
X24756547Y-189352380D01*
X24566071Y-189352380D01*
X25851785Y-188685714D02*
X25851785Y-189352380D01*
X25613690Y-188304761D02*
X25375595Y-189019047D01*
X25994642Y-189019047D01*
D10*
G04 #@! TO.C,D3*
X22640952Y-177076190D02*
X22640952Y-176576190D01*
X22760000Y-176576190D01*
X22831428Y-176600000D01*
X22879047Y-176647619D01*
X22902857Y-176695238D01*
X22926666Y-176790476D01*
X22926666Y-176861904D01*
X22902857Y-176957142D01*
X22879047Y-177004761D01*
X22831428Y-177052380D01*
X22760000Y-177076190D01*
X22640952Y-177076190D01*
X23093333Y-176576190D02*
X23402857Y-176576190D01*
X23236190Y-176766666D01*
X23307619Y-176766666D01*
X23355238Y-176790476D01*
X23379047Y-176814285D01*
X23402857Y-176861904D01*
X23402857Y-176980952D01*
X23379047Y-177028571D01*
X23355238Y-177052380D01*
X23307619Y-177076190D01*
X23164761Y-177076190D01*
X23117142Y-177052380D01*
X23093333Y-177028571D01*
G04 #@! TO.C,R5*
X27826666Y-180976190D02*
X27660000Y-180738095D01*
X27540952Y-180976190D02*
X27540952Y-180476190D01*
X27731428Y-180476190D01*
X27779047Y-180500000D01*
X27802857Y-180523809D01*
X27826666Y-180571428D01*
X27826666Y-180642857D01*
X27802857Y-180690476D01*
X27779047Y-180714285D01*
X27731428Y-180738095D01*
X27540952Y-180738095D01*
X28279047Y-180476190D02*
X28040952Y-180476190D01*
X28017142Y-180714285D01*
X28040952Y-180690476D01*
X28088571Y-180666666D01*
X28207619Y-180666666D01*
X28255238Y-180690476D01*
X28279047Y-180714285D01*
X28302857Y-180761904D01*
X28302857Y-180880952D01*
X28279047Y-180928571D01*
X28255238Y-180952380D01*
X28207619Y-180976190D01*
X28088571Y-180976190D01*
X28040952Y-180952380D01*
X28017142Y-180928571D01*
G04 #@! TO.C,C1*
X18276666Y-179528571D02*
X18252857Y-179552380D01*
X18181428Y-179576190D01*
X18133809Y-179576190D01*
X18062380Y-179552380D01*
X18014761Y-179504761D01*
X17990952Y-179457142D01*
X17967142Y-179361904D01*
X17967142Y-179290476D01*
X17990952Y-179195238D01*
X18014761Y-179147619D01*
X18062380Y-179100000D01*
X18133809Y-179076190D01*
X18181428Y-179076190D01*
X18252857Y-179100000D01*
X18276666Y-179123809D01*
X18752857Y-179576190D02*
X18467142Y-179576190D01*
X18610000Y-179576190D02*
X18610000Y-179076190D01*
X18562380Y-179147619D01*
X18514761Y-179195238D01*
X18467142Y-179219047D01*
D11*
G04 #@! TO.C,R11*
X21207142Y-188202380D02*
X20873809Y-187726190D01*
X20635714Y-188202380D02*
X20635714Y-187202380D01*
X21016666Y-187202380D01*
X21111904Y-187250000D01*
X21159523Y-187297619D01*
X21207142Y-187392857D01*
X21207142Y-187535714D01*
X21159523Y-187630952D01*
X21111904Y-187678571D01*
X21016666Y-187726190D01*
X20635714Y-187726190D01*
X22159523Y-188202380D02*
X21588095Y-188202380D01*
X21873809Y-188202380D02*
X21873809Y-187202380D01*
X21778571Y-187345238D01*
X21683333Y-187440476D01*
X21588095Y-187488095D01*
X23111904Y-188202380D02*
X22540476Y-188202380D01*
X22826190Y-188202380D02*
X22826190Y-187202380D01*
X22730952Y-187345238D01*
X22635714Y-187440476D01*
X22540476Y-187488095D01*
D13*
G04 #@! TO.C,R7*
X34726666Y-184426190D02*
X34560000Y-184188095D01*
X34440952Y-184426190D02*
X34440952Y-183926190D01*
X34631428Y-183926190D01*
X34679047Y-183950000D01*
X34702857Y-183973809D01*
X34726666Y-184021428D01*
X34726666Y-184092857D01*
X34702857Y-184140476D01*
X34679047Y-184164285D01*
X34631428Y-184188095D01*
X34440952Y-184188095D01*
X34893333Y-183926190D02*
X35226666Y-183926190D01*
X35012380Y-184426190D01*
D10*
G04 #@! TO.C,R6*
X25126666Y-185026190D02*
X24960000Y-184788095D01*
X24840952Y-185026190D02*
X24840952Y-184526190D01*
X25031428Y-184526190D01*
X25079047Y-184550000D01*
X25102857Y-184573809D01*
X25126666Y-184621428D01*
X25126666Y-184692857D01*
X25102857Y-184740476D01*
X25079047Y-184764285D01*
X25031428Y-184788095D01*
X24840952Y-184788095D01*
X25555238Y-184526190D02*
X25460000Y-184526190D01*
X25412380Y-184550000D01*
X25388571Y-184573809D01*
X25340952Y-184645238D01*
X25317142Y-184740476D01*
X25317142Y-184930952D01*
X25340952Y-184978571D01*
X25364761Y-185002380D01*
X25412380Y-185026190D01*
X25507619Y-185026190D01*
X25555238Y-185002380D01*
X25579047Y-184978571D01*
X25602857Y-184930952D01*
X25602857Y-184811904D01*
X25579047Y-184764285D01*
X25555238Y-184740476D01*
X25507619Y-184716666D01*
X25412380Y-184716666D01*
X25364761Y-184740476D01*
X25340952Y-184764285D01*
X25317142Y-184811904D01*
G04 #@! TO.C,DZ1*
X29602857Y-184626190D02*
X29602857Y-184126190D01*
X29721904Y-184126190D01*
X29793333Y-184150000D01*
X29840952Y-184197619D01*
X29864761Y-184245238D01*
X29888571Y-184340476D01*
X29888571Y-184411904D01*
X29864761Y-184507142D01*
X29840952Y-184554761D01*
X29793333Y-184602380D01*
X29721904Y-184626190D01*
X29602857Y-184626190D01*
X30055238Y-184126190D02*
X30388571Y-184126190D01*
X30055238Y-184626190D01*
X30388571Y-184626190D01*
X30840952Y-184626190D02*
X30555238Y-184626190D01*
X30698095Y-184626190D02*
X30698095Y-184126190D01*
X30650476Y-184197619D01*
X30602857Y-184245238D01*
X30555238Y-184269047D01*
D12*
G04 #@! TO.C,R8*
X35995000Y-193341428D02*
X35795000Y-193055714D01*
X35652142Y-193341428D02*
X35652142Y-192741428D01*
X35880714Y-192741428D01*
X35937857Y-192770000D01*
X35966428Y-192798571D01*
X35995000Y-192855714D01*
X35995000Y-192941428D01*
X35966428Y-192998571D01*
X35937857Y-193027142D01*
X35880714Y-193055714D01*
X35652142Y-193055714D01*
X36337857Y-192998571D02*
X36280714Y-192970000D01*
X36252142Y-192941428D01*
X36223571Y-192884285D01*
X36223571Y-192855714D01*
X36252142Y-192798571D01*
X36280714Y-192770000D01*
X36337857Y-192741428D01*
X36452142Y-192741428D01*
X36509285Y-192770000D01*
X36537857Y-192798571D01*
X36566428Y-192855714D01*
X36566428Y-192884285D01*
X36537857Y-192941428D01*
X36509285Y-192970000D01*
X36452142Y-192998571D01*
X36337857Y-192998571D01*
X36280714Y-193027142D01*
X36252142Y-193055714D01*
X36223571Y-193112857D01*
X36223571Y-193227142D01*
X36252142Y-193284285D01*
X36280714Y-193312857D01*
X36337857Y-193341428D01*
X36452142Y-193341428D01*
X36509285Y-193312857D01*
X36537857Y-193284285D01*
X36566428Y-193227142D01*
X36566428Y-193112857D01*
X36537857Y-193055714D01*
X36509285Y-193027142D01*
X36452142Y-192998571D01*
D10*
G04 #@! TO.C,D2*
X30240952Y-174126190D02*
X30240952Y-173626190D01*
X30360000Y-173626190D01*
X30431428Y-173650000D01*
X30479047Y-173697619D01*
X30502857Y-173745238D01*
X30526666Y-173840476D01*
X30526666Y-173911904D01*
X30502857Y-174007142D01*
X30479047Y-174054761D01*
X30431428Y-174102380D01*
X30360000Y-174126190D01*
X30240952Y-174126190D01*
X30717142Y-173673809D02*
X30740952Y-173650000D01*
X30788571Y-173626190D01*
X30907619Y-173626190D01*
X30955238Y-173650000D01*
X30979047Y-173673809D01*
X31002857Y-173721428D01*
X31002857Y-173769047D01*
X30979047Y-173840476D01*
X30693333Y-174126190D01*
X31002857Y-174126190D01*
D14*
G04 #@! TO.C,R4*
X24037064Y-183535000D02*
X23582936Y-183535000D01*
X24037064Y-182065000D02*
X23582936Y-182065000D01*
G04 #@! TO.C,R12*
X27489564Y-189265000D02*
X27035436Y-189265000D01*
X27489564Y-190735000D02*
X27035436Y-190735000D01*
G04 #@! TO.C,C2b0*
X20671252Y-187335000D02*
X20148748Y-187335000D01*
X20671252Y-185865000D02*
X20148748Y-185865000D01*
G04 #@! TO.C,D4*
X27010000Y-176000000D02*
X32710000Y-176000000D01*
X27010000Y-176000000D02*
X27010000Y-180300000D01*
X27010000Y-180300000D02*
X32710000Y-180300000D01*
G04 #@! TO.C,D1*
X19560000Y-175600000D02*
X25260000Y-175600000D01*
X19560000Y-171300000D02*
X25260000Y-171300000D01*
X19560000Y-171300000D02*
X19560000Y-175600000D01*
G04 #@! TO.C,J0*
X32325000Y-169530000D02*
X32325000Y-166870000D01*
X19505000Y-169530000D02*
X19505000Y-168200000D01*
X22105000Y-169530000D02*
X32325000Y-169530000D01*
X22105000Y-169530000D02*
X22105000Y-166870000D01*
X20835000Y-169530000D02*
X19505000Y-169530000D01*
X22105000Y-166870000D02*
X32325000Y-166870000D01*
G04 #@! TO.C,J2*
X36750000Y-173070000D02*
X39410000Y-173070000D01*
X39410000Y-173070000D02*
X39410000Y-190910000D01*
X36750000Y-170470000D02*
X38080000Y-170470000D01*
X36750000Y-190910000D02*
X39410000Y-190910000D01*
X36750000Y-173070000D02*
X36750000Y-190910000D01*
X36750000Y-171800000D02*
X36750000Y-170470000D01*
G04 #@! TO.C,J1*
X14230000Y-171800000D02*
X14230000Y-170470000D01*
X14230000Y-173070000D02*
X16890000Y-173070000D01*
X14230000Y-190910000D02*
X16890000Y-190910000D01*
X14230000Y-170470000D02*
X15560000Y-170470000D01*
X14230000Y-173070000D02*
X14230000Y-190910000D01*
X16890000Y-173070000D02*
X16890000Y-190910000D01*
G04 #@! TO.C,J4*
X21470000Y-195512500D02*
X20140000Y-195512500D01*
X22740000Y-195512500D02*
X32960000Y-195512500D01*
X22740000Y-195512500D02*
X22740000Y-192852500D01*
X32960000Y-195512500D02*
X32960000Y-192852500D01*
X20140000Y-195512500D02*
X20140000Y-194182500D01*
X22740000Y-192852500D02*
X32960000Y-192852500D01*
G04 #@! TO.C,R10*
X18360436Y-189735000D02*
X18814564Y-189735000D01*
X18360436Y-188265000D02*
X18814564Y-188265000D01*
G04 #@! TO.C,C2b1*
X18798748Y-184985000D02*
X19321252Y-184985000D01*
X18798748Y-183515000D02*
X19321252Y-183515000D01*
G04 #@! TO.C,R13*
X33225000Y-193110436D02*
X33225000Y-193564564D01*
X34695000Y-193110436D02*
X34695000Y-193564564D01*
G04 #@! TO.C,Q4*
X25137500Y-189740000D02*
X23462500Y-189740000D01*
X25137500Y-192860000D02*
X25787500Y-192860000D01*
X25137500Y-189740000D02*
X25787500Y-189740000D01*
X25137500Y-192860000D02*
X24487500Y-192860000D01*
G04 #@! TO.C,D3*
X19510000Y-176000000D02*
X19510000Y-180300000D01*
X19510000Y-176000000D02*
X25210000Y-176000000D01*
X19510000Y-180300000D02*
X25210000Y-180300000D01*
G04 #@! TO.C,R5*
X28737064Y-182785000D02*
X28282936Y-182785000D01*
X28737064Y-181315000D02*
X28282936Y-181315000D01*
G04 #@! TO.C,C1*
X17140000Y-175530000D02*
X17140000Y-186770000D01*
X17140000Y-175530000D02*
X36380000Y-175530000D01*
X36380000Y-175530000D02*
X36380000Y-186770000D01*
X17140000Y-186770000D02*
X36380000Y-186770000D01*
G04 #@! TO.C,R11*
X21622936Y-188665000D02*
X22077064Y-188665000D01*
X21622936Y-190135000D02*
X22077064Y-190135000D01*
G04 #@! TO.C,R7*
X34932936Y-184515000D02*
X35387064Y-184515000D01*
X34932936Y-185985000D02*
X35387064Y-185985000D01*
G04 #@! TO.C,R6*
X25437064Y-185015000D02*
X24982936Y-185015000D01*
X25437064Y-186485000D02*
X24982936Y-186485000D01*
G04 #@! TO.C,DZ1*
X27760000Y-186800000D02*
X31660000Y-186800000D01*
X27760000Y-184800000D02*
X31660000Y-184800000D01*
X27760000Y-184800000D02*
X27760000Y-186800000D01*
G04 #@! TO.C,R8*
X38830000Y-193855436D02*
X38830000Y-194309564D01*
X37360000Y-193855436D02*
X37360000Y-194309564D01*
G04 #@! TO.C,D2*
X27010000Y-171300000D02*
X32710000Y-171300000D01*
X27010000Y-171300000D02*
X27010000Y-175600000D01*
X27010000Y-175600000D02*
X32710000Y-175600000D01*
G04 #@! TD*
M02*
