G04 #@! TF.GenerationSoftware,KiCad,Pcbnew,(6.0.11)*
G04 #@! TF.CreationDate,2025-08-24T23:10:35+01:00*
G04 #@! TF.ProjectId,PCB_Dongle_Linky,5043425f-446f-46e6-976c-655f4c696e6b,rev?*
G04 #@! TF.SameCoordinates,Original*
G04 #@! TF.FileFunction,Legend,Bot*
G04 #@! TF.FilePolarity,Positive*
%FSLAX46Y46*%
G04 Gerber Fmt 4.6, Leading zero omitted, Abs format (unit mm)*
G04 Created by KiCad (PCBNEW (6.0.11)) date 2025-08-24 23:10:35*
%MOMM*%
%LPD*%
G01*
G04 APERTURE LIST*
%ADD10C,0.125000*%
%ADD11C,0.100000*%
%ADD12C,0.150000*%
%ADD13C,0.120000*%
G04 APERTURE END LIST*
D10*
X33779047Y-179100000D02*
X33731428Y-179076190D01*
X33660000Y-179076190D01*
X33588571Y-179100000D01*
X33540952Y-179147619D01*
X33517142Y-179195238D01*
X33493333Y-179290476D01*
X33493333Y-179361904D01*
X33517142Y-179457142D01*
X33540952Y-179504761D01*
X33588571Y-179552380D01*
X33660000Y-179576190D01*
X33707619Y-179576190D01*
X33779047Y-179552380D01*
X33802857Y-179528571D01*
X33802857Y-179361904D01*
X33707619Y-179361904D01*
X34017142Y-179576190D02*
X34017142Y-179076190D01*
X34302857Y-179576190D01*
X34302857Y-179076190D01*
X34540952Y-179576190D02*
X34540952Y-179076190D01*
X34660000Y-179076190D01*
X34731428Y-179100000D01*
X34779047Y-179147619D01*
X34802857Y-179195238D01*
X34826666Y-179290476D01*
X34826666Y-179361904D01*
X34802857Y-179457142D01*
X34779047Y-179504761D01*
X34731428Y-179552380D01*
X34660000Y-179576190D01*
X34540952Y-179576190D01*
G04 #@! TO.C,U1*
X30205952Y-179426190D02*
X30205952Y-179830952D01*
X30182142Y-179878571D01*
X30158333Y-179902380D01*
X30110714Y-179926190D01*
X30015476Y-179926190D01*
X29967857Y-179902380D01*
X29944047Y-179878571D01*
X29920238Y-179830952D01*
X29920238Y-179426190D01*
X29420238Y-179926190D02*
X29705952Y-179926190D01*
X29563095Y-179926190D02*
X29563095Y-179426190D01*
X29610714Y-179497619D01*
X29658333Y-179545238D01*
X29705952Y-179569047D01*
D11*
G04 #@! TO.C,R2b1*
X34586190Y-169902380D02*
X34348095Y-169735714D01*
X34586190Y-169616666D02*
X34086190Y-169616666D01*
X34086190Y-169807142D01*
X34110000Y-169854761D01*
X34133809Y-169878571D01*
X34181428Y-169902380D01*
X34252857Y-169902380D01*
X34300476Y-169878571D01*
X34324285Y-169854761D01*
X34348095Y-169807142D01*
X34348095Y-169616666D01*
X34133809Y-170092857D02*
X34110000Y-170116666D01*
X34086190Y-170164285D01*
X34086190Y-170283333D01*
X34110000Y-170330952D01*
X34133809Y-170354761D01*
X34181428Y-170378571D01*
X34229047Y-170378571D01*
X34300476Y-170354761D01*
X34586190Y-170069047D01*
X34586190Y-170378571D01*
X34586190Y-170592857D02*
X34086190Y-170592857D01*
X34276666Y-170592857D02*
X34252857Y-170640476D01*
X34252857Y-170735714D01*
X34276666Y-170783333D01*
X34300476Y-170807142D01*
X34348095Y-170830952D01*
X34490952Y-170830952D01*
X34538571Y-170807142D01*
X34562380Y-170783333D01*
X34586190Y-170735714D01*
X34586190Y-170640476D01*
X34562380Y-170592857D01*
X34586190Y-171307142D02*
X34586190Y-171021428D01*
X34586190Y-171164285D02*
X34086190Y-171164285D01*
X34157619Y-171116666D01*
X34205238Y-171069047D01*
X34229047Y-171021428D01*
D12*
G04 #@! TO.C,R9*
X20031428Y-185100000D02*
X19745714Y-184900000D01*
X20031428Y-184757142D02*
X19431428Y-184757142D01*
X19431428Y-184985714D01*
X19460000Y-185042857D01*
X19488571Y-185071428D01*
X19545714Y-185100000D01*
X19631428Y-185100000D01*
X19688571Y-185071428D01*
X19717142Y-185042857D01*
X19745714Y-184985714D01*
X19745714Y-184757142D01*
X20031428Y-185385714D02*
X20031428Y-185500000D01*
X20002857Y-185557142D01*
X19974285Y-185585714D01*
X19888571Y-185642857D01*
X19774285Y-185671428D01*
X19545714Y-185671428D01*
X19488571Y-185642857D01*
X19460000Y-185614285D01*
X19431428Y-185557142D01*
X19431428Y-185442857D01*
X19460000Y-185385714D01*
X19488571Y-185357142D01*
X19545714Y-185328571D01*
X19688571Y-185328571D01*
X19745714Y-185357142D01*
X19774285Y-185385714D01*
X19802857Y-185442857D01*
X19802857Y-185557142D01*
X19774285Y-185614285D01*
X19745714Y-185642857D01*
X19688571Y-185671428D01*
D10*
G04 #@! TO.C,Q2*
X17657619Y-190473809D02*
X17705238Y-190450000D01*
X17752857Y-190402380D01*
X17824285Y-190330952D01*
X17871904Y-190307142D01*
X17919523Y-190307142D01*
X17895714Y-190426190D02*
X17943333Y-190402380D01*
X17990952Y-190354761D01*
X18014761Y-190259523D01*
X18014761Y-190092857D01*
X17990952Y-189997619D01*
X17943333Y-189950000D01*
X17895714Y-189926190D01*
X17800476Y-189926190D01*
X17752857Y-189950000D01*
X17705238Y-189997619D01*
X17681428Y-190092857D01*
X17681428Y-190259523D01*
X17705238Y-190354761D01*
X17752857Y-190402380D01*
X17800476Y-190426190D01*
X17895714Y-190426190D01*
X17490952Y-189973809D02*
X17467142Y-189950000D01*
X17419523Y-189926190D01*
X17300476Y-189926190D01*
X17252857Y-189950000D01*
X17229047Y-189973809D01*
X17205238Y-190021428D01*
X17205238Y-190069047D01*
X17229047Y-190140476D01*
X17514761Y-190426190D01*
X17205238Y-190426190D01*
G04 #@! TO.C,R1*
X21236190Y-171266666D02*
X20998095Y-171100000D01*
X21236190Y-170980952D02*
X20736190Y-170980952D01*
X20736190Y-171171428D01*
X20760000Y-171219047D01*
X20783809Y-171242857D01*
X20831428Y-171266666D01*
X20902857Y-171266666D01*
X20950476Y-171242857D01*
X20974285Y-171219047D01*
X20998095Y-171171428D01*
X20998095Y-170980952D01*
X21236190Y-171742857D02*
X21236190Y-171457142D01*
X21236190Y-171600000D02*
X20736190Y-171600000D01*
X20807619Y-171552380D01*
X20855238Y-171504761D01*
X20879047Y-171457142D01*
G04 #@! TO.C,U2*
X23290952Y-183726190D02*
X23290952Y-184130952D01*
X23267142Y-184178571D01*
X23243333Y-184202380D01*
X23195714Y-184226190D01*
X23100476Y-184226190D01*
X23052857Y-184202380D01*
X23029047Y-184178571D01*
X23005238Y-184130952D01*
X23005238Y-183726190D01*
X22790952Y-183773809D02*
X22767142Y-183750000D01*
X22719523Y-183726190D01*
X22600476Y-183726190D01*
X22552857Y-183750000D01*
X22529047Y-183773809D01*
X22505238Y-183821428D01*
X22505238Y-183869047D01*
X22529047Y-183940476D01*
X22814761Y-184226190D01*
X22505238Y-184226190D01*
G04 #@! TO.C,Q1*
X19807619Y-179486309D02*
X19855238Y-179462500D01*
X19902857Y-179414880D01*
X19974285Y-179343452D01*
X20021904Y-179319642D01*
X20069523Y-179319642D01*
X20045714Y-179438690D02*
X20093333Y-179414880D01*
X20140952Y-179367261D01*
X20164761Y-179272023D01*
X20164761Y-179105357D01*
X20140952Y-179010119D01*
X20093333Y-178962500D01*
X20045714Y-178938690D01*
X19950476Y-178938690D01*
X19902857Y-178962500D01*
X19855238Y-179010119D01*
X19831428Y-179105357D01*
X19831428Y-179272023D01*
X19855238Y-179367261D01*
X19902857Y-179414880D01*
X19950476Y-179438690D01*
X20045714Y-179438690D01*
X19355238Y-179438690D02*
X19640952Y-179438690D01*
X19498095Y-179438690D02*
X19498095Y-178938690D01*
X19545714Y-179010119D01*
X19593333Y-179057738D01*
X19640952Y-179081547D01*
D12*
G04 #@! TO.C,Q3*
X24826666Y-172133333D02*
X24893333Y-172100000D01*
X24960000Y-172033333D01*
X25060000Y-171933333D01*
X25126666Y-171900000D01*
X25193333Y-171900000D01*
X25160000Y-172066666D02*
X25226666Y-172033333D01*
X25293333Y-171966666D01*
X25326666Y-171833333D01*
X25326666Y-171600000D01*
X25293333Y-171466666D01*
X25226666Y-171400000D01*
X25160000Y-171366666D01*
X25026666Y-171366666D01*
X24960000Y-171400000D01*
X24893333Y-171466666D01*
X24860000Y-171600000D01*
X24860000Y-171833333D01*
X24893333Y-171966666D01*
X24960000Y-172033333D01*
X25026666Y-172066666D01*
X25160000Y-172066666D01*
X24626666Y-171366666D02*
X24193333Y-171366666D01*
X24426666Y-171633333D01*
X24326666Y-171633333D01*
X24260000Y-171666666D01*
X24226666Y-171700000D01*
X24193333Y-171766666D01*
X24193333Y-171933333D01*
X24226666Y-172000000D01*
X24260000Y-172033333D01*
X24326666Y-172066666D01*
X24526666Y-172066666D01*
X24593333Y-172033333D01*
X24626666Y-172000000D01*
D10*
G04 #@! TO.C,R3*
X17236190Y-178279166D02*
X16998095Y-178112500D01*
X17236190Y-177993452D02*
X16736190Y-177993452D01*
X16736190Y-178183928D01*
X16760000Y-178231547D01*
X16783809Y-178255357D01*
X16831428Y-178279166D01*
X16902857Y-178279166D01*
X16950476Y-178255357D01*
X16974285Y-178231547D01*
X16998095Y-178183928D01*
X16998095Y-177993452D01*
X16736190Y-178445833D02*
X16736190Y-178755357D01*
X16926666Y-178588690D01*
X16926666Y-178660119D01*
X16950476Y-178707738D01*
X16974285Y-178731547D01*
X17021904Y-178755357D01*
X17140952Y-178755357D01*
X17188571Y-178731547D01*
X17212380Y-178707738D01*
X17236190Y-178660119D01*
X17236190Y-178517261D01*
X17212380Y-178469642D01*
X17188571Y-178445833D01*
D11*
G04 #@! TO.C,R2a1*
X34686190Y-172102380D02*
X34448095Y-171935714D01*
X34686190Y-171816666D02*
X34186190Y-171816666D01*
X34186190Y-172007142D01*
X34210000Y-172054761D01*
X34233809Y-172078571D01*
X34281428Y-172102380D01*
X34352857Y-172102380D01*
X34400476Y-172078571D01*
X34424285Y-172054761D01*
X34448095Y-172007142D01*
X34448095Y-171816666D01*
X34233809Y-172292857D02*
X34210000Y-172316666D01*
X34186190Y-172364285D01*
X34186190Y-172483333D01*
X34210000Y-172530952D01*
X34233809Y-172554761D01*
X34281428Y-172578571D01*
X34329047Y-172578571D01*
X34400476Y-172554761D01*
X34686190Y-172269047D01*
X34686190Y-172578571D01*
X34686190Y-173007142D02*
X34424285Y-173007142D01*
X34376666Y-172983333D01*
X34352857Y-172935714D01*
X34352857Y-172840476D01*
X34376666Y-172792857D01*
X34662380Y-173007142D02*
X34686190Y-172959523D01*
X34686190Y-172840476D01*
X34662380Y-172792857D01*
X34614761Y-172769047D01*
X34567142Y-172769047D01*
X34519523Y-172792857D01*
X34495714Y-172840476D01*
X34495714Y-172959523D01*
X34471904Y-173007142D01*
X34686190Y-173507142D02*
X34686190Y-173221428D01*
X34686190Y-173364285D02*
X34186190Y-173364285D01*
X34257619Y-173316666D01*
X34305238Y-173269047D01*
X34329047Y-173221428D01*
D10*
G04 #@! TO.C,U3*
X29925952Y-184551190D02*
X29925952Y-184955952D01*
X29902142Y-185003571D01*
X29878333Y-185027380D01*
X29830714Y-185051190D01*
X29735476Y-185051190D01*
X29687857Y-185027380D01*
X29664047Y-185003571D01*
X29640238Y-184955952D01*
X29640238Y-184551190D01*
X29449761Y-184551190D02*
X29140238Y-184551190D01*
X29306904Y-184741666D01*
X29235476Y-184741666D01*
X29187857Y-184765476D01*
X29164047Y-184789285D01*
X29140238Y-184836904D01*
X29140238Y-184955952D01*
X29164047Y-185003571D01*
X29187857Y-185027380D01*
X29235476Y-185051190D01*
X29378333Y-185051190D01*
X29425952Y-185027380D01*
X29449761Y-185003571D01*
D13*
G04 #@! TO.C,U1*
X26590000Y-173820000D02*
X33060000Y-173820000D01*
X33060000Y-179020000D02*
X30825000Y-179020000D01*
X33060000Y-173820000D02*
X33060000Y-179020000D01*
X28825000Y-179020000D02*
X26590000Y-179020000D01*
X26590000Y-179020000D02*
X26590000Y-173820000D01*
X30825000Y-179020000D02*
G75*
G03*
X28825000Y-179020000I-1000000J0D01*
G01*
G04 #@! TO.C,R2b1*
X32082936Y-171185000D02*
X32537064Y-171185000D01*
X32082936Y-169715000D02*
X32537064Y-169715000D01*
G04 #@! TO.C,R9*
X19095000Y-185427064D02*
X19095000Y-184972936D01*
X17625000Y-185427064D02*
X17625000Y-184972936D01*
G04 #@! TO.C,Q2*
X17050000Y-189537500D02*
X17050000Y-190187500D01*
X20170000Y-189537500D02*
X20170000Y-188887500D01*
X20170000Y-189537500D02*
X20170000Y-190187500D01*
X17050000Y-189537500D02*
X17050000Y-187862500D01*
G04 #@! TO.C,R1*
X22860000Y-171322936D02*
X22860000Y-171777064D01*
X21390000Y-171322936D02*
X21390000Y-171777064D01*
G04 #@! TO.C,U2*
X20750000Y-180000000D02*
X20750000Y-186010000D01*
X27570000Y-182250000D02*
X27570000Y-186010000D01*
X20750000Y-186010000D02*
X22010000Y-186010000D01*
X27570000Y-186010000D02*
X26310000Y-186010000D01*
G04 #@! TO.C,Q1*
X22670000Y-177600000D02*
X22670000Y-178250000D01*
X19550000Y-177600000D02*
X19550000Y-175925000D01*
X19550000Y-177600000D02*
X19550000Y-178250000D01*
X22670000Y-177600000D02*
X22670000Y-176950000D01*
G04 #@! TO.C,Q3*
X27210000Y-173360000D02*
X27860000Y-173360000D01*
X27210000Y-170240000D02*
X28885000Y-170240000D01*
X27210000Y-173360000D02*
X26560000Y-173360000D01*
X27210000Y-170240000D02*
X26560000Y-170240000D01*
G04 #@! TO.C,R3*
X18995000Y-178135436D02*
X18995000Y-178589564D01*
X17525000Y-178135436D02*
X17525000Y-178589564D01*
G04 #@! TO.C,R2a1*
X32082936Y-173135000D02*
X32537064Y-173135000D01*
X32082936Y-171665000D02*
X32537064Y-171665000D01*
G04 #@! TO.C,U3*
X32820000Y-185100000D02*
X32820000Y-183150000D01*
X32820000Y-185100000D02*
X32820000Y-188550000D01*
X27700000Y-185100000D02*
X27700000Y-187050000D01*
X27700000Y-185100000D02*
X27700000Y-183150000D01*
G04 #@! TD*
M02*
