M48
INCH,TZ
T1C0.0157
T2C0.0394
T3C0.0472
%
G90
G05
T1
X6120Y-76509
X6677Y-75256
X7189Y-68445
X7228Y-72008
X8193Y-75807
X8445Y-74035
X8567Y-72953
X8584Y-75853
X8944Y-72842
X9494Y-75608
X9512Y-66929
X10020Y-74390
X10417Y-67264
X10654Y-66811
X10654Y-74173
X10673Y-75682
X10732Y-72835
X11093Y-74803
X11441Y-71122
X11545Y-72792
X11638Y-75650
X11687Y-67077
X12327Y-74823
X12898Y-73110
X13791Y-73709
X13994Y-76371
X14000Y-74843
T2
X6126Y-67638
X6126Y-68638
X6126Y-69638
X6126Y-70638
X6126Y-71638
X6126Y-72638
X6126Y-73638
X6126Y-74638
X8203Y-66220
X8453Y-76450
X9203Y-66220
X9453Y-76450
X10203Y-66220
X10453Y-76450
X11203Y-66220
X11453Y-76450
X12203Y-66220
X12453Y-76450
X14992Y-67638
X14992Y-68638
X14992Y-69638
X14992Y-70638
X14992Y-71638
X14992Y-72638
X14992Y-73638
X14992Y-74638
T3
X7583Y-71319
X13488Y-71319
T0
M30
