G04 #@! TF.GenerationSoftware,KiCad,Pcbnew,(6.0.11)*
G04 #@! TF.CreationDate,2025-08-24T22:50:46+01:00*
G04 #@! TF.ProjectId,PCB_Dongle_Linky,5043425f-446f-46e6-976c-655f4c696e6b,rev?*
G04 #@! TF.SameCoordinates,Original*
G04 #@! TF.FileFunction,Legend,Bot*
G04 #@! TF.FilePolarity,Positive*
%FSLAX46Y46*%
G04 Gerber Fmt 4.6, Leading zero omitted, Abs format (unit mm)*
G04 Created by KiCad (PCBNEW (6.0.11)) date 2025-08-24 22:50:46*
%MOMM*%
%LPD*%
G01*
G04 APERTURE LIST*
%ADD10C,0.125000*%
%ADD11C,0.150000*%
%ADD12C,0.100000*%
%ADD13C,0.120000*%
G04 APERTURE END LIST*
D10*
X22592857Y-191211904D02*
X22592857Y-190411904D01*
X22288095Y-190411904D01*
X22211904Y-190450000D01*
X22173809Y-190488095D01*
X22135714Y-190564285D01*
X22135714Y-190678571D01*
X22173809Y-190754761D01*
X22211904Y-190792857D01*
X22288095Y-190830952D01*
X22592857Y-190830952D01*
X21792857Y-191211904D02*
X21792857Y-190678571D01*
X21792857Y-190411904D02*
X21830952Y-190450000D01*
X21792857Y-190488095D01*
X21754761Y-190450000D01*
X21792857Y-190411904D01*
X21792857Y-190488095D01*
X21411904Y-190678571D02*
X21411904Y-191211904D01*
X21411904Y-190754761D02*
X21373809Y-190716666D01*
X21297619Y-190678571D01*
X21183333Y-190678571D01*
X21107142Y-190716666D01*
X21069047Y-190792857D01*
X21069047Y-191211904D01*
X20269047Y-191211904D02*
X20726190Y-191211904D01*
X20497619Y-191211904D02*
X20497619Y-190411904D01*
X20573809Y-190526190D01*
X20650000Y-190602380D01*
X20726190Y-190640476D01*
D11*
G04 #@! TO.C,U2*
X29771428Y-181280357D02*
X30257142Y-181280357D01*
X30314285Y-181308928D01*
X30342857Y-181337500D01*
X30371428Y-181394642D01*
X30371428Y-181508928D01*
X30342857Y-181566071D01*
X30314285Y-181594642D01*
X30257142Y-181623214D01*
X29771428Y-181623214D01*
X29828571Y-181880357D02*
X29800000Y-181908928D01*
X29771428Y-181966071D01*
X29771428Y-182108928D01*
X29800000Y-182166071D01*
X29828571Y-182194642D01*
X29885714Y-182223214D01*
X29942857Y-182223214D01*
X30028571Y-182194642D01*
X30371428Y-181851785D01*
X30371428Y-182223214D01*
G04 #@! TO.C,R16*
X31698214Y-182721428D02*
X31898214Y-182435714D01*
X32041071Y-182721428D02*
X32041071Y-182121428D01*
X31812500Y-182121428D01*
X31755357Y-182150000D01*
X31726785Y-182178571D01*
X31698214Y-182235714D01*
X31698214Y-182321428D01*
X31726785Y-182378571D01*
X31755357Y-182407142D01*
X31812500Y-182435714D01*
X32041071Y-182435714D01*
X31126785Y-182721428D02*
X31469642Y-182721428D01*
X31298214Y-182721428D02*
X31298214Y-182121428D01*
X31355357Y-182207142D01*
X31412500Y-182264285D01*
X31469642Y-182292857D01*
X30612500Y-182121428D02*
X30726785Y-182121428D01*
X30783928Y-182150000D01*
X30812500Y-182178571D01*
X30869642Y-182264285D01*
X30898214Y-182378571D01*
X30898214Y-182607142D01*
X30869642Y-182664285D01*
X30841071Y-182692857D01*
X30783928Y-182721428D01*
X30669642Y-182721428D01*
X30612500Y-182692857D01*
X30583928Y-182664285D01*
X30555357Y-182607142D01*
X30555357Y-182464285D01*
X30583928Y-182407142D01*
X30612500Y-182378571D01*
X30669642Y-182350000D01*
X30783928Y-182350000D01*
X30841071Y-182378571D01*
X30869642Y-182407142D01*
X30898214Y-182464285D01*
G04 #@! TO.C,C5*
X22600000Y-184144285D02*
X22628571Y-184172857D01*
X22714285Y-184201428D01*
X22771428Y-184201428D01*
X22857142Y-184172857D01*
X22914285Y-184115714D01*
X22942857Y-184058571D01*
X22971428Y-183944285D01*
X22971428Y-183858571D01*
X22942857Y-183744285D01*
X22914285Y-183687142D01*
X22857142Y-183630000D01*
X22771428Y-183601428D01*
X22714285Y-183601428D01*
X22628571Y-183630000D01*
X22600000Y-183658571D01*
X22057142Y-183601428D02*
X22342857Y-183601428D01*
X22371428Y-183887142D01*
X22342857Y-183858571D01*
X22285714Y-183830000D01*
X22142857Y-183830000D01*
X22085714Y-183858571D01*
X22057142Y-183887142D01*
X22028571Y-183944285D01*
X22028571Y-184087142D01*
X22057142Y-184144285D01*
X22085714Y-184172857D01*
X22142857Y-184201428D01*
X22285714Y-184201428D01*
X22342857Y-184172857D01*
X22371428Y-184144285D01*
G04 #@! TO.C,C3*
X22600000Y-182344285D02*
X22628571Y-182372857D01*
X22714285Y-182401428D01*
X22771428Y-182401428D01*
X22857142Y-182372857D01*
X22914285Y-182315714D01*
X22942857Y-182258571D01*
X22971428Y-182144285D01*
X22971428Y-182058571D01*
X22942857Y-181944285D01*
X22914285Y-181887142D01*
X22857142Y-181830000D01*
X22771428Y-181801428D01*
X22714285Y-181801428D01*
X22628571Y-181830000D01*
X22600000Y-181858571D01*
X22400000Y-181801428D02*
X22028571Y-181801428D01*
X22228571Y-182030000D01*
X22142857Y-182030000D01*
X22085714Y-182058571D01*
X22057142Y-182087142D01*
X22028571Y-182144285D01*
X22028571Y-182287142D01*
X22057142Y-182344285D01*
X22085714Y-182372857D01*
X22142857Y-182401428D01*
X22314285Y-182401428D01*
X22371428Y-182372857D01*
X22400000Y-182344285D01*
G04 #@! TO.C,C2*
X26500000Y-186694285D02*
X26528571Y-186722857D01*
X26614285Y-186751428D01*
X26671428Y-186751428D01*
X26757142Y-186722857D01*
X26814285Y-186665714D01*
X26842857Y-186608571D01*
X26871428Y-186494285D01*
X26871428Y-186408571D01*
X26842857Y-186294285D01*
X26814285Y-186237142D01*
X26757142Y-186180000D01*
X26671428Y-186151428D01*
X26614285Y-186151428D01*
X26528571Y-186180000D01*
X26500000Y-186208571D01*
X26271428Y-186208571D02*
X26242857Y-186180000D01*
X26185714Y-186151428D01*
X26042857Y-186151428D01*
X25985714Y-186180000D01*
X25957142Y-186208571D01*
X25928571Y-186265714D01*
X25928571Y-186322857D01*
X25957142Y-186408571D01*
X26300000Y-186751428D01*
X25928571Y-186751428D01*
D10*
G04 #@! TO.C,U1*
X24480952Y-179656190D02*
X24480952Y-180060952D01*
X24457142Y-180108571D01*
X24433333Y-180132380D01*
X24385714Y-180156190D01*
X24290476Y-180156190D01*
X24242857Y-180132380D01*
X24219047Y-180108571D01*
X24195238Y-180060952D01*
X24195238Y-179656190D01*
X23695238Y-180156190D02*
X23980952Y-180156190D01*
X23838095Y-180156190D02*
X23838095Y-179656190D01*
X23885714Y-179727619D01*
X23933333Y-179775238D01*
X23980952Y-179799047D01*
D12*
G04 #@! TO.C,R2b1*
X34586190Y-169902380D02*
X34348095Y-169735714D01*
X34586190Y-169616666D02*
X34086190Y-169616666D01*
X34086190Y-169807142D01*
X34110000Y-169854761D01*
X34133809Y-169878571D01*
X34181428Y-169902380D01*
X34252857Y-169902380D01*
X34300476Y-169878571D01*
X34324285Y-169854761D01*
X34348095Y-169807142D01*
X34348095Y-169616666D01*
X34133809Y-170092857D02*
X34110000Y-170116666D01*
X34086190Y-170164285D01*
X34086190Y-170283333D01*
X34110000Y-170330952D01*
X34133809Y-170354761D01*
X34181428Y-170378571D01*
X34229047Y-170378571D01*
X34300476Y-170354761D01*
X34586190Y-170069047D01*
X34586190Y-170378571D01*
X34586190Y-170592857D02*
X34086190Y-170592857D01*
X34276666Y-170592857D02*
X34252857Y-170640476D01*
X34252857Y-170735714D01*
X34276666Y-170783333D01*
X34300476Y-170807142D01*
X34348095Y-170830952D01*
X34490952Y-170830952D01*
X34538571Y-170807142D01*
X34562380Y-170783333D01*
X34586190Y-170735714D01*
X34586190Y-170640476D01*
X34562380Y-170592857D01*
X34586190Y-171307142D02*
X34586190Y-171021428D01*
X34586190Y-171164285D02*
X34086190Y-171164285D01*
X34157619Y-171116666D01*
X34205238Y-171069047D01*
X34229047Y-171021428D01*
D11*
G04 #@! TO.C,R9*
X31950000Y-185421428D02*
X32150000Y-185135714D01*
X32292857Y-185421428D02*
X32292857Y-184821428D01*
X32064285Y-184821428D01*
X32007142Y-184850000D01*
X31978571Y-184878571D01*
X31950000Y-184935714D01*
X31950000Y-185021428D01*
X31978571Y-185078571D01*
X32007142Y-185107142D01*
X32064285Y-185135714D01*
X32292857Y-185135714D01*
X31664285Y-185421428D02*
X31550000Y-185421428D01*
X31492857Y-185392857D01*
X31464285Y-185364285D01*
X31407142Y-185278571D01*
X31378571Y-185164285D01*
X31378571Y-184935714D01*
X31407142Y-184878571D01*
X31435714Y-184850000D01*
X31492857Y-184821428D01*
X31607142Y-184821428D01*
X31664285Y-184850000D01*
X31692857Y-184878571D01*
X31721428Y-184935714D01*
X31721428Y-185078571D01*
X31692857Y-185135714D01*
X31664285Y-185164285D01*
X31607142Y-185192857D01*
X31492857Y-185192857D01*
X31435714Y-185164285D01*
X31407142Y-185135714D01*
X31378571Y-185078571D01*
D10*
G04 #@! TO.C,R1*
X21236190Y-171266666D02*
X20998095Y-171100000D01*
X21236190Y-170980952D02*
X20736190Y-170980952D01*
X20736190Y-171171428D01*
X20760000Y-171219047D01*
X20783809Y-171242857D01*
X20831428Y-171266666D01*
X20902857Y-171266666D01*
X20950476Y-171242857D01*
X20974285Y-171219047D01*
X20998095Y-171171428D01*
X20998095Y-170980952D01*
X21236190Y-171742857D02*
X21236190Y-171457142D01*
X21236190Y-171600000D02*
X20736190Y-171600000D01*
X20807619Y-171552380D01*
X20855238Y-171504761D01*
X20879047Y-171457142D01*
G04 #@! TO.C,Q1*
X31073809Y-175352380D02*
X31050000Y-175304761D01*
X31002380Y-175257142D01*
X30930952Y-175185714D01*
X30907142Y-175138095D01*
X30907142Y-175090476D01*
X31026190Y-175114285D02*
X31002380Y-175066666D01*
X30954761Y-175019047D01*
X30859523Y-174995238D01*
X30692857Y-174995238D01*
X30597619Y-175019047D01*
X30550000Y-175066666D01*
X30526190Y-175114285D01*
X30526190Y-175209523D01*
X30550000Y-175257142D01*
X30597619Y-175304761D01*
X30692857Y-175328571D01*
X30859523Y-175328571D01*
X30954761Y-175304761D01*
X31002380Y-175257142D01*
X31026190Y-175209523D01*
X31026190Y-175114285D01*
X31026190Y-175804761D02*
X31026190Y-175519047D01*
X31026190Y-175661904D02*
X30526190Y-175661904D01*
X30597619Y-175614285D01*
X30645238Y-175566666D01*
X30669047Y-175519047D01*
D11*
G04 #@! TO.C,Q3*
X24826666Y-172133333D02*
X24893333Y-172100000D01*
X24960000Y-172033333D01*
X25060000Y-171933333D01*
X25126666Y-171900000D01*
X25193333Y-171900000D01*
X25160000Y-172066666D02*
X25226666Y-172033333D01*
X25293333Y-171966666D01*
X25326666Y-171833333D01*
X25326666Y-171600000D01*
X25293333Y-171466666D01*
X25226666Y-171400000D01*
X25160000Y-171366666D01*
X25026666Y-171366666D01*
X24960000Y-171400000D01*
X24893333Y-171466666D01*
X24860000Y-171600000D01*
X24860000Y-171833333D01*
X24893333Y-171966666D01*
X24960000Y-172033333D01*
X25026666Y-172066666D01*
X25160000Y-172066666D01*
X24626666Y-171366666D02*
X24193333Y-171366666D01*
X24426666Y-171633333D01*
X24326666Y-171633333D01*
X24260000Y-171666666D01*
X24226666Y-171700000D01*
X24193333Y-171766666D01*
X24193333Y-171933333D01*
X24226666Y-172000000D01*
X24260000Y-172033333D01*
X24326666Y-172066666D01*
X24526666Y-172066666D01*
X24593333Y-172033333D01*
X24626666Y-172000000D01*
D10*
G04 #@! TO.C,R3*
X31683333Y-178276190D02*
X31850000Y-178038095D01*
X31969047Y-178276190D02*
X31969047Y-177776190D01*
X31778571Y-177776190D01*
X31730952Y-177800000D01*
X31707142Y-177823809D01*
X31683333Y-177871428D01*
X31683333Y-177942857D01*
X31707142Y-177990476D01*
X31730952Y-178014285D01*
X31778571Y-178038095D01*
X31969047Y-178038095D01*
X31516666Y-177776190D02*
X31207142Y-177776190D01*
X31373809Y-177966666D01*
X31302380Y-177966666D01*
X31254761Y-177990476D01*
X31230952Y-178014285D01*
X31207142Y-178061904D01*
X31207142Y-178180952D01*
X31230952Y-178228571D01*
X31254761Y-178252380D01*
X31302380Y-178276190D01*
X31445238Y-178276190D01*
X31492857Y-178252380D01*
X31516666Y-178228571D01*
D12*
G04 #@! TO.C,R2a1*
X34686190Y-172102380D02*
X34448095Y-171935714D01*
X34686190Y-171816666D02*
X34186190Y-171816666D01*
X34186190Y-172007142D01*
X34210000Y-172054761D01*
X34233809Y-172078571D01*
X34281428Y-172102380D01*
X34352857Y-172102380D01*
X34400476Y-172078571D01*
X34424285Y-172054761D01*
X34448095Y-172007142D01*
X34448095Y-171816666D01*
X34233809Y-172292857D02*
X34210000Y-172316666D01*
X34186190Y-172364285D01*
X34186190Y-172483333D01*
X34210000Y-172530952D01*
X34233809Y-172554761D01*
X34281428Y-172578571D01*
X34329047Y-172578571D01*
X34400476Y-172554761D01*
X34686190Y-172269047D01*
X34686190Y-172578571D01*
X34686190Y-173007142D02*
X34424285Y-173007142D01*
X34376666Y-172983333D01*
X34352857Y-172935714D01*
X34352857Y-172840476D01*
X34376666Y-172792857D01*
X34662380Y-173007142D02*
X34686190Y-172959523D01*
X34686190Y-172840476D01*
X34662380Y-172792857D01*
X34614761Y-172769047D01*
X34567142Y-172769047D01*
X34519523Y-172792857D01*
X34495714Y-172840476D01*
X34495714Y-172959523D01*
X34471904Y-173007142D01*
X34686190Y-173507142D02*
X34686190Y-173221428D01*
X34686190Y-173364285D02*
X34186190Y-173364285D01*
X34257619Y-173316666D01*
X34305238Y-173269047D01*
X34329047Y-173221428D01*
D10*
G04 #@! TO.C,U3*
X31326190Y-186289047D02*
X31730952Y-186289047D01*
X31778571Y-186312857D01*
X31802380Y-186336666D01*
X31826190Y-186384285D01*
X31826190Y-186479523D01*
X31802380Y-186527142D01*
X31778571Y-186550952D01*
X31730952Y-186574761D01*
X31326190Y-186574761D01*
X31326190Y-186765238D02*
X31326190Y-187074761D01*
X31516666Y-186908095D01*
X31516666Y-186979523D01*
X31540476Y-187027142D01*
X31564285Y-187050952D01*
X31611904Y-187074761D01*
X31730952Y-187074761D01*
X31778571Y-187050952D01*
X31802380Y-187027142D01*
X31826190Y-186979523D01*
X31826190Y-186836666D01*
X31802380Y-186789047D01*
X31778571Y-186765238D01*
D13*
G04 #@! TO.C,U2*
X29260000Y-181737500D02*
X29260000Y-181087500D01*
X26140000Y-181737500D02*
X26140000Y-181087500D01*
X29260000Y-181737500D02*
X29260000Y-183412500D01*
X26140000Y-181737500D02*
X26140000Y-182387500D01*
G04 #@! TO.C,R16*
X30872936Y-181985000D02*
X31327064Y-181985000D01*
X30872936Y-180515000D02*
X31327064Y-180515000D01*
G04 #@! TO.C,C5*
X22238748Y-181515000D02*
X22761252Y-181515000D01*
X22238748Y-182985000D02*
X22761252Y-182985000D01*
G04 #@! TO.C,C3*
X22238748Y-179715000D02*
X22761252Y-179715000D01*
X22238748Y-181185000D02*
X22761252Y-181185000D01*
G04 #@! TO.C,C2*
X26138748Y-184065000D02*
X26661252Y-184065000D01*
X26138748Y-185535000D02*
X26661252Y-185535000D01*
G04 #@! TO.C,U1*
X20865000Y-174050000D02*
X27335000Y-174050000D01*
X27335000Y-179250000D02*
X25100000Y-179250000D01*
X27335000Y-174050000D02*
X27335000Y-179250000D01*
X23100000Y-179250000D02*
X20865000Y-179250000D01*
X20865000Y-179250000D02*
X20865000Y-174050000D01*
X25100000Y-179250000D02*
G75*
G03*
X23100000Y-179250000I-1000000J0D01*
G01*
G04 #@! TO.C,R2b1*
X32082936Y-171185000D02*
X32537064Y-171185000D01*
X32082936Y-169715000D02*
X32537064Y-169715000D01*
G04 #@! TO.C,R9*
X31622936Y-184485000D02*
X32077064Y-184485000D01*
X31622936Y-183015000D02*
X32077064Y-183015000D01*
G04 #@! TO.C,R1*
X22860000Y-171322936D02*
X22860000Y-171777064D01*
X21390000Y-171322936D02*
X21390000Y-171777064D01*
G04 #@! TO.C,Q1*
X32412500Y-178310000D02*
X33062500Y-178310000D01*
X32412500Y-175190000D02*
X31762500Y-175190000D01*
X32412500Y-175190000D02*
X34087500Y-175190000D01*
X32412500Y-178310000D02*
X31762500Y-178310000D01*
G04 #@! TO.C,Q3*
X27210000Y-173360000D02*
X27860000Y-173360000D01*
X27210000Y-170240000D02*
X28885000Y-170240000D01*
X27210000Y-173360000D02*
X26560000Y-173360000D01*
X27210000Y-170240000D02*
X26560000Y-170240000D01*
G04 #@! TO.C,R3*
X31827064Y-180035000D02*
X31372936Y-180035000D01*
X31827064Y-178565000D02*
X31372936Y-178565000D01*
G04 #@! TO.C,R2a1*
X32082936Y-173135000D02*
X32537064Y-173135000D01*
X32082936Y-171665000D02*
X32537064Y-171665000D01*
G04 #@! TO.C,U3*
X31825000Y-190245000D02*
X33775000Y-190245000D01*
X31825000Y-190245000D02*
X28375000Y-190245000D01*
X31825000Y-185125000D02*
X29875000Y-185125000D01*
X31825000Y-185125000D02*
X33775000Y-185125000D01*
G04 #@! TD*
M02*
