G04 #@! TF.GenerationSoftware,KiCad,Pcbnew,(6.0.11)*
G04 #@! TF.CreationDate,2025-08-24T22:50:46+01:00*
G04 #@! TF.ProjectId,PCB_Dongle_Linky,5043425f-446f-46e6-976c-655f4c696e6b,rev?*
G04 #@! TF.SameCoordinates,Original*
G04 #@! TF.FileFunction,Soldermask,Top*
G04 #@! TF.FilePolarity,Negative*
%FSLAX46Y46*%
G04 Gerber Fmt 4.6, Leading zero omitted, Abs format (unit mm)*
G04 Created by KiCad (PCBNEW (6.0.11)) date 2025-08-24 22:50:46*
%MOMM*%
%LPD*%
G01*
G04 APERTURE LIST*
G04 Aperture macros list*
%AMRoundRect*
0 Rectangle with rounded corners*
0 $1 Rounding radius*
0 $2 $3 $4 $5 $6 $7 $8 $9 X,Y pos of 4 corners*
0 Add a 4 corners polygon primitive as box body*
4,1,4,$2,$3,$4,$5,$6,$7,$8,$9,$2,$3,0*
0 Add four circle primitives for the rounded corners*
1,1,$1+$1,$2,$3*
1,1,$1+$1,$4,$5*
1,1,$1+$1,$6,$7*
1,1,$1+$1,$8,$9*
0 Add four rect primitives between the rounded corners*
20,1,$1+$1,$2,$3,$4,$5,0*
20,1,$1+$1,$4,$5,$6,$7,0*
20,1,$1+$1,$6,$7,$8,$9,0*
20,1,$1+$1,$8,$9,$2,$3,0*%
G04 Aperture macros list end*
%ADD10R,3.400000X1.800000*%
%ADD11R,1.000000X2.200000*%
%ADD12RoundRect,0.250000X0.450000X-0.262500X0.450000X0.262500X-0.450000X0.262500X-0.450000X-0.262500X0*%
%ADD13RoundRect,0.250000X-0.250000X-0.475000X0.250000X-0.475000X0.250000X0.475000X-0.250000X0.475000X0*%
%ADD14RoundRect,0.250000X0.262500X0.450000X-0.262500X0.450000X-0.262500X-0.450000X0.262500X-0.450000X0*%
%ADD15R,2.500000X2.300000*%
%ADD16R,1.700000X1.700000*%
%ADD17O,1.700000X1.700000*%
%ADD18C,2.400000*%
%ADD19RoundRect,0.250000X-0.450000X0.262500X-0.450000X-0.262500X0.450000X-0.262500X0.450000X0.262500X0*%
%ADD20RoundRect,0.250000X-0.262500X-0.450000X0.262500X-0.450000X0.262500X0.450000X-0.262500X0.450000X0*%
%ADD21RoundRect,0.150000X-0.150000X0.587500X-0.150000X-0.587500X0.150000X-0.587500X0.150000X0.587500X0*%
G04 APERTURE END LIST*
D10*
G04 #@! TO.C,U4*
X21900000Y-190150000D03*
D11*
X19650000Y-183850000D03*
X21150000Y-183850000D03*
X22650000Y-183850000D03*
X24150000Y-183850000D03*
G04 #@! TD*
D12*
G04 #@! TO.C,R15*
X26150000Y-189200000D03*
X26150000Y-187375000D03*
G04 #@! TD*
D13*
G04 #@! TO.C,C4*
X16800000Y-193300000D03*
X18700000Y-193300000D03*
G04 #@! TD*
D14*
G04 #@! TO.C,R4*
X24775000Y-181250000D03*
X22950000Y-181250000D03*
G04 #@! TD*
D15*
G04 #@! TO.C,D4*
X28450000Y-177900000D03*
X32750000Y-177900000D03*
G04 #@! TD*
G04 #@! TO.C,D1*
X25300000Y-173350000D03*
X21000000Y-173350000D03*
G04 #@! TD*
D16*
G04 #@! TO.C,J0*
X20835000Y-168200000D03*
D17*
X23375000Y-168200000D03*
X25915000Y-168200000D03*
X28455000Y-168200000D03*
X30995000Y-168200000D03*
G04 #@! TD*
D16*
G04 #@! TO.C,J2*
X38080000Y-171800000D03*
D17*
X38080000Y-174340000D03*
X38080000Y-176880000D03*
X38080000Y-179420000D03*
X38080000Y-181960000D03*
X38080000Y-184500000D03*
X38080000Y-187040000D03*
X38080000Y-189580000D03*
G04 #@! TD*
D16*
G04 #@! TO.C,J1*
X15560000Y-171800000D03*
D17*
X15560000Y-174340000D03*
X15560000Y-176880000D03*
X15560000Y-179420000D03*
X15560000Y-181960000D03*
X15560000Y-184500000D03*
X15560000Y-187040000D03*
X15560000Y-189580000D03*
G04 #@! TD*
D16*
G04 #@! TO.C,J4*
X21320000Y-192700000D03*
D17*
X23860000Y-192700000D03*
X26400000Y-192700000D03*
X28940000Y-192700000D03*
X31480000Y-192700000D03*
G04 #@! TD*
D12*
G04 #@! TO.C,R10*
X18350000Y-172812500D03*
X18350000Y-170987500D03*
G04 #@! TD*
D15*
G04 #@! TO.C,D3*
X21000000Y-177950000D03*
X25300000Y-177950000D03*
G04 #@! TD*
D14*
G04 #@! TO.C,R5*
X29212500Y-181300000D03*
X27387500Y-181300000D03*
G04 #@! TD*
D18*
G04 #@! TO.C,C1*
X34260000Y-181150000D03*
X19260000Y-181150000D03*
G04 #@! TD*
D19*
G04 #@! TO.C,R11*
X18200000Y-189837500D03*
X18200000Y-191662500D03*
G04 #@! TD*
D14*
G04 #@! TO.C,R7*
X35750000Y-183650000D03*
X33925000Y-183650000D03*
G04 #@! TD*
D20*
G04 #@! TO.C,R8*
X37125000Y-192550000D03*
X38950000Y-192550000D03*
G04 #@! TD*
D15*
G04 #@! TO.C,D2*
X28450000Y-173350000D03*
X32750000Y-173350000D03*
G04 #@! TD*
D21*
G04 #@! TO.C,Q2*
X27550000Y-186225000D03*
X26600000Y-184350000D03*
X28500000Y-184350000D03*
G04 #@! TD*
M02*
